#N canvas 0 23 1680 953 10;
#X obj 465 21 adc~ 1;
#X obj 1278 12 loadbang;
#X obj 431 633 mono_plate;
#X obj 1455 717 adc~ 8;
#X obj 1456 743 lop~ 50;
#X obj 1458 779 snapshot~;
#X obj 1517 714 loadbang;
#X msg 1518 737 1;
#X text 1341 96 init values;
#X obj 677 140 bng 15 250 50 0 empty empty empty 17 7 0 10 -262144
-1 -1;
#X obj 661 58 bonk~;
#X msg 612 30 mask 4 0.7;
#X msg 699 29 attack-frames 1;
#X obj 657 8 loadbang;
#X msg 818 30 minvel 10;
#X obj 79 466 -, f 22;
#X obj 11 724 s reverb_predelay;
#X obj 63 696 s reverb_bandwidth;
#X obj 91 869 s reverb_damping;
#X obj 141 844 s reverb_gain;
#X floatatom 11 697 5 0 0 0 - - -;
#X floatatom 62 668 5 0 0 0 - - -;
#X floatatom 92 812 5 0 0 0 - - -;
#X floatatom 141 818 5 0 0 0 - - -;
#X text 23 679 10;
#X text 136 800 0.94;
#X obj 18 357 del 10;
#X text 91 795 0.2;
#X text 59 647 0.1;
#X obj 659 745 +~;
#X obj 1029 645 + 500;
#X obj 385 857 env~ 1024 64;
#X obj 383 878 / 100;
#X floatatom 428 877 5 0 0 0 - - -;
#X obj 940 607 line~;
#X text 892 387 pluck ramp;
#X msg 932 576 0 10000;
#X obj 926 702 *~;
#X obj 908 402 del 5;
#X obj 989 650 lop~;
#X obj 427 900 + 0.2;
#X obj 1005 572 pluck~, f 19;
#X obj 813 114 del 30;
#X obj 1004 535 del 20;
#X obj 813 93 del 30;
#X text 1527 783 0.27 - 0.6 is the IR sensor range., f 18;
#X text 60 342 "whole-tone" gate;
#N canvas 77 35 259 278 drone_octave 0;
#X obj 89 56 inlet;
#X msg 94 173 0;
#X msg 128 173 12;
#X text 102 113 octave selector;
#X obj 92 129 sel 0 1 2;
#X obj 86 209 outlet;
#X msg 164 173 24;
#X obj 88 86 random 2;
#X connect 0 0 7 0;
#X connect 1 0 5 0;
#X connect 2 0 5 0;
#X connect 4 0 1 0;
#X connect 4 1 2 0;
#X connect 4 2 6 0;
#X connect 6 0 5 0;
#X connect 7 0 4 0;
#X restore 94 425 pd drone_octave;
#X obj 385 900 s env;
#X obj 1029 600 r env;
#X obj 1527 871 s IR;
#X obj 334 258 r IR;
#X obj 1439 309 r IR;
#N canvas 219 156 407 348 lead_octave 0;
#X obj 17 15 inlet;
#X obj 11 166 expr ($f1+1)*12;
#X obj 10 274 outlet;
#X obj 97 24 loadbang;
#X floatatom 112 199 5 0 0 0 - - -;
#X obj 251 253 s p-transpose;
#X msg 207 181 12;
#X msg 304 182 0;
#X obj 15 40 t b b;
#X obj 96 264 outlet bang;
#X msg 254 181 -12;
#X msg 341 183 24;
#X obj 216 117 sel 0 1 2 3;
#X obj 18 73 random 4;
#X connect 0 0 8 0;
#X connect 1 0 4 0;
#X connect 3 0 13 0;
#X connect 6 0 5 0;
#X connect 6 0 2 0;
#X connect 7 0 5 0;
#X connect 7 0 2 0;
#X connect 8 0 9 0;
#X connect 8 1 13 0;
#X connect 10 0 5 0;
#X connect 10 0 2 0;
#X connect 11 0 2 0;
#X connect 12 0 10 0;
#X connect 12 1 7 0;
#X connect 12 2 6 0;
#X connect 12 3 11 0;
#X connect 13 0 1 0;
#X connect 13 0 12 0;
#X restore 1261 324 pd lead_octave;
#X obj 1127 524 +, f 21;
#X obj 1441 843 s IRthresh;
#N canvas 449 272 288 379 mainCounter 0;
#X obj 106 114 + 1, f 14;
#X obj 106 137 t b f;
#X floatatom 106 163 5 0 0 0 - - -;
#X msg 73 105 0;
#X msg 105 91 1;
#X text 63 90 reset;
#X text 96 75 increment;
#X obj 70 70 bng 15 250 50 0 empty empty empty 17 7 0 10 -262144 -1
-1;
#X obj 36 145 select 4;
#X obj 161 150 sel 1;
#X obj 160 90 value mainCount;
#X obj 69 217 select 0;
#X obj 130 208 select 7;
#X obj 27 48 loadbang;
#X obj 68 251 del 10;
#X obj 104 19 inlet;
#X obj 48 328 outlet;
#X obj 124 292 bng 15 250 50 0 empty empty empty 17 7 0 10 -262144
-1 -1;
#X connect 0 0 1 0;
#X connect 1 0 10 0;
#X connect 1 1 2 0;
#X connect 1 1 10 0;
#X connect 1 1 11 0;
#X connect 1 1 12 0;
#X connect 2 0 8 0;
#X connect 2 0 9 0;
#X connect 3 0 1 0;
#X connect 4 0 0 0;
#X connect 7 0 3 0;
#X connect 8 0 7 0;
#X connect 10 0 0 1;
#X connect 11 0 14 0;
#X connect 12 0 7 0;
#X connect 13 0 7 0;
#X connect 14 0 16 0;
#X connect 14 0 17 0;
#X connect 15 0 4 0;
#X restore 286 232 pd mainCounter;
#X text 806 264 PLUCK ========================================================================================
, f 94;
#X text 20 245 DRONE ==================================================================================
, f 88;
#X obj 1525 816 clip 0.27 0.6;
#X obj 1526 837 expr ($f1-0.27)*3;
#X text 494 78 INPUT ======================================================
;
#N canvas 842 240 500 492 firefly 0;
#X obj 22 272 phasor~ 1;
#X obj 123 105 snapshot~;
#X obj 201 189 t f f;
#X obj 228 212 * 0.1;
#X obj 201 234 + 0.1;
#X text 171 307 find edge~;
#X obj 174 131 expr if ($f1 > 0.98 \, 0 \, if ($f1 < 0.02 \, 0 \, $f1))
\;;
#X obj 174 156 sel 0;
#X obj 27 376 threshold~ 0.99 10 0.6 0;
#X obj 245 282 > 1;
#X obj 252 338 sel 1;
#X obj 175 41 inlet;
#X obj 174 73 bang;
#X obj 224 441 outlet;
#X text 282 464 Firefly algo. by Kristian Nymoen;
#X obj 312 230 nbx 5 14 -1e+37 1e+37 0 0 empty empty empty 0 -8 0 10
-262144 -1 -1 0 256;
#X obj 318 172 loadbang;
#X msg 318 197 0.1;
#X obj 225 407 bng 15 250 50 0 empty empty empty 17 7 0 10 -262144
-1 -1;
#X connect 0 0 1 0;
#X connect 0 0 8 0;
#X connect 1 0 6 0;
#X connect 2 0 4 0;
#X connect 2 1 3 0;
#X connect 3 0 4 1;
#X connect 4 0 0 1;
#X connect 4 0 9 0;
#X connect 6 0 7 0;
#X connect 7 1 2 0;
#X connect 8 0 18 0;
#X connect 9 0 10 0;
#X connect 10 0 18 0;
#X connect 11 0 12 0;
#X connect 12 0 1 0;
#X connect 15 0 3 1;
#X connect 16 0 17 0;
#X connect 18 0 13 0;
#X restore 680 106 pd firefly;
#X msg 1278 31 \; reverb_gain 0.94 \; reverb_damping 0.2 \; reverb_bandwidth
0.1 \; reverb_predelay 10 \;;
#X obj 1592 875 print;
#X obj 721 68 bng 15 250 50 0 empty empty empty 17 7 0 10 -262144 -1
-1;
#X floatatom 1450 881 5 0 0 0 - - -;
#X floatatom 1229 547 5 0 0 0 - - -;
#X floatatom 100 490 5 0 0 0 - - -;
#X obj 1451 901 / 100;
#X floatatom 1449 920 5 0 0 0 - - -;
#X obj 867 485 delay 255;
#X floatatom 1031 681 5 0 0 0 - - -;
#X obj 1208 424 tgl 15 0 empty empty empty 0 -6 0 8 -262144 -1 -1 0
1;
#X obj 1067 409 tgl 15 0 empty empty empty 0 -6 0 8 -262144 -1 -1 0
1;
#X obj 1004 408 spigot;
#X obj 1158 420 spigot;
#X obj 80 367 spigot;
#X obj 205 384 spigot;
#N canvas 0 23 450 300 IRscale 0;
#X obj 132 31 inlet;
#X obj 68 176 outlet s1;
#X obj 135 177 outlet s2;
#X obj 205 178 outlet s3;
#X obj 98 82 expr if ($f1 <= 0.4 \, 1 \, 0) \;;
#X obj 125 103 expr if ($f1 >= 0.41 && $f1 <= 0.7 \, 1 \, 0) \;;
#X obj 156 127 expr if ($f1 >= 0.71 && $f1 <= 1 \, 1 \, 0) \;;
#X connect 0 0 4 0;
#X connect 0 0 5 0;
#X connect 0 0 6 0;
#X connect 4 0 1 0;
#X connect 5 0 2 0;
#X connect 6 0 3 0;
#X restore 326 287 pd IRscale;
#X obj 138 370 tgl 15 0 empty empty empty 0 -6 0 8 -262144 -1 -1 0
1;
#X obj 259 385 tgl 15 0 empty empty empty 0 -6 0 8 -262144 -1 -1 0
1;
#X obj 351 389 tgl 15 0 empty empty empty 0 -6 0 8 -262144 -1 -1 1
1;
#X obj 297 384 spigot;
#X obj 1326 420 tgl 15 0 empty empty empty 0 -6 0 8 -262144 -1 -1 1
1;
#X obj 1276 429 spigot;
#N canvas 669 35 450 300 IRscale2 0;
#X obj 132 31 inlet;
#X obj 68 176 outlet s1;
#X obj 135 177 outlet s2;
#X obj 205 178 outlet s3;
#X obj 98 82 expr if ($f1 <= 0.4 \, 1 \, 0) \;;
#X obj 125 103 expr if ($f1 >= 0.41 && $f1 <= 0.7 \, 1 \, 0) \;;
#X obj 156 127 expr if ($f1 >= 0.71 && $f1 <= 1 \, 1 \, 0) \;;
#X connect 0 0 4 0;
#X connect 0 0 5 0;
#X connect 0 0 6 0;
#X connect 4 0 1 0;
#X connect 5 0 2 0;
#X connect 6 0 3 0;
#X restore 1436 332 pd IRscale2;
#X obj 651 801 bp~ 3000 3;
#X text 1309 859 do not forget to plug the IR!;
#X text 1402 694 Infrared===============================;
#X text 548 725 Output===============================;
#X msg 890 521 1 250;
#X obj 12 13 tgl 15 0 empty empty empty 17 7 0 10 -262144 -1 -1 1 1
;
#X msg 12 33 \; pd dsp \$1;
#X text 208 362 "in-tone" gates============;
#X text 993 374 "in-tone" gates=========================;
#X obj 989 707 send~ Lverb;
#X obj 455 554 receive~ Lverb;
#X obj 1029 622 * 3000;
#X obj 456 578 *~ 0.2;
#X text 455 534 from the lead.;
#X msg 517 34 thresh 2.5 10;
#X obj 549 519 r IR;
#X obj 641 824 dac~ 1 2;
#X obj 1518 757 metro 20;
#X obj 503 579 clip 0 0.4;
#X obj 742 447 dac~ 3 4 5;
#X obj 745 384 vline~;
#X text 735 338 LEDz==================;
#X obj 993 615 *~ 4;
#X obj 548 557 / 2;
#X obj 925 762 oct2~;
#X obj 842 780 +~;
#X obj 809 632 line~;
#X obj 779 556 t b b;
#X obj 797 661 *~;
#X obj 738 535 del 200;
#X obj 718 577 delay 2010;
#X msg 801 601 0 8000;
#X text 719 492 octave ramp;
#X obj 1342 348 s oBang;
#X obj 737 509 r oBang;
#X obj 925 789 lop~ 1000;
#X obj 981 681 +~;
#X msg 741 613 0.4 1800;
#N canvas 354 60 696 153 LEDz 0;
#X obj 28 89 *~;
#X obj 28 25 inlet~ led1;
#X obj 140 92 *~;
#X obj 140 28 inlet~ led2;
#X obj 250 97 *~;
#X obj 250 33 inlet~ led3;
#X obj 28 110 outlet~ led1;
#X obj 140 113 outlet~ led2;
#X obj 250 118 outlet~ led3;
#X obj 383 25 inlet IR;
#X obj 353 55 expr if ($f1 <= 0.4 \, 0.7 \, 0.9) \;;
#X obj 380 76 expr if ($f1 >= 0.41 && $f1 <= 0.7 \, 0.7 \, 0.9) \;
;
#X obj 411 100 expr if ($f1 >= 0.71 && $f1 <= 1 \, 0.7 \, 0.9) \;;
#X connect 0 0 6 0;
#X connect 1 0 0 0;
#X connect 2 0 7 0;
#X connect 3 0 2 0;
#X connect 4 0 8 0;
#X connect 5 0 4 0;
#X connect 9 0 11 0;
#X connect 9 0 10 0;
#X connect 9 0 12 0;
#X connect 10 0 0 1;
#X connect 11 0 2 1;
#X connect 12 0 4 1;
#X restore 743 419 pd LEDz;
#X f 10;
#X obj 795 386 r IR;
#X msg 745 356 0.8 125 \, 0 1200 126;
#X obj 909 425 t b b b;
#X text 740 66 (onsets);
#N canvas 0 23 353 300 time 0;
#X obj 41 104 sel 1 2;
#X floatatom 47 186 5 0 0 0 - - -;
#X msg 40 154 1;
#X msg 73 154 0;
#X obj 73 131 t b b;
#X msg 93 103 0;
#X obj 44 78 +;
#X floatatom 72 80 5 0 0 0 - - -;
#X obj 47 238 timer;
#X msg 42 50 1;
#X obj 47 211 sel 1 0;
#X obj 39 18 inlet bang;
#X obj 45 268 outlet time;
#X connect 0 0 2 0;
#X connect 0 1 4 0;
#X connect 1 0 10 0;
#X connect 2 0 1 0;
#X connect 3 0 1 0;
#X connect 4 0 3 0;
#X connect 4 1 5 0;
#X connect 5 0 7 0;
#X connect 6 0 7 0;
#X connect 7 0 6 1;
#X connect 7 0 0 0;
#X connect 8 0 12 0;
#X connect 9 0 6 0;
#X connect 10 0 8 0;
#X connect 10 1 8 1;
#X connect 11 0 9 0;
#X restore 499 402 pd time;
#X floatatom 500 421 8 0 0 0 - - -;
#X obj 58 534 randadd~, f 20;
#X msg 249 526 200;
#X msg 288 528 8000;
#N canvas 875 310 288 379 mainCounter2 0;
#X obj 106 114 + 1, f 14;
#X obj 106 137 t b f;
#X floatatom 125 169 5 0 0 0 - - -;
#X msg 73 105 0;
#X msg 105 91 1;
#X text 63 90 reset;
#X text 96 75 increment;
#X obj 70 70 bng 15 250 50 0 empty empty empty 17 7 0 10 -262144 -1
-1;
#X obj 161 150 sel 1;
#X obj 69 217 select 0;
#X obj 27 48 loadbang;
#X obj 68 251 del 10;
#X obj 48 328 outlet;
#X obj 124 292 bng 15 250 50 0 empty empty empty 17 7 0 10 -262144
-1 -1;
#X obj 160 90 value mainCountt;
#X obj 104 19 inlet count2;
#X obj 36 145 select 4;
#X obj 130 208 select 7;
#X connect 0 0 1 0;
#X connect 1 0 14 0;
#X connect 1 1 2 0;
#X connect 1 1 9 0;
#X connect 1 1 14 0;
#X connect 1 1 17 0;
#X connect 2 0 8 0;
#X connect 2 0 16 0;
#X connect 3 0 1 0;
#X connect 4 0 0 0;
#X connect 7 0 3 0;
#X connect 9 0 11 0;
#X connect 10 0 7 0;
#X connect 11 0 12 0;
#X connect 11 0 13 0;
#X connect 14 0 0 1;
#X connect 15 0 4 0;
#X connect 16 0 7 0;
#X connect 17 0 7 0;
#X restore 71 203 pd mainCounter2;
#X obj 831 812 *~ 0.1;
#X msg 211 514 2000;
#X obj 70 225 t b b b;
#X msg 1411 815 0.1;
#X obj 144 514 * 1.5;
#X obj 429 704 +~;
#X obj 432 656 *~ 0.15;
#X obj 924 737 *~ 0.2;
#X obj 58 568 *~ 0.2;
#X obj 433 613 +~;
#X obj 1446 805 > 0.01;
#X obj 667 773 *~ 1;
#N canvas 376 178 318 511 C_lead 0;
#X text 175 271 Pitches values;
#X msg 77 314 40;
#X obj 67 29 inlet;
#X obj 115 166 change;
#X msg 56 136 set \$1;
#X obj 67 109 t f f;
#X obj 129 191 t b f;
#X text 122 116 it prevents hitting on the same notes respectively
, f 26;
#X obj 131 399 outlet pitch;
#X obj 33 400 outlet hit;
#X msg 39 315 36;
#X msg 109 313 43;
#X obj 62 271 sel 0 1 2;
#X obj 64 69 random 3;
#X text 182 288 C maj;
#X connect 1 0 8 0;
#X connect 2 0 13 0;
#X connect 3 0 6 0;
#X connect 4 0 3 0;
#X connect 5 0 4 0;
#X connect 5 1 3 0;
#X connect 6 0 9 0;
#X connect 6 1 12 0;
#X connect 10 0 8 0;
#X connect 11 0 8 0;
#X connect 12 0 10 0;
#X connect 12 1 1 0;
#X connect 12 2 11 0;
#X connect 13 0 5 0;
#X restore 1005 428 pd C_lead;
#N canvas 476 370 318 313 C_drone 0;
#X obj 67 29 inlet;
#X obj 70 234 outlet;
#X text 175 108 Pitches values;
#X msg 77 151 40;
#X obj 63 71 random 6;
#X msg 39 152 36;
#X msg 109 150 43;
#X obj 62 108 sel 0 1 2;
#X text 182 125 C maj;
#X connect 0 0 4 0;
#X connect 3 0 1 0;
#X connect 4 0 7 0;
#X connect 5 0 1 0;
#X connect 6 0 1 0;
#X connect 7 0 5 0;
#X connect 7 1 3 0;
#X connect 7 2 6 0;
#X restore 81 392 pd C_drone;
#N canvas 549 196 345 449 C+_lead 0;
#X obj 67 29 inlet;
#X text 193 276 Pitches values;
#X obj 115 166 change;
#X msg 56 136 set \$1;
#X obj 67 109 t f f;
#X obj 129 191 t b f;
#X text 122 116 it prevents hitting on the same notes respectively
, f 26;
#X obj 123 403 outlet pitch;
#X obj 42 400 outlet hit;
#X obj 64 69 random 3;
#X obj 80 276 sel 0 1 2;
#X msg 57 320 36;
#X msg 95 319 40;
#X msg 127 318 44;
#X text 200 293 C+;
#X connect 0 0 9 0;
#X connect 2 0 5 0;
#X connect 3 0 2 0;
#X connect 4 0 3 0;
#X connect 4 1 2 0;
#X connect 5 0 8 0;
#X connect 5 1 10 0;
#X connect 9 0 4 0;
#X connect 10 0 11 0;
#X connect 10 1 12 0;
#X connect 10 2 13 0;
#X connect 11 0 7 0;
#X connect 12 0 7 0;
#X connect 13 0 7 0;
#X restore 1146 442 pd C+_lead;
#N canvas 347 121 450 300 C+_drone 0;
#X obj 67 29 inlet;
#X obj 70 234 outlet;
#X text 175 108 Pitches values;
#X obj 64 69 random 3;
#X msg 39 152 45;
#X msg 77 151 47;
#X msg 109 150 49;
#X text 182 125 C+;
#X obj 62 108 sel 0 1 2;
#X connect 0 0 3 0;
#X connect 3 0 8 0;
#X connect 4 0 1 0;
#X connect 5 0 1 0;
#X connect 6 0 1 0;
#X connect 8 0 4 0;
#X connect 8 1 5 0;
#X connect 8 2 6 0;
#X restore 202 410 pd C+_drone;
#N canvas 939 188 345 449 E_lead 0;
#X obj 67 29 inlet;
#X text 193 276 Pitches values;
#X obj 115 166 change;
#X msg 56 136 set \$1;
#X obj 67 109 t f f;
#X obj 129 191 t b f;
#X text 122 116 it prevents hitting on the same notes respectively
, f 26;
#X obj 123 403 outlet pitch;
#X obj 42 400 outlet hit;
#X msg 57 320 35;
#X msg 95 319 40;
#X msg 127 318 44;
#X text 200 293 E maj;
#X obj 64 69 random 3;
#X obj 80 276 sel 0 1 2;
#X connect 0 0 13 0;
#X connect 2 0 5 0;
#X connect 3 0 2 0;
#X connect 4 0 3 0;
#X connect 4 1 2 0;
#X connect 5 0 8 0;
#X connect 5 1 14 0;
#X connect 9 0 7 0;
#X connect 10 0 7 0;
#X connect 11 0 7 0;
#X connect 13 0 4 0;
#X connect 14 0 9 0;
#X connect 14 1 10 0;
#X connect 14 2 11 0;
#X restore 1264 451 pd E_lead;
#N canvas 347 121 344 285 E_drone 0;
#X obj 67 29 inlet;
#X obj 70 234 outlet;
#X text 175 108 Pitches values;
#X obj 64 69 random 3;
#X text 182 125 E peentatonic;
#X msg 39 152 35;
#X msg 77 151 40;
#X msg 109 150 44;
#X obj 62 108 sel 0 1 2;
#X connect 0 0 3 0;
#X connect 3 0 8 0;
#X connect 5 0 1 0;
#X connect 6 0 1 0;
#X connect 7 0 1 0;
#X connect 8 0 5 0;
#X connect 8 1 6 0;
#X connect 8 2 7 0;
#X restore 294 410 pd E_drone;
#X obj 1081 64 bng 15 250 50 0 empty empty empty 17 7 0 10 -262144
-1 -1;
#X obj 1091 122 int;
#X msg 1124 75 0;
#X obj 1161 124 +;
#X floatatom 1016 150 5 0 0 0 - - -;
#X floatatom 691 252 5 0 0 0 - - -;
#X obj 615 213 bng 15 250 50 0 empty empty empty 17 7 0 10 -262144
-1 -1;
#X obj 645 257 change;
#X obj 1126 45 loadbang;
#X msg 1181 85 1;
#X obj 1092 183 sel 1;
#X obj 1093 155 expr if ($i1 % 4 == 0 \, 1 \, 0) \;;
#X msg 11 644 10;
#X msg 122 658 0.1;
#X msg 22 829 0.2;
#X msg 204 817 0.94;
#X obj 678 182 loadbang;
#X obj 1426 445 tgl 15 0 empty empty empty 0 -6 0 8 -262144 -1 -1 1
1;
#X obj 1376 441 spigot;
#N canvas 939 188 345 449 G#+_lead 0;
#X obj 67 29 inlet;
#X text 193 276 Pitches values;
#X obj 115 166 change;
#X msg 56 136 set \$1;
#X obj 67 109 t f f;
#X obj 129 191 t b f;
#X text 122 116 it prevents hitting on the same notes respectively
, f 26;
#X obj 123 403 outlet pitch;
#X obj 42 400 outlet hit;
#X obj 64 69 random 3;
#X obj 80 276 sel 0 1 2;
#X text 200 293 G# aug;
#X msg 57 320 44;
#X msg 95 319 48;
#X msg 127 318 52;
#X connect 0 0 9 0;
#X connect 2 0 5 0;
#X connect 3 0 2 0;
#X connect 4 0 3 0;
#X connect 4 1 2 0;
#X connect 5 0 8 0;
#X connect 5 1 10 0;
#X connect 9 0 4 0;
#X connect 10 0 12 0;
#X connect 10 1 13 0;
#X connect 10 2 14 0;
#X connect 12 0 7 0;
#X connect 13 0 7 0;
#X connect 14 0 7 0;
#X restore 1364 463 pd G#+_lead;
#X obj 445 382 tgl 15 0 empty empty empty 0 -6 0 8 -262144 -1 -1 1
1;
#X obj 391 377 spigot;
#N canvas 347 121 344 285 G#+_drone 0;
#X obj 67 29 inlet;
#X obj 70 234 outlet;
#X text 175 108 Pitches values;
#X obj 64 69 random 3;
#X obj 62 108 sel 0 1 2;
#X msg 39 152 80;
#X msg 77 151 84;
#X msg 109 150 88;
#X text 182 125 E peentatonic when set higher octaves as default there
can be 'funny' beating sounds (in a good way);
#X connect 0 0 3 0;
#X connect 3 0 4 0;
#X connect 4 0 5 0;
#X connect 4 1 6 0;
#X connect 4 2 7 0;
#X connect 5 0 1 0;
#X connect 6 0 1 0;
#X connect 7 0 1 0;
#X restore 388 403 pd G#+_drone;
#X obj 597 309 select 0 1 2 3;
#X obj 111 275 t b b b b b b b;
#X obj 1098 277 t b b b b b b;
#X obj 655 215 random 4;
#X obj 1203 633 tgl 15 0 empty empty empty 0 -6 0 8 -262144 -1 -1 0
1;
#X obj 1153 642 spigot;
#N canvas 939 188 345 449 E-_lead 0;
#X obj 67 29 inlet;
#X text 193 276 Pitches values;
#X obj 115 166 change;
#X msg 56 136 set \$1;
#X obj 67 109 t f f;
#X obj 129 191 t b f;
#X text 122 116 it prevents hitting on the same notes respectively
, f 26;
#X obj 123 403 outlet pitch;
#X obj 42 400 outlet hit;
#X msg 57 320 35;
#X msg 95 319 40;
#X obj 64 69 random 3;
#X obj 80 276 sel 0 1 2;
#X msg 127 318 43;
#X text 200 293 E min;
#X connect 0 0 11 0;
#X connect 2 0 5 0;
#X connect 3 0 2 0;
#X connect 4 0 3 0;
#X connect 4 1 2 0;
#X connect 5 0 8 0;
#X connect 5 1 12 0;
#X connect 9 0 7 0;
#X connect 10 0 7 0;
#X connect 11 0 4 0;
#X connect 12 0 9 0;
#X connect 12 1 10 0;
#X connect 12 2 13 0;
#X connect 13 0 7 0;
#X restore 1141 664 pd E-_lead;
#X obj 1303 640 tgl 15 0 empty empty empty 0 -6 0 8 -262144 -1 -1 0
1;
#X obj 1253 649 spigot;
#N canvas 939 188 345 449 Cma7_lead 0;
#X obj 67 29 inlet;
#X text 193 276 Pitches values;
#X obj 115 166 change;
#X msg 56 136 set \$1;
#X obj 67 109 t f f;
#X obj 129 191 t b f;
#X text 122 116 it prevents hitting on the same notes respectively
, f 26;
#X obj 123 403 outlet pitch;
#X obj 42 400 outlet hit;
#X msg 95 319 40;
#X msg 57 320 36;
#X msg 181 324 47;
#X text 200 293 C Maj7;
#X obj 80 276 sel 0 1 2 3;
#X obj 64 69 random 4;
#X msg 141 321 44;
#X connect 0 0 14 0;
#X connect 2 0 5 0;
#X connect 3 0 2 0;
#X connect 4 0 3 0;
#X connect 4 1 2 0;
#X connect 5 0 8 0;
#X connect 5 1 13 0;
#X connect 9 0 7 0;
#X connect 10 0 7 0;
#X connect 11 0 7 0;
#X connect 13 0 10 0;
#X connect 13 1 9 0;
#X connect 13 2 15 0;
#X connect 13 3 11 0;
#X connect 14 0 4 0;
#X connect 15 0 7 0;
#X restore 1241 671 pd Cma7_lead;
#X obj 1177 704 tgl 15 0 empty empty empty 0 -6 0 8 -262144 -1 -1 0
1;
#X obj 1127 713 spigot;
#N canvas 939 188 345 449 AbminMaj/C_lead 0;
#X obj 67 29 inlet;
#X text 193 276 Pitches values;
#X obj 115 166 change;
#X msg 56 136 set \$1;
#X obj 67 109 t f f;
#X obj 129 191 t b f;
#X text 122 116 it prevents hitting on the same notes respectively
, f 26;
#X obj 123 403 outlet pitch;
#X obj 42 400 outlet hit;
#X obj 64 69 random 3;
#X obj 80 276 sel 0 1 2;
#X text 200 293 Ab min-Maj / C;
#X msg 57 320 36;
#X msg 95 319 44;
#X msg 127 318 47;
#X connect 0 0 9 0;
#X connect 2 0 5 0;
#X connect 3 0 2 0;
#X connect 4 0 3 0;
#X connect 4 1 2 0;
#X connect 5 0 8 0;
#X connect 5 1 10 0;
#X connect 9 0 4 0;
#X connect 10 0 12 0;
#X connect 10 1 13 0;
#X connect 10 2 14 0;
#X connect 12 0 7 0;
#X connect 13 0 7 0;
#X connect 14 0 7 0;
#X restore 1115 735 pd AbminMaj/C_lead;
#X obj 1321 709 tgl 15 0 empty empty empty 0 -6 0 8 -262144 -1 -1 0
1;
#X obj 1271 718 spigot;
#N canvas 939 188 345 449 E_lead 0;
#X obj 67 29 inlet;
#X text 193 276 Pitches values;
#X obj 115 166 change;
#X msg 56 136 set \$1;
#X obj 67 109 t f f;
#X obj 129 191 t b f;
#X text 122 116 it prevents hitting on the same notes respectively
, f 26;
#X obj 123 403 outlet pitch;
#X obj 42 400 outlet hit;
#X obj 64 69 random 3;
#X obj 80 276 sel 0 1 2;
#X msg 57 320 40;
#X msg 95 319 44;
#X msg 127 318 47;
#X text 200 293 E (maj);
#X connect 0 0 9 0;
#X connect 2 0 5 0;
#X connect 3 0 2 0;
#X connect 4 0 3 0;
#X connect 4 1 2 0;
#X connect 5 0 8 0;
#X connect 5 1 10 0;
#X connect 9 0 4 0;
#X connect 10 0 11 0;
#X connect 10 1 12 0;
#X connect 10 2 13 0;
#X connect 11 0 7 0;
#X connect 12 0 7 0;
#X connect 13 0 7 0;
#X restore 1259 740 pd E_lead;
#X obj 466 41 *~ 1;
#X obj 272 56 lop~ 50;
#X obj 274 92 snapshot~;
#X obj 333 27 loadbang;
#X msg 334 50 1;
#X obj 334 70 metro 20;
#X obj 272 128 print;
#X obj 414 171 spigot;
#X obj 408 147 tgl 15 0 empty empty empty 17 7 0 10 -262144 -1 -1 1
1;
#X obj 409 127 expr if ($f1 > 0.001 \, 1 \, 0);
#X text 404 106 just to cut some of the constancy of firefly;
#X obj 1404 551 del 1;
#X obj 1426 507 random 1000;
#X text 1449 530 for some rhythmic chaos;
#X obj 749 274 t 0 1;
#X obj 854 299 tgl 15 0 empty empty empty 0 -6 0 8 -262144 -1 -1 0
1;
#X obj 782 309 del 50;
#X obj 200 764 loadbang;
#N canvas 16 78 1644 934 chord_prog 1;
#N canvas 586 178 318 511 C_lead 0;
#X text 175 271 Pitches values;
#X msg 77 314 40;
#X obj 79 43 inlet;
#X obj 131 399 outlet pitch;
#X obj 33 400 outlet hit;
#X msg 39 315 36;
#X msg 109 313 43;
#X obj 62 271 sel 0 1 2;
#X text 182 288 C maj;
#X obj 87 114 f;
#X obj 150 114 + 1;
#X obj 87 144 mod 3;
#X obj 129 191 t b i;
#X connect 1 0 3 0;
#X connect 2 0 9 0;
#X connect 5 0 3 0;
#X connect 6 0 3 0;
#X connect 7 0 5 0;
#X connect 7 1 1 0;
#X connect 7 2 6 0;
#X connect 9 0 10 0;
#X connect 9 0 11 0;
#X connect 10 0 9 1;
#X connect 11 0 12 0;
#X connect 12 0 4 0;
#X connect 12 1 7 0;
#X restore 10 599 pd C_lead;
#N canvas 549 196 345 449 C+_lead 0;
#X obj 67 29 inlet;
#X text 193 276 Pitches values;
#X obj 129 191 t b f;
#X obj 123 403 outlet pitch;
#X obj 42 400 outlet hit;
#X obj 80 276 sel 0 1 2;
#X msg 57 320 36;
#X msg 95 319 40;
#X msg 127 318 44;
#X text 200 293 C+;
#X obj 87 114 f;
#X obj 150 114 + 1;
#X obj 87 144 mod 3;
#X connect 0 0 10 0;
#X connect 2 0 4 0;
#X connect 2 1 5 0;
#X connect 5 0 6 0;
#X connect 5 1 7 0;
#X connect 5 2 8 0;
#X connect 6 0 3 0;
#X connect 7 0 3 0;
#X connect 8 0 3 0;
#X connect 10 0 11 0;
#X connect 10 0 12 0;
#X connect 11 0 10 1;
#X connect 12 0 2 0;
#X restore 102 601 pd C+_lead;
#N canvas 939 188 345 449 Cma7_lead 0;
#X obj 67 29 inlet;
#X text 193 276 Pitches values;
#X obj 129 191 t b f;
#X obj 123 403 outlet pitch;
#X obj 42 400 outlet hit;
#X msg 95 319 40;
#X msg 57 320 36;
#X text 200 293 C Maj7;
#X obj 80 276 sel 0 1 2;
#X msg 141 321 47;
#X obj 87 114 f;
#X obj 150 114 + 1;
#X obj 87 144 mod 3;
#X connect 0 0 10 0;
#X connect 2 0 4 0;
#X connect 2 1 8 0;
#X connect 5 0 3 0;
#X connect 6 0 3 0;
#X connect 8 0 6 0;
#X connect 8 1 5 0;
#X connect 8 2 9 0;
#X connect 9 0 3 0;
#X connect 10 0 11 0;
#X connect 10 0 12 0;
#X connect 11 0 10 1;
#X connect 12 0 2 0;
#X restore 555 604 pd Cma7_lead;
#N canvas 939 188 345 449 AbminMaj/C_lead 0;
#X obj 67 29 inlet;
#X text 193 276 Pitches values;
#X obj 129 191 t b f;
#X obj 123 403 outlet pitch;
#X obj 42 400 outlet hit;
#X obj 80 276 sel 0 1 2;
#X text 200 293 Ab min-Maj / C;
#X msg 57 320 36;
#X msg 95 319 44;
#X msg 127 318 47;
#X obj 87 114 f;
#X obj 150 114 + 1;
#X obj 87 144 mod 3;
#X connect 0 0 10 0;
#X connect 2 0 4 0;
#X connect 2 1 5 0;
#X connect 5 0 7 0;
#X connect 5 1 8 0;
#X connect 5 2 9 0;
#X connect 7 0 3 0;
#X connect 8 0 3 0;
#X connect 9 0 3 0;
#X connect 10 0 11 0;
#X connect 10 0 12 0;
#X connect 11 0 10 1;
#X connect 12 0 2 0;
#X restore 778 607 pd AbminMaj/C_lead;
#N canvas 939 188 345 449 E_lead 0;
#X obj 67 29 inlet;
#X text 193 276 Pitches values;
#X obj 129 191 t b f;
#X obj 123 403 outlet pitch;
#X obj 42 400 outlet hit;
#X obj 80 276 sel 0 1 2;
#X msg 57 320 40;
#X msg 95 319 44;
#X msg 127 318 47;
#X text 200 293 E (maj);
#X obj 87 114 f;
#X obj 150 114 + 1;
#X obj 87 144 mod 3;
#X connect 0 0 10 0;
#X connect 2 0 4 0;
#X connect 2 1 5 0;
#X connect 5 0 6 0;
#X connect 5 1 7 0;
#X connect 5 2 8 0;
#X connect 6 0 3 0;
#X connect 7 0 3 0;
#X connect 8 0 3 0;
#X connect 10 0 11 0;
#X connect 10 0 12 0;
#X connect 11 0 10 1;
#X connect 12 0 2 0;
#X restore 919 607 pd E_lead;
#N canvas 939 188 345 449 E/B_lead 0;
#X obj 67 29 inlet;
#X text 193 276 Pitches values;
#X obj 129 191 t b f;
#X obj 123 403 outlet pitch;
#X obj 42 400 outlet hit;
#X msg 57 320 35;
#X msg 95 319 40;
#X msg 127 318 44;
#X text 200 293 E maj;
#X obj 80 276 sel 0 1 2;
#X obj 87 114 f;
#X obj 150 114 + 1;
#X obj 87 144 mod 3;
#X connect 0 0 10 0;
#X connect 2 0 4 0;
#X connect 2 1 9 0;
#X connect 5 0 3 0;
#X connect 6 0 3 0;
#X connect 7 0 3 0;
#X connect 9 0 5 0;
#X connect 9 1 6 0;
#X connect 9 2 7 0;
#X connect 10 0 11 0;
#X connect 10 0 12 0;
#X connect 11 0 10 1;
#X connect 12 0 2 0;
#X restore 208 603 pd E/B_lead;
#N canvas 939 188 345 449 G#+/B_lead 0;
#X obj 67 29 inlet;
#X text 193 276 Pitches values;
#X obj 129 191 t b f;
#X obj 123 403 outlet pitch;
#X obj 42 400 outlet hit;
#X obj 80 276 sel 0 1 2;
#X msg 57 320 35;
#X msg 95 319 40;
#X msg 127 318 44;
#X text 200 293 G# aug/B;
#X obj 87 114 f;
#X obj 150 114 + 1;
#X obj 87 144 mod 3;
#X connect 0 0 10 0;
#X connect 2 0 4 0;
#X connect 2 1 5 0;
#X connect 5 0 6 0;
#X connect 5 1 7 0;
#X connect 5 2 8 0;
#X connect 6 0 3 0;
#X connect 7 0 3 0;
#X connect 8 0 3 0;
#X connect 10 0 11 0;
#X connect 10 0 12 0;
#X connect 11 0 10 1;
#X connect 12 0 2 0;
#X restore 322 603 pd G#+/B_lead;
#N canvas 939 188 345 449 E-/B_lead 0;
#X obj 67 29 inlet;
#X text 193 276 Pitches values;
#X obj 129 191 t b f;
#X obj 123 403 outlet pitch;
#X obj 42 400 outlet hit;
#X msg 57 320 35;
#X msg 95 319 40;
#X obj 80 276 sel 0 1 2;
#X msg 127 318 43;
#X text 200 293 E min/B;
#X obj 87 114 f;
#X obj 150 114 + 1;
#X obj 87 144 mod 3;
#X connect 0 0 10 0;
#X connect 2 0 4 0;
#X connect 2 1 7 0;
#X connect 5 0 3 0;
#X connect 6 0 3 0;
#X connect 7 0 5 0;
#X connect 7 1 6 0;
#X connect 7 2 8 0;
#X connect 8 0 3 0;
#X connect 10 0 11 0;
#X connect 10 0 12 0;
#X connect 11 0 10 1;
#X connect 12 0 2 0;
#X restore 442 604 pd E-/B_lead;
#N canvas 939 188 345 449 E-_lead 0;
#X obj 67 29 inlet;
#X text 193 276 Pitches values;
#X obj 129 191 t b f;
#X obj 123 403 outlet pitch;
#X obj 42 400 outlet hit;
#X obj 80 276 sel 0 1 2;
#X msg 57 320 40;
#X msg 127 318 47;
#X msg 95 319 43;
#X text 200 293 E min;
#X obj 87 114 f;
#X obj 150 114 + 1;
#X obj 87 144 mod 3;
#X connect 0 0 10 0;
#X connect 2 0 4 0;
#X connect 2 1 5 0;
#X connect 5 0 6 0;
#X connect 5 1 8 0;
#X connect 5 2 7 0;
#X connect 6 0 3 0;
#X connect 7 0 3 0;
#X connect 8 0 3 0;
#X connect 10 0 11 0;
#X connect 10 0 12 0;
#X connect 11 0 10 1;
#X connect 12 0 2 0;
#X restore 1008 609 pd E-_lead;
#N canvas 939 188 345 449 C/E_lead 0;
#X obj 67 29 inlet;
#X text 193 276 Pitches values;
#X obj 129 191 t b f;
#X obj 123 403 outlet pitch;
#X obj 42 400 outlet hit;
#X obj 80 276 sel 0 1 2;
#X msg 57 320 40;
#X msg 95 319 43;
#X msg 127 318 48;
#X text 200 293 C/E;
#X obj 87 114 f;
#X obj 150 114 + 1;
#X obj 87 144 mod 3;
#X connect 0 0 10 0;
#X connect 2 0 4 0;
#X connect 2 1 5 0;
#X connect 5 0 6 0;
#X connect 5 1 7 0;
#X connect 5 2 8 0;
#X connect 6 0 3 0;
#X connect 7 0 3 0;
#X connect 8 0 3 0;
#X connect 10 0 11 0;
#X connect 10 0 12 0;
#X connect 11 0 10 1;
#X connect 12 0 2 0;
#X restore 1104 609 pd C/E_lead;
#N canvas 939 188 345 449 C+/E_lead 0;
#X obj 67 29 inlet;
#X text 193 276 Pitches values;
#X obj 129 191 t b f;
#X obj 123 403 outlet pitch;
#X obj 42 400 outlet hit;
#X obj 80 276 sel 0 1 2;
#X msg 57 320 40;
#X msg 127 318 48;
#X msg 95 319 44;
#X text 200 293 C+/E;
#X obj 87 114 f;
#X obj 150 114 + 1;
#X obj 87 144 mod 3;
#X connect 0 0 10 0;
#X connect 2 0 4 0;
#X connect 2 1 5 0;
#X connect 5 0 6 0;
#X connect 5 1 8 0;
#X connect 5 2 7 0;
#X connect 6 0 3 0;
#X connect 7 0 3 0;
#X connect 8 0 3 0;
#X connect 10 0 11 0;
#X connect 10 0 12 0;
#X connect 11 0 10 1;
#X connect 12 0 2 0;
#X restore 1210 610 pd C+/E_lead;
#N canvas 939 188 345 449 Cma7/E_lead 0;
#X obj 67 29 inlet;
#X text 193 276 Pitches values;
#X obj 129 191 t b f;
#X obj 123 403 outlet pitch;
#X obj 42 400 outlet hit;
#X obj 80 276 sel 0 1 2;
#X msg 57 320 40;
#X msg 127 318 48;
#X msg 95 319 47;
#X text 200 293 Cma7/E;
#X obj 87 114 f;
#X obj 150 114 + 1;
#X obj 87 144 mod 3;
#X connect 0 0 10 0;
#X connect 2 0 4 0;
#X connect 2 1 5 0;
#X connect 5 0 6 0;
#X connect 5 1 8 0;
#X connect 5 2 7 0;
#X connect 6 0 3 0;
#X connect 7 0 3 0;
#X connect 8 0 3 0;
#X connect 10 0 11 0;
#X connect 10 0 12 0;
#X connect 11 0 10 1;
#X connect 12 0 2 0;
#X restore 1324 607 pd Cma7/E_lead;
#N canvas 939 188 345 449 G6_lead 0;
#X obj 67 29 inlet;
#X text 193 276 Pitches values;
#X obj 129 191 t b f;
#X obj 123 403 outlet pitch;
#X obj 42 400 outlet hit;
#X obj 80 276 sel 0 1 2;
#X msg 95 319 47;
#X text 200 293 G6;
#X msg 57 320 43;
#X msg 127 318 52;
#X obj 87 114 f;
#X obj 150 114 + 1;
#X obj 87 144 mod 3;
#X connect 0 0 10 0;
#X connect 2 0 4 0;
#X connect 2 1 5 0;
#X connect 5 0 8 0;
#X connect 5 1 6 0;
#X connect 5 2 9 0;
#X connect 6 0 3 0;
#X connect 8 0 3 0;
#X connect 9 0 3 0;
#X connect 10 0 11 0;
#X connect 10 0 12 0;
#X connect 11 0 10 1;
#X connect 12 0 2 0;
#X restore 1451 609 pd G6_lead;
#N canvas 939 188 345 449 G#-(b13)_lead 0;
#X obj 67 29 inlet;
#X text 193 276 Pitches values;
#X obj 129 191 t b f;
#X obj 123 403 outlet pitch;
#X obj 42 400 outlet hit;
#X obj 80 276 sel 0 1 2;
#X msg 95 319 47;
#X msg 127 318 52;
#X msg 57 320 44;
#X text 200 293 G#-(b13);
#X obj 87 114 f;
#X obj 150 114 + 1;
#X obj 87 144 mod 3;
#X connect 0 0 10 0;
#X connect 2 0 4 0;
#X connect 2 1 5 0;
#X connect 5 0 8 0;
#X connect 5 1 6 0;
#X connect 5 2 7 0;
#X connect 6 0 3 0;
#X connect 7 0 3 0;
#X connect 8 0 3 0;
#X connect 10 0 11 0;
#X connect 10 0 12 0;
#X connect 11 0 10 1;
#X connect 12 0 2 0;
#X restore 1549 609 pd G#-(b13)_lead;
#N canvas 939 188 345 449 C+/G#_lead 0;
#X obj 67 29 inlet;
#X text 193 276 Pitches values;
#X obj 129 191 t b f;
#X obj 123 403 outlet pitch;
#X obj 42 400 outlet hit;
#X obj 80 276 sel 0 1 2;
#X msg 127 318 52;
#X msg 57 320 44;
#X msg 95 319 48;
#X text 200 293 C+/G#;
#X obj 87 114 f;
#X obj 150 114 + 1;
#X obj 87 144 mod 3;
#X connect 0 0 10 0;
#X connect 2 0 4 0;
#X connect 2 1 5 0;
#X connect 5 0 7 0;
#X connect 5 1 8 0;
#X connect 5 2 6 0;
#X connect 6 0 3 0;
#X connect 7 0 3 0;
#X connect 8 0 3 0;
#X connect 10 0 11 0;
#X connect 10 0 12 0;
#X connect 11 0 10 1;
#X connect 12 0 2 0;
#X restore 1675 608 pd C+/G#_lead;
#N canvas 939 188 345 449 G13/C_lead 0;
#X obj 67 29 inlet;
#X text 193 276 Pitches values;
#X obj 129 191 t b f;
#X obj 123 403 outlet pitch;
#X obj 42 400 outlet hit;
#X msg 57 320 36;
#X obj 80 276 sel 0 1 2;
#X msg 141 321 47;
#X msg 95 319 43;
#X text 200 293 G13/C;
#X obj 87 114 f;
#X obj 150 114 + 1;
#X obj 87 144 mod 3;
#X connect 0 0 10 0;
#X connect 2 0 4 0;
#X connect 2 1 6 0;
#X connect 5 0 3 0;
#X connect 6 0 5 0;
#X connect 6 1 8 0;
#X connect 6 2 7 0;
#X connect 7 0 3 0;
#X connect 8 0 3 0;
#X connect 10 0 11 0;
#X connect 10 0 12 0;
#X connect 11 0 10 1;
#X connect 12 0 2 0;
#X restore 658 604 pd G13/C_lead;
#X obj 795 862 outlet hit;
#X obj 804 812 del 20;
#X obj 596 36 inlet mainBang;
#X obj 10 563 spigot;
#X obj 102 564 spigot;
#X obj 210 563 spigot;
#X obj 321 563 spigot;
#X obj 438 564 spigot;
#X obj 559 565 spigot;
#X obj 667 564 spigot;
#X obj 778 564 spigot;
#X obj 926 569 spigot;
#X obj 1018 570 spigot;
#X obj 1103 571 spigot;
#X obj 1210 569 spigot;
#X obj 1328 564 spigot;
#X obj 1448 563 spigot;
#X obj 1548 559 spigot;
#X obj 1674 556 spigot;
#X obj 149 130 f;
#X obj 186 129 + 1;
#X obj 149 156 mod 3;
#X obj 148 182 hradio 15 1 0 3 empty empty empty 0 -8 0 10 -262144
-1 -1 0;
#X obj 18 238 f;
#X obj 76 247 + 1;
#X obj 18 268 mod 16;
#X obj 16 300 hradio 15 1 0 16 empty empty empty 0 -8 0 10 -262144
-1 -1 7;
#X obj 19 205 spigot;
#N canvas 0 23 1277 429 seq-routine 0;
#X obj 306 84 sel 0 1 2 3 4 5 6 7 8 9 10 11 12 13 14 15, f 75;
#X msg 15 276 1;
#X msg 49 276 0;
#X msg 89 278 1;
#X msg 123 278 0;
#X msg 157 278 1;
#X msg 191 278 0;
#X msg 231 280 1;
#X msg 265 280 0;
#X msg 306 281 1;
#X msg 340 281 0;
#X msg 380 283 1;
#X msg 414 283 0;
#X msg 448 283 1;
#X msg 482 283 0;
#X msg 522 285 1;
#X msg 556 285 0;
#X msg 598 284 1;
#X msg 632 284 0;
#X msg 672 286 1;
#X msg 706 286 0;
#X msg 740 286 1;
#X msg 774 286 0;
#X msg 814 288 1;
#X msg 848 288 0;
#X msg 889 289 1;
#X msg 923 289 0;
#X msg 963 291 1;
#X msg 997 291 0;
#X msg 1031 291 1;
#X msg 1065 291 0;
#X msg 1105 293 1;
#X msg 1139 293 0;
#X obj 306 13 inlet seq;
#X obj 10 329 outlet s1;
#X obj 82 330 outlet s2;
#X obj 153 331 outlet s3;
#X obj 225 332 outlet s4;
#X obj 296 334 outlet s5;
#X obj 368 335 outlet s6;
#X obj 439 336 outlet s7;
#X obj 511 337 outlet s8;
#X obj 586 337 outlet s9;
#X obj 658 338 outlet s10;
#X obj 735 339 outlet s11;
#X obj 821 340 outlet s12;
#X obj 898 342 outlet s13;
#X obj 979 343 outlet s14;
#X obj 1061 343 outlet s15;
#X obj 1143 342 outlet s16;
#X obj 1133 37 inlet reset;
#X connect 0 0 1 0;
#X connect 0 0 32 0;
#X connect 0 1 2 0;
#X connect 0 1 3 0;
#X connect 0 2 4 0;
#X connect 0 2 5 0;
#X connect 0 3 6 0;
#X connect 0 3 7 0;
#X connect 0 4 8 0;
#X connect 0 4 9 0;
#X connect 0 5 10 0;
#X connect 0 5 11 0;
#X connect 0 6 12 0;
#X connect 0 6 13 0;
#X connect 0 7 14 0;
#X connect 0 7 15 0;
#X connect 0 8 16 0;
#X connect 0 8 17 0;
#X connect 0 9 18 0;
#X connect 0 9 19 0;
#X connect 0 10 20 0;
#X connect 0 10 21 0;
#X connect 0 11 22 0;
#X connect 0 11 23 0;
#X connect 0 12 24 0;
#X connect 0 12 25 0;
#X connect 0 13 26 0;
#X connect 0 13 27 0;
#X connect 0 14 28 0;
#X connect 0 14 29 0;
#X connect 0 15 30 0;
#X connect 0 15 31 0;
#X connect 1 0 34 0;
#X connect 2 0 34 0;
#X connect 3 0 35 0;
#X connect 4 0 35 0;
#X connect 5 0 36 0;
#X connect 6 0 36 0;
#X connect 7 0 37 0;
#X connect 8 0 37 0;
#X connect 9 0 38 0;
#X connect 10 0 38 0;
#X connect 11 0 39 0;
#X connect 12 0 39 0;
#X connect 13 0 40 0;
#X connect 14 0 40 0;
#X connect 15 0 41 0;
#X connect 16 0 41 0;
#X connect 17 0 42 0;
#X connect 18 0 42 0;
#X connect 19 0 43 0;
#X connect 20 0 43 0;
#X connect 21 0 44 0;
#X connect 22 0 44 0;
#X connect 23 0 45 0;
#X connect 24 0 45 0;
#X connect 25 0 46 0;
#X connect 26 0 46 0;
#X connect 27 0 47 0;
#X connect 28 0 47 0;
#X connect 29 0 48 0;
#X connect 30 0 48 0;
#X connect 31 0 49 0;
#X connect 32 0 49 0;
#X connect 33 0 0 0;
#X connect 50 0 2 0;
#X connect 50 0 4 0;
#X connect 50 0 6 0;
#X connect 50 0 8 0;
#X connect 50 0 10 0;
#X connect 50 0 12 0;
#X connect 50 0 14 0;
#X connect 50 0 16 0;
#X connect 50 0 18 0;
#X connect 50 0 20 0;
#X connect 50 0 22 0;
#X connect 50 0 24 0;
#X connect 50 0 26 0;
#X connect 50 0 28 0;
#X connect 50 0 30 0;
#X connect 50 0 32 0;
#X restore 15 329 pd seq-routine;
#X f 46;
#X obj 49 536 tgl 15 0 empty empty empty 17 7 0 10 -262144 -1 -1 0
1;
#X obj 138 531 tgl 15 0 empty empty empty 17 7 0 10 -262144 -1 -1 0
1;
#X obj 247 534 tgl 15 0 empty empty empty 17 7 0 10 -262144 -1 -1 0
1;
#X obj 360 542 tgl 15 0 empty empty empty 17 7 0 10 -262144 -1 -1 0
1;
#X obj 477 536 tgl 15 0 empty empty empty 17 7 0 10 -262144 -1 -1 0
1;
#X obj 596 536 tgl 15 0 empty empty empty 17 7 0 10 -262144 -1 -1 0
1;
#X obj 705 538 tgl 15 0 empty empty empty 17 7 0 10 -262144 -1 -1 0
1;
#X obj 817 537 tgl 15 0 empty empty empty 17 7 0 10 -262144 -1 -1 1
1;
#X obj 965 544 tgl 15 0 empty empty empty 17 7 0 10 -262144 -1 -1 0
1;
#X obj 1058 546 tgl 15 0 empty empty empty 17 7 0 10 -262144 -1 -1
0 1;
#X obj 1143 542 tgl 15 0 empty empty empty 17 7 0 10 -262144 -1 -1
0 1;
#X obj 1248 542 tgl 15 0 empty empty empty 17 7 0 10 -262144 -1 -1
0 1;
#X obj 1367 536 tgl 15 0 empty empty empty 17 7 0 10 -262144 -1 -1
0 1;
#X obj 1485 541 tgl 15 0 empty empty empty 17 7 0 10 -262144 -1 -1
0 1;
#X obj 1584 531 tgl 15 0 empty empty empty 17 7 0 10 -262144 -1 -1
0 1;
#X obj 1712 520 tgl 15 0 empty empty empty 17 7 0 10 -262144 -1 -1
0 1;
#X obj 147 200 == 0;
#X obj 14 7 bng 15 250 50 0 empty empty empty 17 7 0 10 -262144 -1
-1;
#X obj 14 40 t b b 0 0 0;
#X text 37 9 reset all;
#X obj 132 15 loadbang;
#X obj 1031 789 outlet fq;
#X connect 0 0 17 0;
#X connect 0 1 66 0;
#X connect 1 0 17 0;
#X connect 1 1 66 0;
#X connect 2 0 17 0;
#X connect 2 1 66 0;
#X connect 3 0 17 0;
#X connect 3 1 66 0;
#X connect 4 0 17 0;
#X connect 4 1 66 0;
#X connect 5 0 17 0;
#X connect 5 1 66 0;
#X connect 6 0 17 0;
#X connect 6 1 66 0;
#X connect 7 0 17 0;
#X connect 7 1 66 0;
#X connect 8 0 17 0;
#X connect 8 1 66 0;
#X connect 9 0 17 0;
#X connect 9 1 66 0;
#X connect 10 0 17 0;
#X connect 10 1 66 0;
#X connect 11 0 17 0;
#X connect 11 1 66 0;
#X connect 12 0 17 0;
#X connect 12 1 66 0;
#X connect 13 0 17 0;
#X connect 13 1 66 0;
#X connect 14 0 17 0;
#X connect 14 1 66 0;
#X connect 15 0 17 0;
#X connect 15 1 66 0;
#X connect 17 0 16 0;
#X connect 18 0 35 0;
#X connect 18 0 43 0;
#X connect 18 0 19 0;
#X connect 18 0 20 0;
#X connect 18 0 21 0;
#X connect 18 0 22 0;
#X connect 18 0 23 0;
#X connect 18 0 24 0;
#X connect 18 0 25 0;
#X connect 18 0 26 0;
#X connect 18 0 27 0;
#X connect 18 0 28 0;
#X connect 18 0 29 0;
#X connect 18 0 30 0;
#X connect 18 0 31 0;
#X connect 18 0 32 0;
#X connect 18 0 33 0;
#X connect 18 0 34 0;
#X connect 19 0 0 0;
#X connect 20 0 1 0;
#X connect 21 0 5 0;
#X connect 22 0 6 0;
#X connect 23 0 7 0;
#X connect 24 0 2 0;
#X connect 25 0 15 0;
#X connect 26 0 3 0;
#X connect 27 0 4 0;
#X connect 28 0 8 0;
#X connect 29 0 9 0;
#X connect 30 0 10 0;
#X connect 31 0 11 0;
#X connect 32 0 12 0;
#X connect 33 0 13 0;
#X connect 34 0 14 0;
#X connect 35 0 36 0;
#X connect 35 0 37 0;
#X connect 36 0 35 1;
#X connect 37 0 38 0;
#X connect 37 0 61 0;
#X connect 39 0 40 0;
#X connect 39 0 41 0;
#X connect 40 0 39 1;
#X connect 41 0 42 0;
#X connect 42 0 44 0;
#X connect 43 0 39 0;
#X connect 44 0 45 0;
#X connect 44 1 46 0;
#X connect 44 2 47 0;
#X connect 44 3 48 0;
#X connect 44 4 49 0;
#X connect 44 5 50 0;
#X connect 44 6 51 0;
#X connect 44 7 52 0;
#X connect 44 8 53 0;
#X connect 44 9 54 0;
#X connect 44 10 55 0;
#X connect 44 11 56 0;
#X connect 44 12 57 0;
#X connect 44 13 58 0;
#X connect 44 14 59 0;
#X connect 44 15 60 0;
#X connect 45 0 19 1;
#X connect 46 0 20 1;
#X connect 47 0 21 1;
#X connect 48 0 22 1;
#X connect 49 0 23 1;
#X connect 50 0 24 1;
#X connect 51 0 25 1;
#X connect 52 0 26 1;
#X connect 53 0 27 1;
#X connect 54 0 28 1;
#X connect 55 0 29 1;
#X connect 56 0 30 1;
#X connect 57 0 31 1;
#X connect 58 0 32 1;
#X connect 59 0 33 1;
#X connect 60 0 34 1;
#X connect 61 0 43 1;
#X connect 62 0 63 0;
#X connect 63 0 44 1;
#X connect 63 0 39 0;
#X connect 63 1 35 0;
#X connect 63 2 42 0;
#X connect 63 3 39 1;
#X connect 63 4 35 1;
#X connect 65 0 62 0;
#X restore 921 316 pd chord_prog;
#X connect 0 0 193 0;
#X connect 1 0 63 0;
#X connect 2 0 142 0;
#X connect 3 0 4 0;
#X connect 4 0 5 0;
#X connect 5 0 59 0;
#X connect 6 0 7 0;
#X connect 7 0 104 0;
#X connect 9 0 130 0;
#X connect 9 0 56 0;
#X connect 9 0 155 0;
#X connect 9 0 154 0;
#X connect 9 0 205 0;
#X connect 9 0 211 0;
#X connect 10 0 62 0;
#X connect 10 0 65 0;
#X connect 11 0 10 0;
#X connect 12 0 10 0;
#X connect 13 0 11 0;
#X connect 13 0 12 0;
#X connect 13 0 14 0;
#X connect 13 0 101 0;
#X connect 14 0 10 0;
#X connect 15 0 68 0;
#X connect 15 0 132 1;
#X connect 20 0 16 0;
#X connect 21 0 17 0;
#X connect 22 0 18 0;
#X connect 23 0 19 0;
#X connect 26 0 132 0;
#X connect 29 0 147 0;
#X connect 30 0 39 1;
#X connect 30 0 72 0;
#X connect 31 0 32 0;
#X connect 32 0 33 0;
#X connect 33 0 40 0;
#X connect 34 0 37 1;
#X connect 36 0 34 0;
#X connect 37 0 143 0;
#X connect 38 0 128 0;
#X connect 39 0 37 0;
#X connect 39 0 123 1;
#X connect 40 0 48 0;
#X connect 41 0 109 0;
#X connect 44 0 42 0;
#X connect 47 0 15 1;
#X connect 49 0 98 0;
#X connect 51 0 79 0;
#X connect 52 0 86 0;
#X connect 53 0 54 1;
#X connect 53 1 120 0;
#X connect 54 0 67 0;
#X connect 54 0 41 1;
#X connect 56 0 178 0;
#X connect 59 0 60 0;
#X connect 60 0 50 0;
#X connect 60 0 146 0;
#X connect 62 0 9 0;
#X connect 65 0 44 0;
#X connect 65 0 135 0;
#X connect 66 0 69 0;
#X connect 69 0 70 0;
#X connect 71 0 36 0;
#X connect 73 0 76 1;
#X connect 74 0 75 1;
#X connect 75 0 148 0;
#X connect 76 0 150 0;
#X connect 77 0 149 0;
#X connect 78 0 151 0;
#X connect 80 0 77 1;
#X connect 81 0 78 1;
#X connect 82 0 83 1;
#X connect 83 0 153 0;
#X connect 84 0 85 1;
#X connect 85 0 152 0;
#X connect 87 0 103 0;
#X connect 87 0 103 1;
#X connect 91 0 34 0;
#X connect 92 0 93 0;
#X connect 97 0 99 0;
#X connect 98 0 30 0;
#X connect 99 0 145 1;
#X connect 101 0 10 0;
#X connect 102 0 110 0;
#X connect 104 0 5 0;
#X connect 105 0 99 1;
#X connect 107 0 125 0;
#X connect 107 0 125 1;
#X connect 107 0 125 2;
#X connect 109 0 39 0;
#X connect 110 0 105 0;
#X connect 111 0 122 0;
#X connect 112 0 136 0;
#X connect 112 0 29 1;
#X connect 113 0 115 1;
#X connect 114 0 117 0;
#X connect 114 1 124 0;
#X connect 115 0 112 1;
#X connect 115 0 123 0;
#X connect 116 0 114 0;
#X connect 117 0 118 0;
#X connect 118 0 113 0;
#X connect 121 0 116 0;
#X connect 122 0 115 0;
#X connect 123 0 96 0;
#X connect 124 0 113 0;
#X connect 125 0 106 0;
#X connect 125 1 106 1;
#X connect 125 2 106 2;
#X connect 126 0 125 3;
#X connect 127 0 107 0;
#X connect 128 0 127 0;
#X connect 128 1 71 0;
#X connect 128 2 91 0;
#X connect 130 0 131 0;
#X connect 130 0 140 0;
#X connect 132 0 144 0;
#X connect 133 0 132 3;
#X connect 134 0 132 3;
#X connect 135 0 138 0;
#X connect 137 0 132 2;
#X connect 138 0 132 0;
#X connect 138 1 137 0;
#X connect 138 2 134 0;
#X connect 140 0 132 2;
#X connect 141 0 29 0;
#X connect 142 0 141 1;
#X connect 143 0 111 0;
#X connect 143 0 112 0;
#X connect 144 0 141 0;
#X connect 144 0 145 0;
#X connect 145 0 2 0;
#X connect 146 0 55 0;
#X connect 147 0 87 0;
#X connect 148 0 43 0;
#X connect 148 1 54 0;
#X connect 149 0 15 0;
#X connect 150 0 43 0;
#X connect 150 1 54 0;
#X connect 151 0 15 0;
#X connect 152 0 43 0;
#X connect 152 1 54 0;
#X connect 153 0 15 0;
#X connect 154 0 155 0;
#X connect 155 0 157 0;
#X connect 155 0 158 0;
#X connect 155 0 165 0;
#X connect 156 0 155 1;
#X connect 157 0 155 1;
#X connect 160 0 180 0;
#X connect 161 0 159 0;
#X connect 161 0 207 0;
#X connect 162 0 156 0;
#X connect 162 0 163 0;
#X connect 163 0 157 1;
#X connect 164 0 160 0;
#X connect 165 0 164 0;
#X connect 166 0 20 0;
#X connect 167 0 21 0;
#X connect 168 0 22 0;
#X connect 169 0 23 0;
#X connect 170 0 160 0;
#X connect 171 0 172 1;
#X connect 172 0 173 0;
#X connect 173 0 43 0;
#X connect 173 1 54 0;
#X connect 174 0 175 1;
#X connect 175 0 176 0;
#X connect 176 0 15 0;
#X connect 177 0 74 0;
#X connect 177 0 80 0;
#X connect 177 1 73 0;
#X connect 177 1 81 0;
#X connect 177 2 84 0;
#X connect 177 2 82 0;
#X connect 177 3 171 0;
#X connect 177 3 174 0;
#X connect 178 0 26 0;
#X connect 178 1 77 0;
#X connect 178 2 78 0;
#X connect 178 3 83 0;
#X connect 178 4 47 0;
#X connect 178 5 133 0;
#X connect 178 6 175 0;
#X connect 179 0 38 0;
#X connect 179 1 75 0;
#X connect 179 2 76 0;
#X connect 179 3 85 0;
#X connect 179 4 53 0;
#X connect 179 5 172 0;
#X connect 180 0 161 0;
#X connect 180 0 177 0;
#X connect 181 0 182 1;
#X connect 182 0 183 0;
#X connect 184 0 185 1;
#X connect 185 0 186 0;
#X connect 187 0 188 1;
#X connect 188 0 189 0;
#X connect 190 0 191 1;
#X connect 191 0 192 0;
#X connect 193 0 10 0;
#X connect 193 0 194 0;
#X connect 194 0 195 0;
#X connect 195 0 202 0;
#X connect 196 0 197 0;
#X connect 197 0 198 0;
#X connect 198 0 195 0;
#X connect 200 0 9 0;
#X connect 201 0 200 1;
#X connect 202 0 201 0;
#X connect 205 0 204 1;
#X connect 207 0 209 0;
#X connect 207 1 208 0;
#X connect 209 0 208 0;
#X connect 211 0 41 0;
