#N canvas 0 23 1440 855 10;
#X obj 465 21 adc~ 1;
#X obj 1278 12 loadbang;
#X obj 431 633 mono_plate;
#X obj 1204 616 adc~ 8;
#X obj 1205 642 lop~ 50;
#X obj 1207 678 snapshot~;
#X obj 1266 613 loadbang;
#X msg 1267 636 1;
#X text 1341 96 init values;
#X obj 677 140 bng 15 250 50 0 empty empty empty 17 7 0 10 -262144
-1 -1;
#X obj 661 58 bonk~;
#X msg 612 30 mask 4 0.7;
#X msg 699 29 attack-frames 1;
#X obj 657 8 loadbang;
#X msg 818 30 minvel 10;
#X obj 79 458 -, f 22;
#X obj 11 724 s reverb_predelay;
#X obj 63 696 s reverb_bandwidth;
#X obj 38 823 s reverb_damping;
#X obj 88 798 s reverb_gain;
#X floatatom 12 676 5 0 0 0 - - -;
#X floatatom 62 668 5 0 0 0 - - -;
#X floatatom 39 766 5 0 0 0 - - -;
#X floatatom 88 772 5 0 0 0 - - -;
#X text 9 658 10;
#X text 83 754 0.94;
#X obj 18 357 del 10;
#X text 38 749 0.2;
#X text 59 647 0.1;
#X obj 659 745 +~;
#X obj 1029 645 + 500;
#X obj 272 763 env~ 1024 64;
#X obj 270 784 / 100;
#X floatatom 315 783 5 0 0 0 - - -;
#X obj 940 607 line~;
#X text 892 387 pluck ramp;
#X msg 932 576 0 10000;
#X obj 926 702 *~;
#X obj 908 402 del 5;
#X obj 989 650 lop~;
#X obj 314 806 + 0.2;
#X obj 1005 572 pluck~, f 19;
#X obj 813 114 del 30;
#X obj 1004 547 del 20;
#X obj 813 93 del 30;
#X text 1276 682 0.27 - 0.6 is the IR sensor range., f 18;
#N canvas 476 370 318 313 whole_drone 0;
#X obj 67 29 inlet;
#X obj 70 234 outlet;
#X text 175 108 Pitches values;
#X text 182 125 whole tone (D);
#X obj 62 108 sel 0 1 2 3 4 5;
#X msg 39 152 38;
#X msg 77 151 40;
#X msg 109 150 42;
#X msg 140 151 44;
#X msg 174 151 46;
#X msg 205 152 48;
#X obj 63 71 random 6;
#X connect 0 0 11 0;
#X connect 4 0 5 0;
#X connect 4 1 6 0;
#X connect 4 2 7 0;
#X connect 4 3 8 0;
#X connect 4 4 9 0;
#X connect 4 5 10 0;
#X connect 5 0 1 0;
#X connect 6 0 1 0;
#X connect 7 0 1 0;
#X connect 8 0 1 0;
#X connect 9 0 1 0;
#X connect 10 0 1 0;
#X connect 11 0 4 0;
#X restore 81 392 pd whole_drone;
#X text 60 342 "whole-tone" gate;
#N canvas 77 35 259 278 drone_octave 0;
#X obj 89 56 inlet;
#X msg 94 173 0;
#X msg 128 173 12;
#X text 102 113 octave selector;
#X obj 92 129 sel 0 1 2;
#X obj 86 209 outlet;
#X msg 164 173 24;
#X obj 88 86 random 2;
#X connect 0 0 7 0;
#X connect 1 0 5 0;
#X connect 2 0 5 0;
#X connect 4 0 1 0;
#X connect 4 1 2 0;
#X connect 4 2 6 0;
#X connect 6 0 5 0;
#X connect 7 0 4 0;
#X restore 118 434 pd drone_octave;
#X obj 272 806 s env;
#X obj 1029 600 r env;
#X obj 1276 770 s IR;
#X obj 191 292 r IR;
#N canvas 376 178 318 511 whole_lead 0;
#X text 175 271 Pitches values;
#X text 182 288 whole tone (D);
#X obj 62 271 sel 0 1 2 3 4 5;
#X msg 39 315 38;
#X msg 77 314 40;
#X msg 109 313 42;
#X msg 140 314 44;
#X msg 174 314 46;
#X msg 205 315 48;
#X obj 67 29 inlet;
#X obj 115 166 change;
#X msg 56 136 set \$1;
#X obj 67 109 t f f;
#X obj 129 191 t b f;
#X text 122 116 it prevents hitting on the same notes respectively
, f 26;
#X obj 64 69 random 6;
#X obj 131 399 outlet pitch;
#X obj 33 400 outlet hit;
#X connect 2 0 3 0;
#X connect 2 1 4 0;
#X connect 2 2 5 0;
#X connect 2 3 6 0;
#X connect 2 4 7 0;
#X connect 2 5 8 0;
#X connect 3 0 16 0;
#X connect 4 0 16 0;
#X connect 5 0 16 0;
#X connect 6 0 16 0;
#X connect 7 0 16 0;
#X connect 8 0 16 0;
#X connect 9 0 15 0;
#X connect 10 0 13 0;
#X connect 11 0 10 0;
#X connect 12 0 11 0;
#X connect 12 1 10 0;
#X connect 13 0 17 0;
#X connect 13 1 2 0;
#X connect 15 0 12 0;
#X restore 1005 428 pd whole_lead;
#X text 986 384 "whole-tone" gate;
#X obj 1115 299 r IR;
#N canvas 219 156 407 348 lead_octave 0;
#X obj 17 15 inlet;
#X obj 11 166 expr ($f1+1)*12;
#X obj 10 274 outlet;
#X obj 97 24 loadbang;
#X floatatom 112 199 5 0 0 0 - - -;
#X obj 221 226 s p-transpose;
#X msg 207 181 12;
#X msg 254 181 24;
#X msg 304 182 0;
#X obj 216 117 sel 0 1;
#X obj 18 73 random 2;
#X obj 15 40 t b b;
#X obj 96 264 outlet bang;
#X connect 0 0 11 0;
#X connect 1 0 2 0;
#X connect 1 0 4 0;
#X connect 3 0 10 0;
#X connect 6 0 5 0;
#X connect 7 0 5 0;
#X connect 8 0 5 0;
#X connect 9 0 6 0;
#X connect 9 1 8 0;
#X connect 10 0 1 0;
#X connect 10 0 9 0;
#X connect 11 0 12 0;
#X connect 11 1 10 0;
#X restore 1210 296 pd lead_octave;
#X obj 1127 524 +, f 21;
#X obj 1190 742 s IRthresh;
#X obj 372 101 r IRthresh;
#N canvas 449 272 288 379 mainCounter 0;
#X obj 106 114 + 1, f 14;
#X obj 106 137 t b f;
#X floatatom 106 163 5 0 0 0 - - -;
#X msg 73 105 0;
#X msg 105 91 1;
#X text 63 90 reset;
#X text 96 75 increment;
#X obj 70 70 bng 15 250 50 0 empty empty empty 17 7 0 10 -262144 -1
-1;
#X obj 36 145 select 4;
#X obj 161 150 sel 1;
#X obj 160 90 value mainCount;
#X obj 69 217 select 0;
#X obj 130 208 select 7;
#X obj 27 48 loadbang;
#X obj 68 251 del 10;
#X obj 104 19 inlet;
#X obj 48 328 outlet;
#X obj 124 292 bng 15 250 50 0 empty empty empty 17 7 0 10 -262144
-1 -1;
#X connect 0 0 1 0;
#X connect 1 0 10 0;
#X connect 1 1 2 0;
#X connect 1 1 10 0;
#X connect 1 1 11 0;
#X connect 1 1 12 0;
#X connect 2 0 8 0;
#X connect 2 0 9 0;
#X connect 3 0 1 0;
#X connect 4 0 0 0;
#X connect 7 0 3 0;
#X connect 8 0 7 0;
#X connect 10 0 0 1;
#X connect 11 0 14 0;
#X connect 12 0 7 0;
#X connect 13 0 7 0;
#X connect 14 0 16 0;
#X connect 14 0 17 0;
#X connect 15 0 4 0;
#X restore 286 232 pd mainCounter;
#X text 806 264 PLUCK ========================================================================================
, f 94;
#X text 20 245 DRONE ==================================================================================
, f 88;
#X obj 1274 715 clip 0.27 0.6;
#X obj 1275 736 expr ($f1-0.27)*3;
#X text 494 78 INPUT ======================================================
;
#N canvas 842 240 500 492 firefly 0;
#X obj 22 272 phasor~ 1;
#X obj 123 105 snapshot~;
#X obj 201 189 t f f;
#X obj 228 212 * 0.1;
#X obj 201 234 + 0.1;
#X text 171 307 find edge~;
#X obj 174 131 expr if ($f1 > 0.98 \, 0 \, if ($f1 < 0.02 \, 0 \, $f1))
\;;
#X obj 174 156 sel 0;
#X obj 27 376 threshold~ 0.99 10 0.6 0;
#X obj 245 282 > 1;
#X obj 252 338 sel 1;
#X obj 175 41 inlet;
#X obj 174 73 bang;
#X obj 224 441 outlet;
#X text 282 464 Firefly algo. by Kristian Nymoen;
#X obj 312 230 nbx 5 14 -1e+37 1e+37 0 0 empty empty empty 0 -8 0 10
-262144 -1 -1 0 256;
#X obj 318 172 loadbang;
#X msg 318 197 0.1;
#X obj 225 407 bng 15 250 50 0 empty empty empty 17 7 0 10 -262144
-1 -1;
#X connect 0 0 1 0;
#X connect 0 0 8 0;
#X connect 1 0 6 0;
#X connect 2 0 4 0;
#X connect 2 1 3 0;
#X connect 3 0 4 1;
#X connect 4 0 0 1;
#X connect 4 0 9 0;
#X connect 6 0 7 0;
#X connect 7 1 2 0;
#X connect 8 0 18 0;
#X connect 9 0 10 0;
#X connect 10 0 18 0;
#X connect 11 0 12 0;
#X connect 12 0 1 0;
#X connect 15 0 3 1;
#X connect 16 0 17 0;
#X connect 18 0 13 0;
#X restore 690 105 pd firefly;
#X msg 1278 31 \; reverb_gain 0.94 \; reverb_damping 0.2 \; reverb_bandwidth
0.1 \; reverb_predelay 10 \;;
#X obj 1341 774 print;
#X obj 721 68 bng 15 250 50 0 empty empty empty 17 7 0 10 -262144 -1
-1;
#X floatatom 1199 780 5 0 0 0 - - -;
#X floatatom 1229 547 5 0 0 0 - - -;
#X floatatom 224 451 5 0 0 0 - - -;
#X obj 1200 800 / 100;
#X floatatom 1198 819 5 0 0 0 - - -;
#X obj 867 485 delay 255;
#X floatatom 1031 681 5 0 0 0 - - -;
#X obj 1208 424 tgl 15 0 empty empty empty 0 -6 0 8 -262144 -1 -1 0
1;
#X obj 1067 409 tgl 15 0 empty empty empty 0 -6 0 8 -262144 -1 -1 1
1;
#X obj 1004 408 spigot;
#X obj 1158 420 spigot;
#X obj 80 367 spigot;
#X obj 205 384 spigot;
#N canvas 0 23 450 300 IRscale 0;
#X obj 132 31 inlet;
#X obj 68 176 outlet s1;
#X obj 135 177 outlet s2;
#X obj 205 178 outlet s3;
#X obj 98 82 expr if ($f1 <= 0.4 \, 1 \, 0) \;;
#X obj 125 103 expr if ($f1 >= 0.41 && $f1 <= 0.7 \, 1 \, 0) \;;
#X obj 156 127 expr if ($f1 >= 0.71 && $f1 <= 1 \, 1 \, 0) \;;
#X connect 0 0 4 0;
#X connect 0 0 5 0;
#X connect 0 0 6 0;
#X connect 4 0 1 0;
#X connect 5 0 2 0;
#X connect 6 0 3 0;
#X restore 191 324 pd IRscale;
#X obj 138 370 tgl 15 0 empty empty empty 0 -6 0 8 -262144 -1 -1 1
1;
#X obj 259 385 tgl 15 0 empty empty empty 0 -6 0 8 -262144 -1 -1 0
1;
#X obj 351 389 tgl 15 0 empty empty empty 0 -6 0 8 -262144 -1 -1 0
1;
#X obj 297 384 spigot;
#X obj 1326 433 tgl 15 0 empty empty empty 0 -6 0 8 -262144 -1 -1 0
1;
#X obj 1276 429 spigot;
#N canvas 669 35 450 300 IRscale2 0;
#X obj 132 31 inlet;
#X obj 68 176 outlet s1;
#X obj 135 177 outlet s2;
#X obj 205 178 outlet s3;
#X obj 98 82 expr if ($f1 <= 0.4 \, 1 \, 0) \;;
#X obj 125 103 expr if ($f1 >= 0.41 && $f1 <= 0.7 \, 1 \, 0) \;;
#X obj 156 127 expr if ($f1 >= 0.71 && $f1 <= 1 \, 1 \, 0) \;;
#X connect 0 0 4 0;
#X connect 0 0 5 0;
#X connect 0 0 6 0;
#X connect 4 0 1 0;
#X connect 5 0 2 0;
#X connect 6 0 3 0;
#X restore 1112 322 pd IRscale2;
#N canvas 347 121 450 300 A7_drone 0;
#X obj 67 29 inlet;
#X obj 70 234 outlet;
#X text 175 108 Pitches values;
#X obj 62 108 sel 0 1 2 3 4;
#X obj 64 69 random 3;
#X msg 39 152 45;
#X msg 77 151 47;
#X msg 109 150 49;
#X msg 140 151 52;
#X msg 174 151 54;
#X text 182 125 A peentatonic;
#X connect 0 0 4 0;
#X connect 3 0 5 0;
#X connect 3 1 6 0;
#X connect 3 2 7 0;
#X connect 3 3 8 0;
#X connect 3 4 9 0;
#X connect 4 0 3 0;
#X connect 5 0 1 0;
#X connect 6 0 1 0;
#X connect 7 0 1 0;
#X connect 8 0 1 0;
#X connect 9 0 1 0;
#X restore 202 410 pd A7_drone;
#N canvas 549 196 345 449 A7_lead 0;
#X obj 67 29 inlet;
#X text 193 276 Pitches values;
#X obj 80 276 sel 0 1 2 3 4;
#X obj 115 166 change;
#X msg 56 136 set \$1;
#X obj 67 109 t f f;
#X obj 129 191 t b f;
#X text 122 116 it prevents hitting on the same notes respectively
, f 26;
#X obj 123 403 outlet pitch;
#X obj 42 400 outlet hit;
#X obj 64 69 random 5;
#X msg 57 320 45;
#X msg 95 319 47;
#X msg 127 318 49;
#X msg 158 319 52;
#X msg 192 319 54;
#X text 200 293 A pentatonic;
#X connect 0 0 10 0;
#X connect 2 0 11 0;
#X connect 2 1 12 0;
#X connect 2 2 13 0;
#X connect 2 3 14 0;
#X connect 2 4 15 0;
#X connect 3 0 6 0;
#X connect 4 0 3 0;
#X connect 5 0 4 0;
#X connect 5 1 3 0;
#X connect 6 0 9 0;
#X connect 6 1 2 0;
#X connect 10 0 5 0;
#X connect 11 0 8 0;
#X connect 12 0 8 0;
#X connect 13 0 8 0;
#X connect 14 0 8 0;
#X connect 15 0 8 0;
#X restore 1146 442 pd A7_lead;
#N canvas 939 188 345 449 E7_lead 0;
#X obj 67 29 inlet;
#X text 193 276 Pitches values;
#X obj 80 276 sel 0 1 2 3 4;
#X obj 115 166 change;
#X msg 56 136 set \$1;
#X obj 67 109 t f f;
#X obj 129 191 t b f;
#X text 122 116 it prevents hitting on the same notes respectively
, f 26;
#X obj 123 403 outlet pitch;
#X obj 42 400 outlet hit;
#X obj 64 69 random 5;
#X text 200 293 E pentatonic;
#X msg 57 320 52;
#X msg 95 319 54;
#X msg 127 318 56;
#X msg 158 319 59;
#X msg 192 319 61;
#X connect 0 0 10 0;
#X connect 2 0 12 0;
#X connect 2 1 13 0;
#X connect 2 2 14 0;
#X connect 2 3 15 0;
#X connect 2 4 16 0;
#X connect 3 0 6 0;
#X connect 4 0 3 0;
#X connect 5 0 4 0;
#X connect 5 1 3 0;
#X connect 6 0 9 0;
#X connect 6 1 2 0;
#X connect 10 0 5 0;
#X connect 12 0 8 0;
#X connect 13 0 8 0;
#X connect 14 0 8 0;
#X connect 15 0 8 0;
#X connect 16 0 8 0;
#X restore 1264 451 pd E7_lead;
#N canvas 347 121 344 285 E7_drone 0;
#X obj 67 29 inlet;
#X obj 70 234 outlet;
#X text 175 108 Pitches values;
#X obj 62 108 sel 0 1 2 3 4;
#X obj 64 69 random 3;
#X text 182 125 E peentatonic;
#X msg 39 152 52;
#X msg 77 151 54;
#X msg 109 150 56;
#X msg 140 151 59;
#X msg 174 151 61;
#X connect 0 0 4 0;
#X connect 3 0 6 0;
#X connect 3 1 7 0;
#X connect 3 2 8 0;
#X connect 3 3 9 0;
#X connect 3 4 10 0;
#X connect 4 0 3 0;
#X connect 6 0 1 0;
#X connect 7 0 1 0;
#X connect 8 0 1 0;
#X connect 9 0 1 0;
#X connect 10 0 1 0;
#X restore 294 410 pd E7_drone;
#X obj 651 801 bp~ 3000 3;
#X text 1058 758 do not forget to plug the IR!;
#X text 1151 593 Infrared===============================;
#X text 546 755 Output===============================;
#X msg 890 521 1 250;
#X obj 12 13 tgl 15 0 empty empty empty 17 7 0 10 -262144 -1 -1 0 1
;
#X msg 12 33 \; pd dsp \$1;
#X obj 1098 277 t b b b b b;
#X text 208 362 "in-tone" gates============;
#X text 1126 399 "in-tone" gates=========================;
#X obj 989 707 send~ Lverb;
#X obj 455 554 receive~ Lverb;
#X obj 1029 622 * 3000;
#X obj 456 578 *~ 0.2;
#X text 455 534 from the lead.;
#X msg 517 34 thresh 2.5 10;
#X obj 609 120 spigot;
#X obj 607 99 tgl 15 0 empty empty empty 0 -6 0 8 -262144 -1 -1 0 1
;
#X obj 549 519 r IR;
#X obj 641 824 dac~ 1 2;
#X obj 1267 656 metro 20;
#X obj 503 579 clip 0 0.4;
#X obj 684 419 dac~ 3 4 5;
#X obj 687 356 vline~;
#X text 677 310 LEDz==================;
#X obj 466 41 *~ 1;
#X obj 993 615 *~ 4;
#X obj 548 557 / 2;
#X obj 925 762 oct2~;
#X obj 842 780 +~;
#X obj 809 632 line~;
#X obj 779 556 t b b;
#X obj 797 661 *~;
#X obj 738 535 del 200;
#X obj 718 577 delay 2010;
#X msg 801 601 0 8000;
#X text 719 492 octave ramp;
#X obj 1291 320 s oBang;
#X obj 737 509 r oBang;
#X obj 925 789 lop~ 1000;
#X obj 981 681 +~;
#X msg 741 613 0.4 1800;
#N canvas 354 60 696 153 LEDz 0;
#X obj 28 89 *~;
#X obj 28 25 inlet~ led1;
#X obj 140 92 *~;
#X obj 140 28 inlet~ led2;
#X obj 250 97 *~;
#X obj 250 33 inlet~ led3;
#X obj 28 110 outlet~ led1;
#X obj 140 113 outlet~ led2;
#X obj 250 118 outlet~ led3;
#X obj 383 25 inlet IR;
#X obj 353 55 expr if ($f1 <= 0.4 \, 0.7 \, 0.9) \;;
#X obj 380 76 expr if ($f1 >= 0.41 && $f1 <= 0.7 \, 0.7 \, 0.9) \;
;
#X obj 411 100 expr if ($f1 >= 0.71 && $f1 <= 1 \, 0.7 \, 0.9) \;;
#X connect 0 0 6 0;
#X connect 1 0 0 0;
#X connect 2 0 7 0;
#X connect 3 0 2 0;
#X connect 4 0 8 0;
#X connect 5 0 4 0;
#X connect 9 0 11 0;
#X connect 9 0 10 0;
#X connect 9 0 12 0;
#X connect 10 0 0 1;
#X connect 11 0 2 1;
#X connect 12 0 4 1;
#X restore 685 391 pd LEDz;
#X f 10;
#X obj 737 358 r IR;
#X msg 687 328 0.8 125 \, 0 1200 126;
#X obj 909 425 t b b b;
#X text 740 66 (onsets);
#N canvas 0 23 353 300 time 0;
#X obj 41 104 sel 1 2;
#X floatatom 47 186 5 0 0 0 - - -;
#X msg 40 154 1;
#X msg 73 154 0;
#X obj 73 131 t b b;
#X msg 93 103 0;
#X obj 44 78 +;
#X floatatom 72 80 5 0 0 0 - - -;
#X obj 47 238 timer;
#X msg 42 50 1;
#X obj 47 211 sel 1 0;
#X obj 39 18 inlet bang;
#X obj 45 268 outlet time;
#X connect 0 0 2 0;
#X connect 0 1 4 0;
#X connect 1 0 10 0;
#X connect 2 0 1 0;
#X connect 3 0 1 0;
#X connect 4 0 3 0;
#X connect 4 1 5 0;
#X connect 5 0 7 0;
#X connect 6 0 7 0;
#X connect 7 0 6 1;
#X connect 7 0 0 0;
#X connect 8 0 12 0;
#X connect 9 0 6 0;
#X connect 10 0 8 0;
#X connect 10 1 8 1;
#X connect 11 0 9 0;
#X restore 372 415 pd time;
#X floatatom 373 434 8 0 0 0 - - -;
#X obj 58 534 randadd~, f 20;
#X msg 249 526 200;
#X msg 288 528 8000;
#N canvas 875 310 288 379 mainCounter2 0;
#X obj 106 114 + 1, f 14;
#X obj 106 137 t b f;
#X floatatom 125 169 5 0 0 0 - - -;
#X msg 73 105 0;
#X msg 105 91 1;
#X text 63 90 reset;
#X text 96 75 increment;
#X obj 70 70 bng 15 250 50 0 empty empty empty 17 7 0 10 -262144 -1
-1;
#X obj 161 150 sel 1;
#X obj 69 217 select 0;
#X obj 27 48 loadbang;
#X obj 68 251 del 10;
#X obj 48 328 outlet;
#X obj 124 292 bng 15 250 50 0 empty empty empty 17 7 0 10 -262144
-1 -1;
#X obj 160 90 value mainCountt;
#X obj 104 19 inlet count2;
#X obj 36 145 select 4;
#X obj 130 208 select 7;
#X connect 0 0 1 0;
#X connect 1 0 14 0;
#X connect 1 1 2 0;
#X connect 1 1 9 0;
#X connect 1 1 14 0;
#X connect 1 1 17 0;
#X connect 2 0 8 0;
#X connect 2 0 16 0;
#X connect 3 0 1 0;
#X connect 4 0 0 0;
#X connect 7 0 3 0;
#X connect 9 0 11 0;
#X connect 10 0 7 0;
#X connect 11 0 12 0;
#X connect 11 0 13 0;
#X connect 14 0 0 1;
#X connect 15 0 4 0;
#X connect 16 0 7 0;
#X connect 17 0 7 0;
#X restore 71 203 pd mainCounter2;
#X obj 831 812 *~ 0.1;
#X obj 111 275 t b b b b b b;
#X msg 211 514 2000;
#X obj 70 225 t b b b;
#X msg 1160 714 0.1;
#X obj 144 514 * 1.5;
#X obj 429 704 +~;
#X obj 432 656 *~ 0.15;
#X obj 924 737 *~ 0.2;
#X obj 58 568 *~ 0.2;
#X obj 433 613 +~;
#X obj 1195 704 > 0.01;
#X obj 667 773 *~ 1;
#X connect 0 0 120 0;
#X connect 1 0 67 0;
#X connect 2 0 155 0;
#X connect 3 0 4 0;
#X connect 4 0 5 0;
#X connect 5 0 63 0;
#X connect 6 0 7 0;
#X connect 7 0 115 0;
#X connect 9 0 102 0;
#X connect 9 0 142 0;
#X connect 9 0 60 0;
#X connect 10 0 66 0;
#X connect 10 0 69 0;
#X connect 11 0 10 0;
#X connect 12 0 10 0;
#X connect 13 0 110 0;
#X connect 13 0 11 0;
#X connect 13 0 12 0;
#X connect 13 0 14 0;
#X connect 14 0 10 0;
#X connect 15 0 72 0;
#X connect 15 0 144 1;
#X connect 20 0 16 0;
#X connect 21 0 17 0;
#X connect 22 0 18 0;
#X connect 23 0 19 0;
#X connect 26 0 144 0;
#X connect 29 0 160 0;
#X connect 30 0 39 1;
#X connect 30 0 76 0;
#X connect 31 0 32 0;
#X connect 32 0 33 0;
#X connect 33 0 40 0;
#X connect 34 0 37 1;
#X connect 36 0 34 0;
#X connect 37 0 156 0;
#X connect 38 0 140 0;
#X connect 39 0 37 0;
#X connect 39 0 135 1;
#X connect 40 0 49 0;
#X connect 41 0 121 0;
#X connect 43 0 41 0;
#X connect 44 0 42 0;
#X connect 46 0 15 0;
#X connect 48 0 15 1;
#X connect 50 0 107 0;
#X connect 52 0 83 0;
#X connect 53 0 43 0;
#X connect 53 1 57 0;
#X connect 55 0 90 0;
#X connect 56 1 132 0;
#X connect 57 0 41 1;
#X connect 57 0 71 0;
#X connect 59 0 112 0;
#X connect 60 0 149 0;
#X connect 63 0 64 0;
#X connect 64 0 51 0;
#X connect 64 0 159 0;
#X connect 66 0 111 0;
#X connect 69 0 44 0;
#X connect 69 0 147 0;
#X connect 70 0 73 0;
#X connect 73 0 74 0;
#X connect 75 0 36 0;
#X connect 77 0 80 1;
#X connect 78 0 79 1;
#X connect 79 0 53 0;
#X connect 80 0 92 0;
#X connect 81 0 46 0;
#X connect 82 0 91 0;
#X connect 83 0 84 0;
#X connect 83 1 85 0;
#X connect 83 2 86 0;
#X connect 84 0 81 1;
#X connect 85 0 82 1;
#X connect 86 0 87 1;
#X connect 87 0 94 0;
#X connect 88 0 89 1;
#X connect 89 0 93 0;
#X connect 90 0 78 0;
#X connect 90 1 77 0;
#X connect 90 2 88 0;
#X connect 91 0 15 0;
#X connect 92 0 43 0;
#X connect 92 1 57 0;
#X connect 93 0 43 0;
#X connect 93 1 57 0;
#X connect 94 0 15 0;
#X connect 95 0 114 0;
#X connect 95 0 114 1;
#X connect 99 0 34 0;
#X connect 100 0 101 0;
#X connect 102 0 38 0;
#X connect 102 1 79 0;
#X connect 102 2 80 0;
#X connect 102 3 89 0;
#X connect 102 4 56 0;
#X connect 106 0 108 0;
#X connect 107 0 30 0;
#X connect 108 0 158 1;
#X connect 110 0 10 0;
#X connect 111 0 9 0;
#X connect 112 0 111 1;
#X connect 113 0 122 0;
#X connect 115 0 5 0;
#X connect 116 0 108 1;
#X connect 118 0 137 0;
#X connect 118 0 137 1;
#X connect 118 0 137 2;
#X connect 120 0 10 0;
#X connect 121 0 39 0;
#X connect 122 0 116 0;
#X connect 123 0 134 0;
#X connect 124 0 148 0;
#X connect 124 0 29 1;
#X connect 125 0 127 1;
#X connect 126 0 129 0;
#X connect 126 1 136 0;
#X connect 127 0 124 1;
#X connect 127 0 135 0;
#X connect 128 0 126 0;
#X connect 129 0 130 0;
#X connect 130 0 125 0;
#X connect 133 0 128 0;
#X connect 134 0 127 0;
#X connect 135 0 105 0;
#X connect 136 0 125 0;
#X connect 137 0 117 0;
#X connect 137 1 117 1;
#X connect 137 2 117 2;
#X connect 138 0 137 3;
#X connect 139 0 118 0;
#X connect 140 0 139 0;
#X connect 140 1 75 0;
#X connect 140 2 99 0;
#X connect 142 0 143 0;
#X connect 142 0 153 0;
#X connect 144 0 157 0;
#X connect 145 0 144 3;
#X connect 146 0 144 3;
#X connect 147 0 151 0;
#X connect 149 0 26 0;
#X connect 149 1 81 0;
#X connect 149 2 82 0;
#X connect 149 3 87 0;
#X connect 149 4 48 0;
#X connect 149 5 145 0;
#X connect 150 0 144 2;
#X connect 151 0 144 0;
#X connect 151 1 150 0;
#X connect 151 2 146 0;
#X connect 153 0 144 2;
#X connect 154 0 29 0;
#X connect 155 0 154 1;
#X connect 156 0 123 0;
#X connect 156 0 124 0;
#X connect 157 0 154 0;
#X connect 157 0 158 0;
#X connect 158 0 2 0;
#X connect 159 0 58 0;
#X connect 160 0 95 0;
