#N canvas 154 35 892 784 10;
#X obj 231 121 adc~ 1;
#X floatatom 231 223 5 0 0 0 - - -;
#X obj 205 695 dac~ 1 2;
#X obj 541 17 loadbang;
#X obj 231 432 karplus_strong~;
#X obj 217 266 bng 15 250 50 0 empty empty empty 17 7 0 10 -262144
-1 -1;
#X obj 275 543 mono_plate;
#X obj 222 608 +~;
#X obj 232 147 sigmund~ -npts 4096 -hop 4096 notes env;
#X obj 420 475 adc~ 8;
#X obj 420 496 lop~ 50;
#X obj 420 531 snapshot~;
#X obj 483 472 loadbang;
#X obj 483 515 metro 20;
#X msg 483 495 1;
#X text 418 460 Infrared;
#X obj 275 572 *~;
#X obj 222 574 *~;
#X obj 275 521 lop~;
#X obj 275 468 +~;
#X obj 275 497 lop~;
#X obj 329 498 + 500;
#X obj 274 319 r decay;
#X obj 323 319 r cutoff;
#X obj 377 319 r gain;
#X floatatom 274 340 5 0 0 0 - - -;
#X floatatom 323 340 5 0 0 0 - - -;
#X floatatom 377 340 5 0 0 0 - - -;
#X obj 329 475 * 7500;
#X obj 463 176 dbtorms;
#X obj 232 173 moses 15;
#X text 15 106 harmonization;
#X obj 463 231 + 150;
#X obj 231 394 del 150;
#X obj 462 273 line;
#X floatatom 462 295 7 0 0 0 - - -;
#X msg 462 253 \$1 20;
#X text 421 652 linear xfading reverb wet/dry;
#X text 295 186 filtering notes;
#X text 297 198 outside nn=15 and nn=100;
#X text 571 155 init values;
#X text 513 179 Amp following...;
#X text 551 242 ...mapped to...;
#X text 455 314 ...delays for note-ons high and low;
#X obj 423 635 expr 1 - $f1;
#X obj 443 564 * 2.5;
#X obj 499 586 - 0.06;
#X obj 222 537 *~ 0.7;
#X obj 463 208 * 800;
#X obj 359 40 text define -k scale;
#A set 0 \; 2 \; 3 \; 5 \; 7 \; 8 \; 10 \;;
#X obj 18 125 / 12;
#X obj 18 314 * 12;
#X obj 18 272 -;
#X obj 18 188 i;
#X obj 18 167 + 0.5;
#X obj 18 335 +;
#X obj 18 209 t f f;
#X obj 45 251 t f f;
#X obj 72 314 +;
#X obj 72 282 text get scale;
#X floatatom 18 356 5 0 0 0 - - -;
#X msg 541 40 \; decay 0.999 \; cutoff 4000 \; gain 1 \; reverb_gain
0.96 \; reverb_damping 0.6 \; reverb_bandwidth 0.6 \; reverb_predelay
50;
#X obj 231 196 moses 75;
#X obj 244 256 + 3;
#X obj 652 420 karplus_strong~;
#X obj 695 307 r decay;
#X obj 744 307 r cutoff;
#X obj 798 307 r gain;
#X floatatom 695 328 5 0 0 0 - - -;
#X floatatom 744 328 5 0 0 0 - - -;
#X floatatom 798 328 5 0 0 0 - - -;
#X obj 652 382 del 150;
#X obj 506 271 line;
#X floatatom 506 293 7 0 0 0 - - -;
#X msg 506 251 \$1 20;
#X obj 507 206 * 2000;
#X obj 507 229 + 300;
#X obj 279 259 + 7;
#X obj 20 387 / 12;
#X obj 20 576 * 12;
#X obj 20 534 -;
#X obj 20 450 i;
#X obj 20 429 + 0.5;
#X obj 20 597 +;
#X obj 20 471 t f f;
#X obj 47 513 t f f;
#X obj 74 576 +;
#X obj 74 544 text get scale;
#X floatatom 20 618 5 0 0 0 - - -;
#X obj 18 146 * 7, f 6;
#X obj 45 230 mod 7;
#X obj 18 293 / 7;
#X obj 20 408 * 7;
#X obj 47 492 mod 7;
#X obj 20 555 / 7;
#X obj 217 650 *~ 5;
#X connect 0 0 8 0;
#X connect 1 0 5 0;
#X connect 1 0 63 0;
#X connect 1 0 77 0;
#X connect 3 0 61 0;
#X connect 4 0 19 0;
#X connect 5 0 33 0;
#X connect 6 0 16 0;
#X connect 7 0 95 0;
#X connect 8 0 30 0;
#X connect 8 1 29 0;
#X connect 9 0 10 0;
#X connect 10 0 11 0;
#X connect 11 0 28 0;
#X connect 11 0 45 0;
#X connect 12 0 14 0;
#X connect 13 0 11 0;
#X connect 14 0 13 0;
#X connect 16 0 7 0;
#X connect 17 0 7 0;
#X connect 18 0 6 0;
#X connect 18 0 47 0;
#X connect 19 0 20 0;
#X connect 20 0 18 0;
#X connect 21 0 20 1;
#X connect 21 0 18 1;
#X connect 22 0 25 0;
#X connect 23 0 26 0;
#X connect 24 0 27 0;
#X connect 25 0 4 2;
#X connect 26 0 4 3;
#X connect 27 0 4 4;
#X connect 28 0 21 0;
#X connect 29 0 48 0;
#X connect 30 1 62 0;
#X connect 32 0 36 0;
#X connect 33 0 4 0;
#X connect 34 0 35 0;
#X connect 35 0 33 1;
#X connect 36 0 34 0;
#X connect 44 0 16 1;
#X connect 45 0 46 0;
#X connect 46 0 44 0;
#X connect 46 0 17 1;
#X connect 47 0 17 0;
#X connect 48 0 32 0;
#X connect 50 0 89 0;
#X connect 51 0 55 0;
#X connect 52 0 91 0;
#X connect 53 0 56 0;
#X connect 54 0 53 0;
#X connect 55 0 60 0;
#X connect 56 0 52 0;
#X connect 56 1 90 0;
#X connect 57 0 52 1;
#X connect 57 1 59 0;
#X connect 58 0 55 1;
#X connect 59 0 58 0;
#X connect 60 0 4 1;
#X connect 62 0 1 0;
#X connect 63 0 50 0;
#X connect 64 0 19 1;
#X connect 65 0 68 0;
#X connect 66 0 69 0;
#X connect 67 0 70 0;
#X connect 68 0 64 2;
#X connect 69 0 64 3;
#X connect 70 0 64 4;
#X connect 71 0 64 0;
#X connect 72 0 73 0;
#X connect 73 0 71 0;
#X connect 74 0 72 0;
#X connect 75 0 76 0;
#X connect 76 0 74 0;
#X connect 77 0 78 0;
#X connect 78 0 92 0;
#X connect 79 0 83 0;
#X connect 80 0 94 0;
#X connect 81 0 84 0;
#X connect 82 0 81 0;
#X connect 83 0 88 0;
#X connect 84 0 80 0;
#X connect 84 1 93 0;
#X connect 85 0 80 1;
#X connect 85 1 87 0;
#X connect 86 0 83 1;
#X connect 87 0 86 0;
#X connect 88 0 64 1;
#X connect 89 0 54 0;
#X connect 90 0 57 0;
#X connect 91 0 51 0;
#X connect 92 0 82 0;
#X connect 93 0 85 0;
#X connect 94 0 79 0;
#X connect 95 0 2 0;
#X connect 95 0 2 1;
