#N canvas 672 226 661 496 10;
#X obj 388 318 line;
#X floatatom 389 354 5 0 0 0 - - -;
#X obj 141 62 metro 4000;
#X obj 140 37 tgl 15 0 empty empty empty 17 7 0 10 -262144 -1 -1 0
1;
#X obj 305 382 *~;
#X obj 224 28 receive led;
#X obj 304 63 bng 15 250 50 0 empty empty empty 17 7 0 10 -262144 -1
-1;
#X msg 167 97 0 \, 1 \, 0 1000;
#X obj 440 99 timer;
#X obj 439 69 t b b;
#X obj 411 28 bng 15 250 50 0 empty empty empty 17 7 0 10 -262144 -1
-1;
#X floatatom 443 155 5 0 0 0 - - -;
#X obj 306 406 outlet~;
#X obj 399 395 outlet;
#X obj 303 354 osc~;
#X obj 537 188 delay;
#X floatatom 537 168 5 0 0 0 - - -;
#X msg 442 261 1 \$1;
#X obj 440 123 f;
#X obj 443 182 / 2;
#X floatatom 584 246 5 0 0 0 - - -;
#X obj 540 271 pack 0 0;
#X msg 547 245 0;
#X obj 539 213 t b b;
#X obj 517 14 inlet trigger;
#X obj 550 60 del 1;
#X obj 345 181 / 4;
#X obj 448 222 * 3;
#X connect 0 0 1 0;
#X connect 1 0 4 1;
#X connect 1 0 13 0;
#X connect 2 0 7 0;
#X connect 3 0 2 0;
#X connect 4 0 12 0;
#X connect 6 0 7 0;
#X connect 7 0 0 0;
#X connect 8 0 18 0;
#X connect 9 0 8 0;
#X connect 9 1 8 1;
#X connect 10 0 9 0;
#X connect 11 0 19 0;
#X connect 11 0 26 0;
#X connect 14 0 4 0;
#X connect 15 0 23 0;
#X connect 16 0 15 0;
#X connect 17 0 0 0;
#X connect 18 0 11 0;
#X connect 20 0 21 1;
#X connect 21 0 0 0;
#X connect 22 0 21 0;
#X connect 23 0 21 0;
#X connect 23 1 22 0;
#X connect 24 0 25 0;
#X connect 25 0 10 0;
#X connect 26 0 17 0;
#X connect 26 0 16 0;
#X connect 26 0 27 0;
#X connect 27 0 20 0;
