#N canvas 140 166 469 502 10;
#X obj 45 106 / 12;
#X obj 45 295 * 12;
#X obj 45 253 -;
#X obj 45 169 i;
#X obj 45 148 + 0.5;
#X obj 45 316 +;
#X obj 45 43 inlet;
#X obj 45 379 outlet;
#X obj 45 190 t f f;
#X obj 72 232 t f f;
#X obj 114 43 inlet;
#X obj 99 295 +;
#X obj 114 64 mod 12;
#X obj 45 358 moses;
#X obj 45 337 moses 128;
#X obj 45 85 -;
#X obj 99 263 text get scale;
#X obj 45 274 / 5;
#X obj 72 211 mod 5;
#X obj 45 127 * 5;
#X connect 0 0 19 0;
#X connect 1 0 5 0;
#X connect 2 0 17 0;
#X connect 3 0 8 0;
#X connect 4 0 3 0;
#X connect 5 0 14 0;
#X connect 6 0 15 0;
#X connect 8 0 2 0;
#X connect 8 1 18 0;
#X connect 9 0 2 1;
#X connect 9 1 16 0;
#X connect 10 0 12 0;
#X connect 11 0 5 1;
#X connect 12 0 11 1;
#X connect 12 0 15 1;
#X connect 13 1 7 0;
#X connect 14 0 13 0;
#X connect 15 0 0 0;
#X connect 16 0 11 0;
#X connect 17 0 1 0;
#X connect 18 0 9 0;
#X connect 19 0 4 0;
