#N canvas 418 102 450 300 10;
#X obj 117 52 inlet~;
#X obj 120 97 rzero~ 1;
#X obj 178 49 sig~ 1;
#X obj 119 140 *~;
#X obj 201 105 loadbang;
#X obj 197 131 samplerate~;
#X obj 128 181 outlet~;
#X connect 0 0 1 0;
#X connect 1 0 3 0;
#X connect 2 0 1 1;
#X connect 3 0 6 0;
#X connect 4 0 5 0;
#X connect 5 0 3 1;
