#N canvas 271 198 598 397 10;
#X obj 202 309 outlet~;
#X obj 212 -21 loadbang;
#X obj 244 174 osc~;
#X obj 132 191 *~;
#X obj 254 32 random 1000;
#X obj 99 104 osc~;
#X obj 254 79 sig~;
#X obj 254 57 / 1000;
#X obj 250 102 *~ 0.02;
#X obj 249 126 +~ 0.02;
#X obj 209 262 *~ 0.4;
#X obj 146 37 + 200;
#X obj 156 10 random 175;
#X connect 1 0 4 0;
#X connect 1 0 12 0;
#X connect 2 0 3 1;
#X connect 3 0 10 0;
#X connect 4 0 7 0;
#X connect 5 0 3 0;
#X connect 6 0 8 0;
#X connect 7 0 6 0;
#X connect 8 0 9 0;
#X connect 9 0 2 0;
#X connect 10 0 0 0;
#X connect 11 0 5 0;
#X connect 12 0 11 0;
