#N canvas 65 67 1525 573 12;
#X obj 131 448 dac~;
#X obj 81 369 catch~ master;
#N canvas -6 29 1221 644 techno-world 0;
#X text 851 67 ├┴┐├┤-├─┤│-┬│--├┤-╠╦╝-║-
;
#X text 851 55 ┌┐-┌─┐┌─┐┌─┐┬--┌─┐╦═╗╔╦╗
;
#X text 851 76 └─┘└─┘┴-┴└─┘┴─┘└─┘╩╚═-╩-
;
#X text 900 95 powered by heavy;
#X text 846 87 -------------------------;
#X text 887 120 http://beaglert.cc;
#X text 924 163 ============;
#N canvas 0 22 450 278 (subpatch) 0;
#X array midi 127 float 3;
#A 0 51.435 51.435 51.435 51.435 51.435 51.435 51.435 51.435 51.435
51.435 51.435 51.435 51.435 51.435 51.435 51.435 51.435 51.435 51.435
51.435 51.435 51.435 51.435 51.435 51.435 51.435 51.435 51.435 51.435
51.435 51.435 51.435 51.435 51.435 51.435 51.435 51.435 51.435 51.435
51.435 51.435 51.435 51.435 51.435 51.435 51.435 51.435 51.435 51.435
51.435 51.435 51.435 51.435 51.435 51.435 51.435 51.435 51.435 51.435
51.435 50.8 50.8 50.8 50.8 50.8 50.8 50.8 50.8 50.8 50.165 50.165 50.165
50.165 50.165 50.165 50.165 50.165 50.165 50.165 50.165 50.165 50.165
50.165 50.165 50.165 50.165 50.165 50.165 50.165 50.165 50.165 50.165
50.165 50.165 50.165 50.165 50.165 49.53 49.53 49.53 49.53 49.53 48.26
48.26 48.26 48.26 47.625 47.9425 48.26 48.26 48.26 48.26 48.26 48.26
48.26 48.26 48.26 48.26 48.26 48.26 48.26 48.26 48.26 48.26 48.26 48.26
47.625;
#X coords 0 0 127 127 200 200 1;
#X restore 848 -163 graph;
#X obj 459 -151 sig~;
#X obj 459 87 wrap~;
#N canvas 0 22 450 300 <~ 0;
#X obj 24 -60 -~;
#X obj 24 10 +~ 1e-37;
#X obj 24 -11 clip~ -1e-37 0;
#X obj 24 -105 inlet~;
#X obj 68 -104 inlet~;
#X obj 24 -81 max~;
#X obj 24 -36 *~ -1;
#X obj 24 62 outlet~;
#X obj 24 31 *~ 1e+37;
#X connect 0 0 6 0;
#X connect 1 0 8 0;
#X connect 2 0 1 0;
#X connect 3 0 5 0;
#X connect 4 0 0 1;
#X connect 4 0 5 1;
#X connect 5 0 0 0;
#X connect 6 0 2 0;
#X connect 8 0 7 0;
#X restore 459 143 pd <~;
#X obj 496 116 sig~ 0.5;
#X obj 459 172 *~ 1;
#X obj 586 -76 phasor~ 10;
#X obj 459 -8 /~ 44100;
#N canvas 0 22 450 300 <~ 0;
#X obj 24 -60 -~;
#X obj 24 10 +~ 1e-37;
#X obj 24 -11 clip~ -1e-37 0;
#X obj 24 -105 inlet~;
#X obj 68 -104 inlet~;
#X obj 24 -81 max~;
#X obj 24 -36 *~ -1;
#X obj 24 62 outlet~;
#X obj 24 31 *~ 1e+37;
#X connect 0 0 6 0;
#X connect 1 0 8 0;
#X connect 2 0 1 0;
#X connect 3 0 5 0;
#X connect 4 0 0 1;
#X connect 4 0 5 1;
#X connect 5 0 0 0;
#X connect 6 0 2 0;
#X connect 8 0 7 0;
#X restore 586 -18 pd <~;
#X obj 459 57 /~ 128;
#X obj 459 19 rpole~ 1;
#X obj 623 -46 sig~ 0.999;
#X obj 476 -117 /~ 128;
#X obj 459 201 s~ midimod1;
#X obj 225 -158 sig~ 1;
#X obj 225 -130 /~;
#X obj 225 -104 s~ period;
#X msg 66 -127 1 \$1;
#X obj 66 -99 /;
#X obj 66 -73 s _period;
#X obj 459 -205 loadbang;
#X text 924 153 techno world!;
#X msg 663 -104 0;
#X obj 663 -132 loadbang;
#X msg 459 -178 10;
#X obj 66 -186 loadbang;
#X msg 66 -159 10;
#N canvas 180 23 1500 984 drum-stuff 0;
#X obj 239 45 inlet~;
#X obj 340 164 wrap~;
#N canvas 0 22 450 300 <~ 0;
#X obj 24 -60 -~;
#X obj 24 10 +~ 1e-37;
#X obj 24 -11 clip~ -1e-37 0;
#X obj 24 -105 inlet~;
#X obj 68 -104 inlet~;
#X obj 24 -81 max~;
#X obj 24 -36 *~ -1;
#X obj 24 62 outlet~;
#X obj 24 31 *~ 1e+37;
#X connect 0 0 6 0;
#X connect 1 0 8 0;
#X connect 2 0 1 0;
#X connect 3 0 5 0;
#X connect 4 0 0 1;
#X connect 4 0 5 1;
#X connect 5 0 0 0;
#X connect 6 0 2 0;
#X connect 8 0 7 0;
#X restore 340 248 pd <~;
#X obj 365 205 sig~ 0.5;
#X obj 340 299 rzero~ 1;
#X obj 316 449 /~ 44100;
#X obj 315 476 rpole~ 1;
#X obj 342 349 *~ -1;
#X obj 342 381 +~ 1;
#X obj 315 499 +~ 1;
#X obj 340 324 abs~;
#X obj 323 551 *~;
#X obj 314 420 sig~ -10;
#X obj 316 522 clip~ 0 1;
#X obj 322 623 osc~;
#X obj 322 601 *~ 400;
#X text 376 627 kick;
#X obj 480 205 wrap~;
#N canvas 0 22 450 300 <~ 0;
#X obj 24 -60 -~;
#X obj 24 10 +~ 1e-37;
#X obj 24 -11 clip~ -1e-37 0;
#X obj 24 -105 inlet~;
#X obj 68 -104 inlet~;
#X obj 24 -81 max~;
#X obj 24 -36 *~ -1;
#X obj 24 62 outlet~;
#X obj 24 31 *~ 1e+37;
#X connect 0 0 6 0;
#X connect 1 0 8 0;
#X connect 2 0 1 0;
#X connect 3 0 5 0;
#X connect 4 0 0 1;
#X connect 4 0 5 1;
#X connect 5 0 0 0;
#X connect 6 0 2 0;
#X connect 8 0 7 0;
#X restore 480 248 pd <~;
#X obj 522 205 sig~ 0.5;
#X obj 480 299 rzero~ 1;
#X obj 456 452 /~ 44100;
#X obj 455 479 rpole~ 1;
#X obj 482 349 *~ -1;
#X obj 482 381 +~ 1;
#X obj 455 502 +~ 1;
#X obj 480 324 abs~;
#X obj 454 423 sig~ -10;
#X obj 456 525 clip~ 0 1;
#X obj 499 561 noise~;
#X obj 457 581 *~;
#X obj 456 555 *~;
#X obj 480 164 +~ 0.25;
#X obj 1008 446 samphold~;
#X obj 1008 422 noise~;
#X obj 948 201 wrap~;
#N canvas 0 22 450 300 <~ 0;
#X obj 24 -60 -~;
#X obj 24 10 +~ 1e-37;
#X obj 24 -11 clip~ -1e-37 0;
#X obj 24 -105 inlet~;
#X obj 68 -104 inlet~;
#X obj 24 -81 max~;
#X obj 24 -36 *~ -1;
#X obj 24 62 outlet~;
#X obj 24 31 *~ 1e+37;
#X connect 0 0 6 0;
#X connect 1 0 8 0;
#X connect 2 0 1 0;
#X connect 3 0 5 0;
#X connect 4 0 0 1;
#X connect 4 0 5 1;
#X connect 5 0 0 0;
#X connect 6 0 2 0;
#X connect 8 0 7 0;
#X restore 948 244 pd <~;
#X obj 1002 201 sig~ 0.5;
#X obj 948 297 rzero~ 1;
#X obj 948 349 *~ -1;
#X obj 948 381 +~ 1;
#X obj 948 322 abs~;
#X obj 948 145 +~ 0.25;
#X obj 1026 551 wrap~;
#X obj 1008 578 -~;
#X obj 1008 470 *~ 0.5;
#X obj 1008 495 +~ 0.5;
#X obj 990 714 /~;
#X obj 1008 603 +~ 1;
#X obj 480 127 /~;
#X obj 888 447 samphold~;
#X obj 888 423 noise~;
#X obj 906 552 wrap~;
#X obj 888 579 -~;
#X obj 888 471 *~ 0.5;
#X obj 888 496 +~ 0.5;
#X obj 874 715 /~;
#X obj 888 604 +~ 1;
#X obj 340 127 /~;
#X obj 1008 522 *~ 2;
#X text 514 654 hh;
#X obj 874 684 sig~ 8;
#X obj 239 205 wrap~;
#N canvas 0 22 450 300 <~ 0;
#X obj 24 -60 -~;
#X obj 24 10 +~ 1e-37;
#X obj 24 -11 clip~ -1e-37 0;
#X obj 24 -105 inlet~;
#X obj 68 -104 inlet~;
#X obj 24 -81 max~;
#X obj 24 -36 *~ -1;
#X obj 24 62 outlet~;
#X obj 24 31 *~ 1e+37;
#X connect 0 0 6 0;
#X connect 1 0 8 0;
#X connect 2 0 1 0;
#X connect 3 0 5 0;
#X connect 4 0 0 1;
#X connect 4 0 5 1;
#X connect 5 0 0 0;
#X connect 6 0 2 0;
#X connect 8 0 7 0;
#X restore 239 248 pd <~;
#X obj 282 205 sig~ 0.5;
#X obj 239 299 rzero~ 1;
#X obj 213 444 /~ 44100;
#X obj 212 471 rpole~ 1;
#X obj 239 349 *~ -1;
#X obj 239 381 +~ 1;
#X obj 212 494 +~ 1;
#X obj 239 324 abs~;
#X obj 211 415 sig~ -10;
#X obj 213 517 clip~ 0 1;
#X obj 219 618 osc~;
#X obj 239 164 +~ 0.25;
#X obj 146 583 noise~;
#X obj 126 608 *~;
#X text 273 622 snr;
#X obj 1001 267 sig~ 1;
#X obj 773 447 samphold~;
#X obj 773 423 noise~;
#X obj 791 552 wrap~;
#X obj 773 579 -~;
#X obj 773 471 *~ 0.5;
#X obj 773 496 +~ 0.5;
#X obj 755 715 /~;
#X obj 773 604 +~ 1;
#X obj 239 127 /~;
#X obj 948 120 /~ 8;
#X obj 773 523 *~ 2;
#X obj 888 523 *~ 1;
#X obj 755 684 sig~ 16;
#X obj 457 603 hip~ 18000;
#X obj 458 627 bp~ 12000 10;
#X obj 126 630 hip~ 1000;
#X obj 220 546 *~ 1;
#X obj 219 596 *~ 300;
#X obj 218 838 throw~ master;
#X obj 328 838 throw~ master;
#X obj 459 834 throw~ master;
#X obj 219 804 *~;
#X obj 328 807 *~;
#X obj 458 803 *~;
#X obj 990 683 sig~ 8;
#X floatatom 755 655 5 0 0 0 - - -, f 5;
#X obj 755 629 r snare-level;
#X floatatom 874 655 5 0 0 0 - - -, f 5;
#X floatatom 990 654 5 0 0 0 - - -, f 5;
#X obj 874 630 r kick-level;
#X obj 990 629 r hihat-level;
#X obj 241 724 tgl 15 0 empty empty empty 17 7 0 10 -262144 -1 -1 0
1;
#X obj 241 767 line~;
#X obj 241 699 r snare;
#X obj 479 732 tgl 15 0 empty empty empty 17 7 0 10 -262144 -1 -1 0
1;
#X obj 479 775 line~;
#X msg 479 751 \$1 1000;
#X obj 349 729 tgl 15 0 empty empty empty 17 7 0 10 -262144 -1 -1 0
1;
#X obj 349 772 line~;
#X obj 479 707 r hihats;
#X obj 349 704 r kick;
#X obj 322 645 *~ 1;
#X obj 219 669 *~ 0.3;
#X msg 349 748 \$1 3000;
#X msg 241 743 \$1 2000;
#X obj 458 652 *~ 0.6;
#X connect 0 0 88 0;
#X connect 0 0 58 0;
#X connect 0 0 49 0;
#X connect 0 0 89 0;
#X connect 1 0 2 0;
#X connect 2 0 4 0;
#X connect 3 0 2 1;
#X connect 4 0 10 0;
#X connect 5 0 6 0;
#X connect 6 0 9 0;
#X connect 7 0 8 0;
#X connect 8 0 6 1;
#X connect 9 0 13 0;
#X connect 10 0 7 0;
#X connect 11 0 15 0;
#X connect 12 0 5 0;
#X connect 13 0 11 1;
#X connect 13 0 11 0;
#X connect 14 0 121 0;
#X connect 15 0 14 0;
#X connect 17 0 18 0;
#X connect 18 0 20 0;
#X connect 19 0 18 1;
#X connect 20 0 26 0;
#X connect 21 0 22 0;
#X connect 22 0 25 0;
#X connect 23 0 24 0;
#X connect 24 0 22 1;
#X connect 25 0 28 0;
#X connect 26 0 23 0;
#X connect 27 0 21 0;
#X connect 28 0 31 0;
#X connect 28 0 31 1;
#X connect 29 0 30 1;
#X connect 30 0 93 0;
#X connect 31 0 30 0;
#X connect 32 0 17 0;
#X connect 33 0 45 0;
#X connect 34 0 33 0;
#X connect 35 0 36 0;
#X connect 36 0 38 0;
#X connect 37 0 36 1;
#X connect 38 0 41 0;
#X connect 39 0 40 0;
#X connect 40 0 33 1;
#X connect 40 0 50 1;
#X connect 40 0 80 1;
#X connect 41 0 39 0;
#X connect 42 0 35 0;
#X connect 43 0 44 1;
#X connect 44 0 48 0;
#X connect 45 0 46 0;
#X connect 46 0 59 0;
#X connect 47 0 49 1;
#X connect 48 0 47 1;
#X connect 49 0 32 0;
#X connect 50 0 54 0;
#X connect 51 0 50 0;
#X connect 52 0 53 1;
#X connect 53 0 57 0;
#X connect 54 0 55 0;
#X connect 55 0 91 0;
#X connect 56 0 58 1;
#X connect 57 0 56 1;
#X connect 58 0 1 0;
#X connect 59 0 43 0;
#X connect 59 0 44 0;
#X connect 61 0 56 0;
#X connect 62 0 63 0;
#X connect 63 0 65 0;
#X connect 64 0 63 1;
#X connect 65 0 71 0;
#X connect 66 0 67 0;
#X connect 67 0 70 0;
#X connect 68 0 69 0;
#X connect 69 0 67 1;
#X connect 70 0 73 0;
#X connect 71 0 68 0;
#X connect 72 0 66 0;
#X connect 73 0 96 0;
#X connect 74 0 122 0;
#X connect 75 0 62 0;
#X connect 76 0 77 1;
#X connect 77 0 95 0;
#X connect 79 0 38 1;
#X connect 79 0 20 1;
#X connect 79 0 4 1;
#X connect 79 0 65 1;
#X connect 80 0 84 0;
#X connect 81 0 80 0;
#X connect 82 0 83 1;
#X connect 83 0 87 0;
#X connect 84 0 85 0;
#X connect 85 0 90 0;
#X connect 86 0 88 1;
#X connect 87 0 86 1;
#X connect 88 0 75 0;
#X connect 89 0 42 0;
#X connect 90 0 82 0;
#X connect 90 0 83 0;
#X connect 91 0 52 0;
#X connect 91 0 53 0;
#X connect 92 0 86 0;
#X connect 93 0 94 0;
#X connect 94 0 125 0;
#X connect 95 0 122 0;
#X connect 96 0 77 0;
#X connect 96 0 97 0;
#X connect 97 0 74 0;
#X connect 101 0 98 0;
#X connect 102 0 99 0;
#X connect 103 0 100 0;
#X connect 104 0 47 0;
#X connect 105 0 92 0;
#X connect 106 0 105 0;
#X connect 107 0 61 0;
#X connect 108 0 104 0;
#X connect 109 0 107 0;
#X connect 110 0 108 0;
#X connect 111 0 124 0;
#X connect 112 0 101 1;
#X connect 113 0 111 0;
#X connect 114 0 116 0;
#X connect 115 0 103 1;
#X connect 116 0 115 0;
#X connect 117 0 123 0;
#X connect 118 0 102 1;
#X connect 119 0 114 0;
#X connect 120 0 117 0;
#X connect 121 0 102 0;
#X connect 122 0 101 0;
#X connect 123 0 118 0;
#X connect 124 0 112 0;
#X connect 125 0 103 0;
#X restore 332 60 pd drum-stuff;
#N canvas 0 23 656 817 synths 0;
#X obj 160 62 inlet~;
#X obj 160 462 osc~;
#X obj 160 273 -~;
#X obj 178 246 wrap~;
#X obj 160 310 tabread~ midi;
#X obj 160 419 mtof~;
#X obj 160 181 phasor~ 10;
#X obj 160 214 *~ 127;
#X obj 301 462 osc~;
#X obj 301 338 tabread~ midi;
#X obj 301 434 mtof~;
#X obj 301 234 wrap~;
#X obj 301 312 -~;
#X obj 319 284 wrap~;
#X obj 301 212 +~ 0.75;
#X obj 160 143 /~ 8;
#X obj 160 387 +~;
#X obj 301 401 +~;
#X obj 206 355 r~ midimod1;
#X obj 160 497 *~ 0.1;
#X obj 301 491 *~ 0.1;
#X obj 301 256 *~ 122;
#X obj 301 367 +~ 12;
#X obj 160 344 +~ 12;
#X obj 160 743 throw~ master;
#X obj 301 743 throw~ master;
#X obj 160 714 *~;
#X obj 178 640 tgl 15 0 empty empty empty 17 7 0 10 -262144 -1 -1 0
1;
#X obj 301 714 *~;
#X obj 319 642 tgl 15 0 empty empty empty 17 7 0 10 -262144 -1 -1 0
1;
#X msg 227 149 0;
#X obj 227 120 loadbang;
#X obj 178 615 r synth1;
#X obj 319 617 r synth2;
#X obj 319 687 line~;
#X obj 178 687 line~;
#X msg 178 663 \$1 3000;
#X msg 319 663 \$1 6000;
#X connect 0 0 15 0;
#X connect 1 0 19 0;
#X connect 2 0 4 0;
#X connect 3 0 2 1;
#X connect 4 0 23 0;
#X connect 5 0 1 0;
#X connect 6 0 7 0;
#X connect 6 0 14 0;
#X connect 7 0 3 0;
#X connect 7 0 2 0;
#X connect 8 0 20 0;
#X connect 9 0 22 0;
#X connect 10 0 8 0;
#X connect 11 0 21 0;
#X connect 12 0 9 0;
#X connect 13 0 12 1;
#X connect 14 0 11 0;
#X connect 15 0 6 0;
#X connect 16 0 5 0;
#X connect 17 0 10 0;
#X connect 18 0 16 1;
#X connect 18 0 17 1;
#X connect 19 0 26 0;
#X connect 20 0 28 0;
#X connect 21 0 12 0;
#X connect 21 0 13 0;
#X connect 22 0 17 0;
#X connect 23 0 16 0;
#X connect 26 0 24 0;
#X connect 27 0 36 0;
#X connect 28 0 25 0;
#X connect 29 0 37 0;
#X connect 30 0 6 1;
#X connect 31 0 30 0;
#X connect 32 0 27 0;
#X connect 33 0 29 0;
#X connect 34 0 28 1;
#X connect 35 0 26 1;
#X connect 36 0 35 0;
#X connect 37 0 34 0;
#X restore 242 56 pd synths;
#N canvas 0 23 674 893 crasy-synth 0;
#X obj 226 471 phasor~ 5;
#X obj 160 118 samphold~;
#X obj 160 93 noise~;
#X obj 220 93 phasor~ 10;
#N canvas 0 22 143 172 >~ 0;
#X obj 18 -59 -~;
#X obj 18 -80 min~;
#X obj 18 4 *~ 1e+37;
#X obj 18 -17 +~ 1e-37;
#X obj 18 -38 clip~ -1e-37 0;
#X obj 18 -105 inlet~;
#X obj 61 -105 inlet~;
#X obj 18 26 outlet~;
#X connect 0 0 4 0;
#X connect 1 0 0 0;
#X connect 2 0 7 0;
#X connect 3 0 2 0;
#X connect 4 0 3 0;
#X connect 5 0 1 0;
#X connect 6 0 0 1;
#X connect 6 0 1 1;
#X restore 226 501 pd >~;
#X obj 160 147 *~ 0.5;
#X obj 160 169 +~ 0.5;
#X obj 160 203 *~ 1000;
#X obj 226 531 vcf~ 10;
#X obj 244 254 wrap~;
#X obj 226 283 -~;
#X obj 226 313 tabread~ midi;
#X obj 245 347 wrap~;
#X obj 226 370 -~;
#X obj 226 198 *~ 127;
#X obj 226 220 +~ 0;
#X obj 226 443 mtof~;
#X obj 226 407 +~;
#X msg 287 63 0;
#X obj 226 605 *~ 0.5;
#X obj 315 497 delread~ _del 100;
#X obj 315 607 delwrite~ _del 500;
#X obj 315 442 r _period;
#X obj 315 469 * 4000;
#X obj 315 523 lop~ 1000;
#X obj 315 547 *~ 0.85;
#X obj 227 779 throw~ master;
#X obj 227 750 *~;
#X obj 245 679 tgl 15 0 empty empty empty 17 7 0 10 -262144 -1 -1 0
1;
#X obj 287 35 loadbang;
#X obj 245 654 r synth3;
#X obj 245 722 line~;
#X msg 245 698 \$1 10000;
#X obj 259 373 r~ midimod1;
#X connect 0 0 4 0;
#X connect 1 0 5 0;
#X connect 2 0 1 0;
#X connect 3 0 1 1;
#X connect 4 0 8 0;
#X connect 5 0 6 0;
#X connect 6 0 4 1;
#X connect 6 0 7 0;
#X connect 6 0 14 0;
#X connect 7 0 8 1;
#X connect 8 0 19 0;
#X connect 8 0 21 0;
#X connect 9 0 10 1;
#X connect 10 0 11 0;
#X connect 11 0 12 0;
#X connect 11 0 13 0;
#X connect 12 0 13 1;
#X connect 13 0 17 0;
#X connect 14 0 15 0;
#X connect 15 0 9 0;
#X connect 15 0 10 0;
#X connect 16 0 0 0;
#X connect 17 0 16 0;
#X connect 18 0 3 1;
#X connect 19 0 27 0;
#X connect 20 0 24 0;
#X connect 22 0 23 0;
#X connect 23 0 20 0;
#X connect 24 0 25 0;
#X connect 25 0 21 0;
#X connect 25 0 19 0;
#X connect 27 0 26 0;
#X connect 28 0 32 0;
#X connect 29 0 18 0;
#X connect 30 0 28 0;
#X connect 31 0 27 1;
#X connect 32 0 31 0;
#X connect 33 0 17 1;
#X restore 95 62 pd crasy-synth;
#X connect 8 0 14 0;
#X connect 8 0 19 0;
#X connect 8 0 22 1;
#X connect 8 0 35 0;
#X connect 9 0 10 0;
#X connect 10 0 12 0;
#X connect 11 0 10 1;
#X connect 12 0 20 0;
#X connect 13 0 15 0;
#X connect 14 0 17 0;
#X connect 15 0 17 1;
#X connect 16 0 9 0;
#X connect 17 0 16 0;
#X connect 17 0 34 0;
#X connect 18 0 15 1;
#X connect 19 0 13 0;
#X connect 21 0 22 0;
#X connect 22 0 23 0;
#X connect 24 0 25 0;
#X connect 25 0 26 0;
#X connect 27 0 31 0;
#X connect 29 0 13 1;
#X connect 30 0 29 0;
#X connect 31 0 8 0;
#X connect 32 0 33 0;
#X connect 33 0 24 0;
#X restore 80 309 pd techno-world;
#X obj 704 326 tgl 15 0 empty empty empty 17 7 0 10 -262144 -1 -1 0
1;
#X obj 612 326 tgl 15 0 empty empty empty 17 7 0 10 -262144 -1 -1 0
1;
#X obj 881 326 tgl 15 0 empty empty empty 17 7 0 10 -262144 -1 -1 0
1;
#X obj 960 326 tgl 15 0 empty empty empty 17 7 0 10 -262144 -1 -1 0
1;
#X obj 1040 326 tgl 15 0 empty empty empty 17 7 0 10 -262144 -1 -1
0 1;
#X obj 704 350 s kick;
#X obj 612 350 s snare;
#X obj 881 350 s synth1;
#X obj 1040 350 s synth3;
#X obj 960 350 s synth2;
#X obj 131 412 *~;
#X text 74 278 The sequencer-synth:;
#X text 72 13 Sverm-Puls: patch for Bela-controlled guitars;
#X text 73 27 =======;
#X obj 509 326 tgl 15 0 empty empty empty 17 7 0 10 -262144 -1 -1 0
1;
#X obj 509 350 s hihats;
#X obj 809 491 s snare-level;
#X obj 930 491 s kick-level;
#X obj 679 491 s hihat-level;
#X floatatom 809 467 5 0 0 0 - - -, f 5;
#X floatatom 930 467 5 0 0 0 - - -, f 5;
#X floatatom 679 467 5 0 0 0 - - -, f 5;
#X obj 77 139 tgl 15 0 empty empty empty 17 7 0 10 -262144 -1 -1 0
1;
#X msg 960 285 1;
#X msg 1040 285 1;
#X obj 77 111 change;
#X obj 99 140 print start;
#X floatatom 691 107 5 0 0 0 - - -, f 5;
#X obj 691 136 == 10;
#X obj 691 54 tgl 15 0 empty empty empty 17 7 0 10 -262144 -1 -1 0
1;
#X obj 690 165 sel 1;
#X obj 749 165 sel 1;
#X obj 804 165 sel 1;
#X obj 862 165 sel 1;
#X obj 749 136 == 20;
#X obj 804 136 == 30;
#X obj 862 136 == 40;
#X obj 919 165 sel 1;
#X obj 977 165 sel 1;
#X obj 919 136 == 50;
#X obj 977 136 == 60;
#X obj 641 165 sel 1;
#X obj 641 136 == 1;
#X msg 462 285 16;
#X msg 500 285 1;
#X msg 615 285 16;
#X msg 661 285 1;
#X msg 582 285 8;
#X msg 741 285 16;
#X msg 787 285 1;
#X msg 708 285 8;
#X msg 830 285 8;
#X msg 881 285 1;
#X msg 491 177 0;
#X obj 453 139 select 1 0;
#N canvas 0 23 299 322 random-lfo 0;
#X obj 89 39 loadbang;
#X obj 89 70 random 100;
#X obj 89 128 / 5000;
#X obj 177 73 bng 15 250 50 0 empty empty empty 17 7 0 10 -262144 -1
-1;
#X obj 89 161 + 0.05;
#X obj 89 193 phasor~ 0.05;
#X obj 89 222 lop~ 0.05;
#X floatatom 89 100 5 0 0 0 - - -, f 5;
#X obj 89 264 outlet~;
#X connect 0 0 1 0;
#X connect 1 0 7 0;
#X connect 2 0 4 0;
#X connect 3 0 1 0;
#X connect 4 0 5 0;
#X connect 5 0 6 0;
#X connect 6 0 8 0;
#X connect 7 0 2 0;
#X restore 207 367 pd random-lfo;
#N canvas 0 23 450 300 IR-sensor-input 0;
#X obj 110 93 lop~ 100;
#X obj 110 198 snapshot~;
#X obj 126 138 loadbang;
#X obj 126 166 metro 1000;
#X obj 110 230 > 0.2;
#X obj 110 34 adc~ 8;
#X obj 141 63 dac~ 27;
#X text 170 31 Reading IR sensor;
#X text 203 62 Sending to Bela oscilloscope;
#X obj 110 262 outlet;
#X connect 0 0 1 0;
#X connect 1 0 4 0;
#X connect 2 0 3 0;
#X connect 3 0 1 0;
#X connect 4 0 9 0;
#X connect 5 0 0 0;
#X connect 5 0 6 0;
#X restore 77 79 pd IR-sensor-input;
#N canvas 0 23 450 300 clocker 0;
#X obj 94 68 tgl 15 0 empty empty empty 17 7 0 10 -262144 -1 -1 0 1
;
#X obj 95 139 bng 25 250 50 0 empty empty empty 17 7 0 10 -262144 -1
-1;
#X obj 131 144 sel 1;
#X floatatom 131 199 5 0 0 0 - - -, f 5;
#X obj 94 88 t f f;
#X obj 95 114 metro 1 60 permin;
#X obj 131 174 timer 60 permin;
#X obj 94 36 inlet;
#X obj 131 227 outlet;
#X connect 0 0 4 0;
#X connect 1 0 6 1;
#X connect 2 0 6 0;
#X connect 3 0 8 0;
#X connect 4 0 5 0;
#X connect 4 1 2 0;
#X connect 5 0 1 0;
#X connect 6 0 3 0;
#X connect 7 0 0 0;
#X restore 691 78 pd clocker;
#X obj 453 79 loadbang;
#X msg 453 108 0;
#X obj 1038 165 sel 1;
#X obj 1096 165 sel 1;
#X msg 1087 285 4;
#X msg 1145 283 4;
#X obj 1038 136 == 80;
#X obj 1096 136 == 100;
#X obj 1160 165 sel 1;
#X obj 1160 136 == 100;
#X msg 1209 283 2;
#X msg 394 284 1024;
#X connect 1 0 13 0;
#X connect 3 0 8 0;
#X connect 4 0 9 0;
#X connect 5 0 10 0;
#X connect 6 0 12 0;
#X connect 7 0 11 0;
#X connect 13 0 0 0;
#X connect 13 0 0 1;
#X connect 17 0 18 0;
#X connect 22 0 19 0;
#X connect 23 0 20 0;
#X connect 24 0 21 0;
#X connect 25 0 32 0;
#X connect 26 0 6 0;
#X connect 27 0 7 0;
#X connect 28 0 25 0;
#X connect 28 0 29 0;
#X connect 30 0 31 0;
#X connect 30 0 37 0;
#X connect 30 0 38 0;
#X connect 30 0 39 0;
#X connect 30 0 42 0;
#X connect 30 0 43 0;
#X connect 30 0 45 0;
#X connect 30 0 67 0;
#X connect 30 0 68 0;
#X connect 30 0 70 0;
#X connect 31 0 33 0;
#X connect 32 0 57 0;
#X connect 32 0 60 0;
#X connect 33 0 49 0;
#X connect 33 0 48 0;
#X connect 33 0 50 0;
#X connect 34 0 52 0;
#X connect 34 0 51 0;
#X connect 34 0 53 0;
#X connect 35 0 54 0;
#X connect 36 0 55 0;
#X connect 37 0 34 0;
#X connect 38 0 35 0;
#X connect 39 0 36 0;
#X connect 40 0 26 0;
#X connect 41 0 27 0;
#X connect 42 0 40 0;
#X connect 43 0 41 0;
#X connect 44 0 47 0;
#X connect 44 0 46 0;
#X connect 45 0 44 0;
#X connect 46 0 24 0;
#X connect 47 0 17 0;
#X connect 48 0 22 0;
#X connect 49 0 4 0;
#X connect 50 0 24 0;
#X connect 51 0 23 0;
#X connect 52 0 3 0;
#X connect 53 0 22 0;
#X connect 54 0 23 0;
#X connect 55 0 5 0;
#X connect 56 0 4 0;
#X connect 56 0 3 0;
#X connect 56 0 5 0;
#X connect 56 0 6 0;
#X connect 56 0 7 0;
#X connect 57 1 56 0;
#X connect 57 1 72 0;
#X connect 58 0 13 1;
#X connect 59 0 28 0;
#X connect 60 0 30 0;
#X connect 61 0 62 0;
#X connect 62 0 57 0;
#X connect 63 0 65 0;
#X connect 64 0 66 0;
#X connect 65 0 24 0;
#X connect 66 0 22 0;
#X connect 67 0 63 0;
#X connect 68 0 64 0;
#X connect 69 0 71 0;
#X connect 70 0 69 0;
#X connect 71 0 24 0;
#X connect 72 0 24 0;
