#N canvas 0 22 450 300 10;
#X obj 60 106 snapshot~;
#X obj 128 51 loadbang;
#X obj 128 73 metro 100;
#X text 147 185 outputs 0-1 10Hz;
#X obj 63 161 outlet;
#X obj 53 65 -~ 0.5;
#X obj 46 16 adc~ 4;
#X connect 0 0 4 0;
#X connect 1 0 2 0;
#X connect 2 0 0 0;
#X connect 5 0 0 0;
#X connect 6 0 5 0;
