#N canvas 424 41 1016 644 12;
#X obj 96 355 dac~;
#X obj 534 107 lop~ 100;
#X obj 534 268 snapshot~;
#X obj 533 212 loadbang;
#X obj 533 240 metro 1000;
#X obj 405 336 > 0.2;
#X obj 99 317 *~;
#X obj 567 72 adc~ 8;
#X text 627 69 Reading IR sensor;
#X text 127 65 The sequencer-synth:;
#X text 72 13 Sverm-Puls: patch for Bela-controlled guitars;
#X text 73 27 =======;
#X obj 402 548 s hihat-level;
#X obj 402 455 select 1 0;
#X obj 722 268 s~ midimod1;
#X obj 817 267 s~ midimod2;
#X obj 722 218 *~ 24;
#X obj 722 242 -~ 12;
#X text 725 187 pitch shift of techno synths;
#X obj 774 397 s~ drumpitch;
#X text 773 322 pitch shift drums;
#X obj 518 72 sig~;
#X obj 461 23 vsl 15 128 0 1 0 0 empty empty empty 0 -9 0 10 -262144
-1 -1 10160 1;
#X floatatom 462 168 5 0 0 0 - - -, f 5;
#X obj 406 365 change;
#X obj 427 390 s presence;
#X obj 534 135 *~ 1;
#X obj 584 136 dac~ 27 28 29 30;
#X obj 774 373 +~ 50;
#X obj 774 349 *~ 150;
#X obj 133 96 techno-world;
#X obj 670 544 s snare-level;
#N canvas 716 57 168 259 pulsing 0;
#X obj 39 213 outlet~;
#X obj 35 22 loadbang;
#X obj 39 52 random 100;
#X obj 39 92 / 5000;
#X obj 110 23 bng 15 250 50 0 empty empty empty 17 7 0 10 -262144 -1
-1;
#X obj 39 125 + 0.05;
#X obj 39 157 phasor~ 0.05;
#X obj 39 186 lop~ 0.05;
#X connect 1 0 2 0;
#X connect 2 0 3 0;
#X connect 3 0 5 0;
#X connect 4 0 2 0;
#X connect 5 0 6 0;
#X connect 6 0 7 0;
#X connect 7 0 0 0;
#X restore 133 317 pd pulsing;
#X obj 817 216 *~ 24;
#X obj 817 241 +~ 0;
#X obj 155 266 stand_volume 80;
#X obj 148 148 stand_volume 50;
#X obj 151 207 stand_volume 70;
#X obj 153 238 stand_volume 20;
#X obj 429 425 tgl 15 0 empty empty empty 17 7 0 10 -262144 -1 -1 0
1;
#X obj 661 333 change;
#X obj 309 208 r presence;
#X obj 301 149 r presence2;
#X obj 535 340 change;
#X obj 535 365 s presence2;
#X obj 673 361 s presence3;
#X obj 535 315 > 0.5;
#X obj 660 307 > 0.7;
#X obj 305 179 r presence3;
#X obj 311 239 r presence;
#X obj 313 267 r presence2;
#X obj 539 404 tgl 15 0 empty empty empty 17 7 0 10 -262144 -1 -1 0
1;
#X obj 655 378 tgl 15 0 empty empty empty 17 7 0 10 -262144 -1 -1 0
1;
#X obj 401 521 line;
#X msg 372 488 80 3000;
#X obj 688 445 select 1 0;
#X obj 687 511 line;
#X msg 658 478 30 15000;
#X msg 732 478 1 3000;
#X obj 181 397 stand_volume 60;
#X obj 256 372 r presence3;
#X obj 146 177 stand_volume 20;
#X obj 829 441 select 1 0;
#X obj 828 507 line;
#X msg 873 474 1 3000;
#X obj 811 540 s stringfreq;
#X obj 198 376 *~ 0.3;
#X msg 442 488 1 3000;
#X msg 799 474 85 60000;
#X text 525 34 change to fader for testing!;
#X msg 357 69 0.8;
#X obj 357 44 loadbang;
#X connect 1 0 26 0;
#X connect 1 0 27 0;
#X connect 2 0 5 0;
#X connect 2 0 46 0;
#X connect 2 0 47 0;
#X connect 3 0 4 0;
#X connect 4 0 2 0;
#X connect 5 0 24 0;
#X connect 6 0 0 0;
#X connect 6 0 0 1;
#X connect 7 0 1 0;
#X connect 13 0 54 0;
#X connect 13 1 67 0;
#X connect 16 0 17 0;
#X connect 17 0 14 0;
#X connect 22 0 21 0;
#X connect 22 0 23 0;
#X connect 24 0 25 0;
#X connect 24 0 13 0;
#X connect 24 0 39 0;
#X connect 26 0 2 0;
#X connect 26 0 16 0;
#X connect 26 0 29 0;
#X connect 26 0 33 0;
#X connect 28 0 19 0;
#X connect 29 0 28 0;
#X connect 30 0 36 0;
#X connect 30 1 61 0;
#X connect 30 2 37 0;
#X connect 30 3 38 0;
#X connect 30 4 35 0;
#X connect 30 5 6 0;
#X connect 30 6 59 0;
#X connect 30 6 66 0;
#X connect 32 0 6 1;
#X connect 33 0 34 0;
#X connect 34 0 15 0;
#X connect 35 0 6 0;
#X connect 36 0 6 0;
#X connect 37 0 6 0;
#X connect 38 0 6 0;
#X connect 40 0 45 0;
#X connect 40 0 52 0;
#X connect 40 0 55 0;
#X connect 40 0 62 0;
#X connect 41 0 37 1;
#X connect 42 0 36 1;
#X connect 43 0 44 0;
#X connect 43 0 51 0;
#X connect 46 0 43 0;
#X connect 47 0 40 0;
#X connect 48 0 61 1;
#X connect 49 0 38 1;
#X connect 50 0 35 1;
#X connect 53 0 12 0;
#X connect 54 0 53 0;
#X connect 55 0 57 0;
#X connect 55 1 58 0;
#X connect 56 0 31 0;
#X connect 57 0 56 0;
#X connect 58 0 56 0;
#X connect 59 0 6 0;
#X connect 60 0 59 1;
#X connect 61 0 6 0;
#X connect 62 0 68 0;
#X connect 62 1 64 0;
#X connect 63 0 65 0;
#X connect 64 0 63 0;
#X connect 66 0 6 0;
#X connect 67 0 53 0;
#X connect 68 0 63 0;
#X connect 70 0 22 0;
#X connect 71 0 70 0;
