#N canvas 59 22 1680 979 12;
#X obj 516 547 dac~;
#N canvas 85 22 1663 978 techno-world 0;
#X text 1251 -209 ├┴┐├┤-├─┤│-┬│--├┤-╠╦╝-║-
;
#X text 1251 -221 ┌┐-┌─┐┌─┐┌─┐┬--┌─┐╦═╗╔╦╗
;
#X text 1251 -200 └─┘└─┘┴-┴└─┘┴─┘└─┘╩╚═-╩-
;
#X text 1300 -181 powered by heavy;
#X text 1246 -189 -------------------------;
#X text 1287 -156 http://beaglert.cc;
#X text 1324 -113 ============;
#X obj 331 365 phasor~ 5;
#X obj 265 12 samphold~;
#X obj 265 -13 noise~;
#X obj 325 -13 phasor~ 10;
#N canvas 0 22 143 172 >~ 0;
#X obj 18 -59 -~;
#X obj 18 -80 min~;
#X obj 18 4 *~ 1e+37;
#X obj 18 -17 +~ 1e-37;
#X obj 18 -38 clip~ -1e-37 0;
#X obj 18 -105 inlet~;
#X obj 61 -105 inlet~;
#X obj 18 26 outlet~;
#X connect 0 0 4 0;
#X connect 1 0 0 0;
#X connect 2 0 7 0;
#X connect 3 0 2 0;
#X connect 4 0 3 0;
#X connect 5 0 1 0;
#X connect 6 0 0 1;
#X connect 6 0 1 1;
#X restore 331 395 pd >~;
#X obj 265 41 *~ 0.5;
#X obj 265 63 +~ 0.5;
#X obj 265 97 *~ 1000;
#X obj 331 425 vcf~ 10;
#X obj 349 148 wrap~;
#X obj 331 177 -~;
#N canvas 0 22 450 278 (subpatch) 0;
#X array midi 127 float 3;
#A 0 51.435 51.435 51.435 51.435 51.435 51.435 51.435 51.435 51.435
51.435 51.435 51.435 51.435 51.435 51.435 51.435 51.435 51.435 51.435
51.435 51.435 51.435 51.435 51.435 51.435 51.435 51.435 51.435 51.435
51.435 51.435 51.435 51.435 51.435 51.435 51.435 51.435 51.435 51.435
51.435 51.435 51.435 51.435 51.435 51.435 51.435 51.435 51.435 51.435
51.435 51.435 51.435 51.435 51.435 51.435 51.435 51.435 51.435 51.435
51.435 50.8 50.8 50.8 50.8 50.8 50.8 50.8 50.8 50.8 50.165 50.165 50.165
50.165 50.165 50.165 50.165 50.165 50.165 50.165 50.165 50.165 50.165
50.165 50.165 50.165 50.165 50.165 50.165 50.165 50.165 50.165 50.165
50.165 50.165 50.165 50.165 50.165 49.53 49.53 49.53 49.53 49.53 48.26
48.26 48.26 48.26 47.625 47.9425 48.26 48.26 48.26 48.26 48.26 48.26
48.26 48.26 48.26 48.26 48.26 48.26 48.26 48.26 48.26 48.26 48.26 48.26
47.625;
#X coords 0 0 127 127 200 200 1;
#X restore 874 -233 graph;
#X obj 331 207 tabread~ midi;
#X obj 350 241 wrap~;
#X obj 331 264 -~;
#X obj 331 92 *~ 127;
#X obj 331 114 +~ 0;
#X obj 459 -151 sig~;
#X obj 331 337 mtof~;
#X obj 331 301 +~;
#X obj 586 -76 phasor~ 10;
#X obj 459 -8 /~ 44100;
#N canvas 0 22 450 300 <~ 0;
#X obj 24 -60 -~;
#X obj 24 10 +~ 1e-37;
#X obj 24 -11 clip~ -1e-37 0;
#X obj 24 -105 inlet~;
#X obj 68 -104 inlet~;
#X obj 24 -81 max~;
#X obj 24 -36 *~ -1;
#X obj 24 62 outlet~;
#X obj 24 31 *~ 1e+37;
#X connect 0 0 6 0;
#X connect 1 0 8 0;
#X connect 2 0 1 0;
#X connect 3 0 5 0;
#X connect 4 0 0 1;
#X connect 4 0 5 1;
#X connect 5 0 0 0;
#X connect 6 0 2 0;
#X connect 8 0 7 0;
#X restore 586 -18 pd <~;
#X msg 392 -43 0;
#X obj 459 19 rpole~ 1;
#X obj 618 -46 sig~ 0.999;
#X obj 476 -117 /~ 128;
#X obj 331 499 *~ 0.5;
#X obj 48 392 osc~;
#X obj 48 203 -~;
#X obj 66 176 wrap~;
#X obj 48 240 tabread~ midi;
#X obj 48 349 mtof~;
#X obj 48 111 phasor~ 10;
#X obj 48 144 *~ 127;
#X obj 189 392 osc~;
#X obj 189 268 tabread~ midi;
#X obj 189 364 mtof~;
#X obj 189 164 wrap~;
#X obj 189 242 -~;
#X obj 207 214 wrap~;
#X obj 189 142 +~ 0.75;
#X obj 48 73 /~ 8;
#X obj 48 317 +~;
#X obj 189 331 +~;
#X obj 94 285 r~ midimod1;
#X obj 48 427 *~ 0.1;
#X obj 189 421 *~ 0.1;
#X obj 309 -155 sig~ 1;
#X obj 309 -127 /~;
#X obj 309 -101 s~ period;
#X msg 66 -127 1 \$1;
#X obj 66 -99 /;
#X obj 66 -73 s _period;
#X obj 189 186 *~ 122;
#X obj 459 -205 loadbang;
#X obj 420 391 delread~ _del 100;
#X obj 420 501 delwrite~ _del 500;
#X obj 420 336 r _period;
#X obj 420 363 * 4000;
#X obj 420 417 lop~ 1000;
#X obj 420 441 *~ 0.85;
#X text 1324 -123 techno world!;
#X obj 189 297 +~ 12;
#X obj 48 274 +~ 12;
#X obj 48 644 *~;
#X obj 66 570 tgl 15 0 empty empty empty 17 7 0 10 -262144 -1 -1 1
1;
#X obj 189 644 *~;
#X obj 207 572 tgl 15 0 empty empty empty 17 7 0 10 -262144 -1 -1 1
1;
#X obj 332 644 *~;
#X obj 350 573 tgl 15 0 empty empty empty 17 7 0 10 -262144 -1 -1 1
1;
#X obj 392 -71 loadbang;
#X msg 115 79 0;
#X obj 115 50 loadbang;
#X msg 653 -104 0;
#X obj 653 -132 loadbang;
#X obj 66 545 r synth1;
#X obj 207 547 r synth2;
#X obj 350 548 r synth3;
#X floatatom 1069 284 5 0 0 0 - - -, f 5;
#X obj 1069 258 r snare-level;
#X floatatom 1169 284 5 0 0 0 - - -, f 5;
#X obj 1169 259 r kick-level;
#X obj 941 84 r hihat-level;
#X msg 459 -178 10;
#X obj 66 -186 loadbang;
#X msg 66 -159 10;
#X obj 350 616 line~;
#X obj 207 617 line~;
#X obj 66 617 line~;
#X msg 66 593 \$1 30000;
#X msg 207 593 \$1 3000;
#X msg 350 592 \$1 20000;
#X obj 372 273 r~ midimod2;
#X obj 837 362 r~ drumpitch;
#X obj 665 513 outlet~;
#X obj 802 505 outlet~;
#X obj 928 507 outlet~;
#X obj 48 673 outlet~;
#X obj 189 673 outlet~;
#X obj 332 673 outlet~;
#X obj 927 461 *~ 1;
#X obj 802 474 *~ 1;
#X obj 666 479 *~ 1;
#X obj 716 39 loadbang;
#N canvas 39 200 578 668 bd 0;
#X obj 110 399 *~;
#X obj 128 370 osc~;
#X obj 127 348 +~ 50;
#X obj 111 277 c_ead 1 400;
#X obj 111 56 inlet;
#X obj 193 241 switch~;
#X msg 193 218 1;
#X msg 225 218 0;
#X obj 109 465 outlet~;
#X obj 111 138 t b b b;
#X obj 225 199 delay 450;
#X obj 111 86 route bang float;
#X obj 285 163 + 50;
#X obj 111 110 t b b;
#X msg 191 136 400;
#X obj 165 108 t b a;
#X obj 126 323 *~;
#X obj 354 47 inlet~;
#X connect 0 0 8 0;
#X connect 1 0 0 1;
#X connect 2 0 1 0;
#X connect 3 0 0 0;
#X connect 3 0 16 0;
#X connect 4 0 11 0;
#X connect 6 0 5 0;
#X connect 7 0 5 0;
#X connect 9 0 3 0;
#X connect 9 1 6 0;
#X connect 9 2 10 0;
#X connect 10 0 7 0;
#X connect 11 0 13 0;
#X connect 11 1 15 0;
#X connect 12 0 10 1;
#X connect 13 0 9 0;
#X connect 13 1 14 0;
#X connect 14 0 12 0;
#X connect 14 0 3 2;
#X connect 15 0 9 0;
#X connect 15 1 12 0;
#X connect 15 1 3 2;
#X connect 16 0 2 0;
#X connect 17 0 16 1;
#X restore 664 434 pd bd;
#N canvas 358 22 963 800 sn 0;
#X obj 301 28 inlet;
#X obj 383 273 switch~;
#X msg 383 250 1;
#X msg 415 250 0;
#X obj 300 676 outlet~;
#X obj 301 170 t b b b;
#X obj 415 231 delay 450;
#X floatatom 388 307 5 0 0 1 decay - -, f 5;
#X obj 300 604 *~;
#X obj 465 437 osc~;
#X obj 301 332 c_ead 3 200;
#X obj 514 439 phasor~;
#X obj 463 390 *~ 400;
#X obj 464 415 +~ 200;
#X floatatom 518 390 5 0 0 0 - - -, f 5;
#X floatatom 441 337 5 0 0 0 - - -, f 5;
#X floatatom 352 414 5 0 0 0 - - -, f 5;
#X floatatom 398 416 5 0 0 0 - - -, f 5;
#X obj 466 503 *~ 0.3;
#X obj 515 417 +~ 600;
#X obj 318 440 bp~ 5000 3;
#X obj 301 636 *~ 1.8;
#X obj 523 504 osc~ 330;
#X obj 466 532 *~;
#X floatatom 523 482 5 0 0 0 - - -, f 5;
#X floatatom 565 392 5 0 0 0 - - -, f 5;
#X obj 317 467 *~ 1.5;
#X obj 301 83 route bang float;
#X obj 475 160 + 50;
#X obj 301 107 t b b;
#X msg 370 144 200;
#X obj 355 107 t b a;
#X obj 319 392 noise~;
#X connect 0 0 27 0;
#X connect 2 0 1 0;
#X connect 3 0 1 0;
#X connect 5 0 10 0;
#X connect 5 1 2 0;
#X connect 5 2 6 0;
#X connect 6 0 3 0;
#X connect 7 0 10 2;
#X connect 8 0 21 0;
#X connect 9 0 18 0;
#X connect 10 0 8 0;
#X connect 10 0 12 0;
#X connect 11 0 18 0;
#X connect 12 0 13 0;
#X connect 12 0 19 0;
#X connect 13 0 9 0;
#X connect 14 0 13 1;
#X connect 15 0 12 1;
#X connect 16 0 20 1;
#X connect 17 0 20 2;
#X connect 18 0 23 0;
#X connect 19 0 11 0;
#X connect 20 0 26 0;
#X connect 21 0 4 0;
#X connect 22 0 23 1;
#X connect 23 0 8 1;
#X connect 24 0 22 0;
#X connect 25 0 19 1;
#X connect 26 0 23 0;
#X connect 27 0 29 0;
#X connect 27 1 31 0;
#X connect 28 0 6 1;
#X connect 29 0 5 0;
#X connect 29 1 30 0;
#X connect 30 0 28 0;
#X connect 30 0 10 2;
#X connect 31 0 5 0;
#X connect 31 1 28 0;
#X connect 31 1 10 2;
#X connect 32 0 20 0;
#X restore 792 429 pd sn;
#N canvas 343 22 993 683 hh 0;
#X obj 548 275 clip~ -1 1;
#X obj 548 198 bp~ 8906 1.437;
#X obj 548 220 bp~ 8906 1.437;
#X obj 548 178 hip~ 8000;
#X obj 64 424 *~;
#X obj 65 248 c_ead 3 100;
#N canvas 0 22 744 501 squarebattery 0;
#X obj 346 142 *~ 0.7;
#X obj 105 124 *~ 0.9;
#X obj 105 79 * 210;
#X obj 345 94 * 540;
#X obj 462 104 * 550;
#X obj 569 103 * 800;
#X obj 269 92 * 380;
#X obj 187 91 * 320;
#X obj 105 404 outlet~;
#X obj 105 11 inlet;
#X text 151 13 tuning;
#N canvas 0 22 438 462 square 0;
#X obj 132 215 -~ 0.5;
#X obj 42 197 wrap~;
#X obj 42 220 -~ 0.5;
#X obj 42 175 -~ 0.5;
#X obj 42 289 -~;
#X obj 42 317 outlet~;
#X obj 42 94 phasor~;
#X obj 42 64 inlet;
#X connect 0 0 4 1;
#X connect 1 0 2 0;
#X connect 2 0 4 0;
#X connect 3 0 1 0;
#X connect 4 0 5 0;
#X connect 6 0 3 0;
#X connect 6 0 0 0;
#X connect 7 0 6 0;
#X restore 345 114 pd square;
#N canvas 0 22 438 462 square 0;
#X obj 132 215 -~ 0.5;
#X obj 42 197 wrap~;
#X obj 42 220 -~ 0.5;
#X obj 42 175 -~ 0.5;
#X obj 42 289 -~;
#X obj 42 317 outlet~;
#X obj 42 94 phasor~;
#X obj 42 64 inlet;
#X connect 0 0 4 1;
#X connect 1 0 2 0;
#X connect 2 0 4 0;
#X connect 3 0 1 0;
#X connect 4 0 5 0;
#X connect 6 0 3 0;
#X connect 6 0 0 0;
#X connect 7 0 6 0;
#X restore 462 128 pd square;
#N canvas 0 22 438 462 square 0;
#X obj 132 215 -~ 0.5;
#X obj 42 197 wrap~;
#X obj 42 220 -~ 0.5;
#X obj 42 175 -~ 0.5;
#X obj 42 289 -~;
#X obj 42 317 outlet~;
#X obj 42 94 phasor~;
#X obj 42 64 inlet;
#X connect 0 0 4 1;
#X connect 1 0 2 0;
#X connect 2 0 4 0;
#X connect 3 0 1 0;
#X connect 4 0 5 0;
#X connect 6 0 3 0;
#X connect 6 0 0 0;
#X connect 7 0 6 0;
#X restore 569 128 pd square;
#N canvas 0 22 438 462 square 0;
#X obj 132 215 -~ 0.5;
#X obj 42 197 wrap~;
#X obj 42 220 -~ 0.5;
#X obj 42 175 -~ 0.5;
#X obj 42 289 -~;
#X obj 42 317 outlet~;
#X obj 42 94 phasor~;
#X obj 42 64 inlet;
#X connect 0 0 4 1;
#X connect 1 0 2 0;
#X connect 2 0 4 0;
#X connect 3 0 1 0;
#X connect 4 0 5 0;
#X connect 6 0 3 0;
#X connect 6 0 0 0;
#X connect 7 0 6 0;
#X restore 269 115 pd square;
#N canvas 0 22 438 462 square 0;
#X obj 132 215 -~ 0.5;
#X obj 42 197 wrap~;
#X obj 42 220 -~ 0.5;
#X obj 42 175 -~ 0.5;
#X obj 42 289 -~;
#X obj 42 317 outlet~;
#X obj 42 94 phasor~;
#X obj 42 64 inlet;
#X connect 0 0 4 1;
#X connect 1 0 2 0;
#X connect 2 0 4 0;
#X connect 3 0 1 0;
#X connect 4 0 5 0;
#X connect 6 0 3 0;
#X connect 6 0 0 0;
#X connect 7 0 6 0;
#X restore 187 119 pd square;
#N canvas 0 22 438 462 square 0;
#X obj 132 215 -~ 0.5;
#X obj 42 197 wrap~;
#X obj 42 220 -~ 0.5;
#X obj 42 175 -~ 0.5;
#X obj 42 289 -~;
#X obj 42 317 outlet~;
#X obj 42 94 phasor~;
#X obj 42 64 inlet;
#X connect 0 0 4 1;
#X connect 1 0 2 0;
#X connect 2 0 4 0;
#X connect 3 0 1 0;
#X connect 4 0 5 0;
#X connect 6 0 3 0;
#X connect 6 0 0 0;
#X connect 7 0 6 0;
#X restore 105 101 pd square;
#X connect 0 0 8 0;
#X connect 1 0 8 0;
#X connect 2 0 16 0;
#X connect 3 0 11 0;
#X connect 4 0 12 0;
#X connect 5 0 13 0;
#X connect 6 0 14 0;
#X connect 7 0 15 0;
#X connect 9 0 2 0;
#X connect 9 0 3 0;
#X connect 9 0 4 0;
#X connect 9 0 5 0;
#X connect 9 0 6 0;
#X connect 9 0 7 0;
#X connect 11 0 0 0;
#X connect 12 0 8 0;
#X connect 13 0 8 0;
#X connect 14 0 8 0;
#X connect 15 0 8 0;
#X connect 16 0 1 0;
#X restore 548 149 pd squarebattery;
#X msg 594 125 1;
#X obj 594 105 loadbang;
#X obj 64 515 outlet~;
#X obj 65 50 inlet;
#X obj 65 153 route float;
#X msg 139 178 100;
#X obj 65 222 t b a;
#X obj 548 252 *~ 150;
#X connect 0 0 4 1;
#X connect 1 0 2 0;
#X connect 2 0 14 0;
#X connect 3 0 1 0;
#X connect 4 0 9 0;
#X connect 5 0 4 0;
#X connect 6 0 3 0;
#X connect 7 0 6 0;
#X connect 8 0 7 0;
#X connect 10 0 11 0;
#X connect 11 0 13 0;
#X connect 11 1 12 0;
#X connect 12 0 13 0;
#X connect 13 0 5 0;
#X connect 13 1 5 2;
#X connect 14 0 0 0;
#X restore 926 422 pd hh;
#X obj 716 103 f;
#X obj 827 175 + 1;
#X obj 827 200 % 16;
#X obj 667 263 select 0 4 8 12;
#X obj 717 70 metro 160;
#X obj 815 256 random 100;
#X obj 811 229 t b;
#X obj 807 327 sel 1;
#X obj 930 291 <;
#X obj 974 181 print hatpercent;
#X connect 7 0 11 0;
#X connect 8 0 12 0;
#X connect 9 0 8 0;
#X connect 10 0 8 1;
#X connect 11 0 15 0;
#X connect 12 0 13 0;
#X connect 13 0 11 1;
#X connect 13 0 14 0;
#X connect 13 0 22 0;
#X connect 14 0 15 1;
#X connect 15 0 34 0;
#X connect 15 0 64 0;
#X connect 16 0 17 1;
#X connect 17 0 19 0;
#X connect 19 0 20 0;
#X connect 19 0 21 0;
#X connect 20 0 21 1;
#X connect 21 0 26 0;
#X connect 22 0 23 0;
#X connect 23 0 16 0;
#X connect 23 0 17 0;
#X connect 24 0 28 0;
#X connect 24 0 33 0;
#X connect 24 0 49 0;
#X connect 24 0 56 1;
#X connect 25 0 7 0;
#X connect 26 0 25 0;
#X connect 27 0 29 0;
#X connect 28 0 31 0;
#X connect 29 0 31 1;
#X connect 30 0 10 1;
#X connect 32 0 29 1;
#X connect 33 0 27 0;
#X connect 34 0 76 0;
#X connect 35 0 53 0;
#X connect 36 0 38 0;
#X connect 37 0 36 1;
#X connect 38 0 71 0;
#X connect 39 0 35 0;
#X connect 40 0 41 0;
#X connect 40 0 48 0;
#X connect 41 0 37 0;
#X connect 41 0 36 0;
#X connect 42 0 54 0;
#X connect 43 0 70 0;
#X connect 44 0 42 0;
#X connect 45 0 61 0;
#X connect 46 0 43 0;
#X connect 47 0 46 1;
#X connect 48 0 45 0;
#X connect 49 0 40 0;
#X connect 50 0 39 0;
#X connect 51 0 44 0;
#X connect 52 0 50 1;
#X connect 52 0 51 1;
#X connect 53 0 72 0;
#X connect 54 0 74 0;
#X connect 55 0 56 0;
#X connect 56 0 57 0;
#X connect 58 0 59 0;
#X connect 59 0 60 0;
#X connect 61 0 46 0;
#X connect 61 0 47 0;
#X connect 62 0 91 0;
#X connect 63 0 67 0;
#X connect 65 0 66 0;
#X connect 66 0 63 0;
#X connect 67 0 68 0;
#X connect 68 0 64 0;
#X connect 68 0 34 0;
#X connect 70 0 51 0;
#X connect 71 0 50 0;
#X connect 72 0 105 0;
#X connect 73 0 97 0;
#X connect 74 0 106 0;
#X connect 75 0 98 0;
#X connect 76 0 107 0;
#X connect 77 0 99 0;
#X connect 78 0 30 0;
#X connect 79 0 40 1;
#X connect 80 0 79 0;
#X connect 81 0 27 1;
#X connect 82 0 81 0;
#X connect 83 0 73 0;
#X connect 84 0 75 0;
#X connect 85 0 77 0;
#X connect 87 0 86 0;
#X connect 89 0 88 0;
#X connect 90 0 123 1;
#X connect 90 0 124 0;
#X connect 91 0 24 0;
#X connect 92 0 93 0;
#X connect 94 0 76 1;
#X connect 95 0 74 1;
#X connect 96 0 72 1;
#X connect 97 0 96 0;
#X connect 98 0 95 0;
#X connect 99 0 94 0;
#X connect 100 0 26 1;
#X connect 101 0 112 1;
#X connect 108 0 104 0;
#X connect 109 0 103 0;
#X connect 110 0 102 0;
#X connect 111 0 119 0;
#X connect 112 0 110 0;
#X connect 113 0 109 0;
#X connect 114 0 108 0;
#X connect 115 0 116 0;
#X connect 115 0 118 0;
#X connect 115 0 121 0;
#X connect 116 0 117 0;
#X connect 117 0 115 1;
#X connect 118 0 112 0;
#X connect 118 1 112 0;
#X connect 118 1 113 0;
#X connect 118 2 112 0;
#X connect 118 3 112 0;
#X connect 118 3 113 0;
#X connect 119 0 115 0;
#X connect 120 0 123 0;
#X connect 121 0 120 0;
#X connect 122 0 114 0;
#X connect 123 0 122 0;
#X restore 100 96 pd techno-world;
#X obj 752 162 lop~ 100;
#X obj 723 327 snapshot~;
#X obj 813 268 loadbang;
#X obj 813 296 metro 1000;
#X obj 723 359 > 0.2;
#X obj 414 203 loadbang;
#X obj 414 239 random 100;
#X obj 414 279 / 5000;
#X obj 483 204 bng 15 250 50 0 empty empty empty 17 7 0 10 -262144
-1 -1;
#X obj 414 312 + 0.05;
#X obj 414 344 phasor~ 0.05;
#X obj 414 373 lop~ 0.05;
#X obj 700 695 tgl 15 0 empty empty empty 17 7 0 10 -262144 -1 -1 1
1;
#X obj 608 695 tgl 15 0 empty empty empty 17 7 0 10 -262144 -1 -1 1
1;
#X obj 499 761 tgl 15 0 empty empty empty 17 7 0 10 -262144 -1 -1 1
1;
#X obj 591 761 tgl 15 0 empty empty empty 17 7 0 10 -262144 -1 -1 1
1;
#X obj 688 761 tgl 15 0 empty empty empty 17 7 0 10 -262144 -1 -1 1
1;
#X obj 700 719 s kick;
#X obj 608 719 s snare;
#X obj 499 785 s synth1;
#X obj 688 785 s synth3;
#X obj 591 785 s synth2;
#X obj 396 432 *~;
#X obj 752 103 adc~ 8;
#X text 812 100 Reading IR sensor;
#X text 934 134 Sending to Bela oscilloscope;
#X text 94 65 The sequencer-synth:;
#X text 72 13 Sverm-Puls: patch for Bela-controlled guitars;
#X text 73 27 =======;
#X obj 511 697 tgl 15 0 empty empty empty 17 7 0 10 -262144 -1 -1 1
1;
#X obj 511 721 s hihats;
#X obj 764 557 s hihat-level;
#X obj 764 432 select 1 0;
#X obj 1192 277 s~ midimod1;
#X obj 1287 276 s~ midimod2;
#X obj 1221 202 *~ 24;
#X obj 1223 230 -~ 12;
#X text 1221 139 pitch shift of techno synths;
#X obj 1005 423 s~ drumpitch;
#X text 1010 339 pitch shift drums;
#X obj 792 407 tgl 15 0 empty empty empty 17 7 0 10 -262144 -1 -1 0
1;
#X obj 624 203 sig~;
#X obj 567 86 vsl 15 128 0 1 0 0 empty empty empty 0 -9 0 10 -262144
-1 -1 0 1;
#X floatatom 568 231 5 0 0 0 - - -, f 5;
#X obj 724 388 change;
#X obj 859 417 s presence;
#X obj 317 147 r presence;
#X obj 321 177 r presence;
#X obj 325 206 r presence;
#X obj 120 238 stand_volume 10000;
#X obj 327 237 r presence;
#X obj 329 265 r presence;
#X obj 525 616 loadbang;
#X msg 566 646 1;
#X obj 122 266 stand_volume 20000;
#X obj 115 148 stand_volume 30000;
#X obj 113 177 stand_volume 40000;
#X obj 118 207 stand_volume 50000;
#X obj 883 212 *~ 1;
#X obj 342 101 dac~ 27 28 29 30;
#X obj 1007 396 +~ 50;
#X obj 1006 371 *~ 150;
#X msg 762 527 80;
#X msg 810 524 4;
#X obj 792 473 delay 3000;
#X connect 1 0 57 0;
#X connect 1 1 58 0;
#X connect 1 2 59 0;
#X connect 1 3 51 0;
#X connect 1 3 61 1;
#X connect 1 4 56 0;
#X connect 1 4 61 2;
#X connect 1 5 24 0;
#X connect 1 5 61 3;
#X connect 2 0 60 0;
#X connect 2 0 61 0;
#X connect 3 0 6 0;
#X connect 4 0 5 0;
#X connect 5 0 3 0;
#X connect 6 0 46 0;
#X connect 7 0 8 0;
#X connect 8 0 9 0;
#X connect 9 0 11 0;
#X connect 10 0 8 0;
#X connect 11 0 12 0;
#X connect 12 0 13 0;
#X connect 13 0 24 1;
#X connect 14 0 19 0;
#X connect 15 0 20 0;
#X connect 16 0 21 0;
#X connect 17 0 23 0;
#X connect 18 0 22 0;
#X connect 24 0 0 0;
#X connect 24 0 0 1;
#X connect 25 0 2 0;
#X connect 31 0 32 0;
#X connect 34 0 64 0;
#X connect 34 1 66 0;
#X connect 37 0 38 0;
#X connect 38 0 35 0;
#X connect 38 0 36 0;
#X connect 42 0 34 0;
#X connect 42 0 47 0;
#X connect 44 0 43 0;
#X connect 44 0 45 0;
#X connect 46 0 42 0;
#X connect 48 0 57 1;
#X connect 49 0 58 1;
#X connect 50 0 59 1;
#X connect 51 0 24 0;
#X connect 52 0 51 1;
#X connect 53 0 56 1;
#X connect 54 0 55 0;
#X connect 55 0 31 0;
#X connect 55 0 15 0;
#X connect 55 0 18 0;
#X connect 55 0 17 0;
#X connect 55 0 16 0;
#X connect 55 0 14 0;
#X connect 56 0 24 0;
#X connect 57 0 24 0;
#X connect 58 0 24 0;
#X connect 59 0 24 0;
#X connect 60 0 3 0;
#X connect 60 0 37 0;
#X connect 60 0 63 0;
#X connect 62 0 40 0;
#X connect 63 0 62 0;
#X connect 64 0 33 0;
#X connect 65 0 33 0;
#X connect 66 0 65 0;
