#N canvas 167 23 1513 978 12;
#X obj 1004 412 bng 15 250 50 0 empty empty empty 0 -6 0 8 -262144
-1 -1;
#X obj 891 45 loadbang;
#X floatatom 1076 448 5 0 0 0 - - -, f 5;
#X obj 1037 482 del;
#X msg 1004 508 1;
#X msg 1037 508 0;
#X obj 916 512 noise~;
#X obj 917 581 *~;
#X floatatom 1045 635 5 0 0 0 - - -, f 5;
#X text 1094 636 damping factor (between 0 and 1);
#X text 1125 441 size of the noise input;
#X text 1035 709 volume control;
#X obj 978 707 *~ 0.3;
#X obj 978 659 *~ 0.99;
#X obj 1097 539 vd~ buffer1 100;
#X obj 918 810 delwrite~ buffer1 1000;
#X obj 663 742 dac~;
#X obj 181 458 catch~ master;
#X obj 1008 379 t b f;
#X obj 891 187 random 100;
#X obj 891 161 bng 15 250 50 0 empty empty empty 17 7 0 10 -262144
-1 -1;
#X obj 891 215 / 100;
#X floatatom 890 286 5 0 0 0 - - -, f 5;
#X obj 965 71 random 500;
#X obj 890 249 + 6;
#X obj 891 126 metro 32000;
#X obj 965 99 + 32000;
#N canvas 364 23 844 814 techno-world 0;
#X text 463 -224 ├┴┐├┤-├─┤│-┬│--├┤-╠╦╝-║-
;
#X text 463 -236 ┌┐-┌─┐┌─┐┌─┐┬--┌─┐╦═╗╔╦╗
;
#X text 463 -215 └─┘└─┘┴-┴└─┘┴─┘└─┘╩╚═-╩-
;
#X text 512 -196 powered by heavy;
#X text 458 -204 -------------------------;
#X text 499 -171 http://beaglert.cc;
#X text 210 -211 ============;
#X obj 336 334 phasor~ 5;
#X obj 245 12 samphold~;
#X obj 245 -13 noise~;
#X obj 326 4 phasor~ 10;
#N canvas 0 22 143 172 >~ 0;
#X obj 18 -59 -~;
#X obj 18 -80 min~;
#X obj 18 4 *~ 1e+37;
#X obj 18 -17 +~ 1e-37;
#X obj 18 -38 clip~ -1e-37 0;
#X obj 18 -105 inlet~;
#X obj 61 -105 inlet~;
#X obj 18 26 outlet~;
#X connect 0 0 4 0;
#X connect 1 0 0 0;
#X connect 2 0 7 0;
#X connect 3 0 2 0;
#X connect 4 0 3 0;
#X connect 5 0 1 0;
#X connect 6 0 0 1;
#X connect 6 0 1 1;
#X restore 336 364 pd >~;
#X obj 249 41 *~ 0.5;
#X obj 249 63 +~ 0.5;
#X obj 249 85 *~ 1000;
#X obj 336 394 vcf~ 10;
#X obj 382 146 wrap~;
#X obj 331 161 -~;
#N canvas 0 22 450 278 (subpatch) 0;
#X array midi 127 float 3 black black;
#A 0 51.435 51.435 51.435 51.435 51.435 51.435 51.435 51.435 51.435
51.435 51.435 51.435 51.435 51.435 51.435 51.435 51.435 51.435 51.435
51.435 51.435 51.435 51.435 51.435 51.435 51.435 51.435 51.435 51.435
51.435 51.435 51.435 51.435 51.435 51.435 51.435 51.435 51.435 51.435
51.435 51.435 51.435 51.435 51.435 51.435 51.435 51.435 51.435 51.435
51.435 51.435 51.435 51.435 51.435 51.435 51.435 51.435 51.435 51.435
51.435 50.8 50.8 50.8 50.8 50.8 50.8 50.8 50.8 50.8 50.165 50.165 50.165
50.165 50.165 50.165 50.165 50.165 50.165 50.165 50.165 50.165 50.165
50.165 50.165 50.165 50.165 50.165 50.165 50.165 50.165 50.165 50.165
50.165 50.165 50.165 50.165 50.165 49.53 49.53 49.53 49.53 49.53 48.26
48.26 48.26 48.26 47.625 47.9425 48.26 48.26 48.26 48.26 48.26 48.26
48.26 48.26 48.26 48.26 48.26 48.26 48.26 48.26 48.26 48.26 48.26 48.26
47.625;
#X coords 0 0 127 127 200 200 1;
#X restore 874 -233 graph;
#X obj 331 207 tabread~ midi;
#X obj 364 241 wrap~;
#X obj 345 264 -~;
#X obj 332 92 *~ 127;
#X obj 332 114 +~ 0;
#X obj 458 -70 sig~;
#X obj 458 87 wrap~;
#N canvas 0 22 450 300 <~ 0;
#X obj 24 -60 -~;
#X obj 24 10 +~ 1e-37;
#X obj 24 -11 clip~ -1e-37 0;
#X obj 24 -105 inlet~;
#X obj 68 -104 inlet~;
#X obj 24 -81 max~;
#X obj 24 -36 *~ -1;
#X obj 24 62 outlet~;
#X obj 24 31 *~ 1e+37;
#X connect 0 0 6 0;
#X connect 1 0 8 0;
#X connect 2 0 1 0;
#X connect 3 0 5 0;
#X connect 4 0 0 1;
#X connect 4 0 5 1;
#X connect 5 0 0 0;
#X connect 6 0 2 0;
#X connect 8 0 7 0;
#X restore 486 156 pd <~;
#X obj 511 128 sig~ 0.5;
#X obj 336 306 mtof~;
#X obj 429 307 +~;
#X obj 453 273 *~ 1;
#X obj 747 136 wrap~;
#N canvas 0 22 450 300 <~ 0;
#X obj 24 -60 -~;
#X obj 24 10 +~ 1e-37;
#X obj 24 -11 clip~ -1e-37 0;
#X obj 24 -105 inlet~;
#X obj 68 -104 inlet~;
#X obj 24 -81 max~;
#X obj 24 -36 *~ -1;
#X obj 24 62 outlet~;
#X obj 24 31 *~ 1e+37;
#X connect 0 0 6 0;
#X connect 1 0 8 0;
#X connect 2 0 1 0;
#X connect 3 0 5 0;
#X connect 4 0 0 1;
#X connect 4 0 5 1;
#X connect 5 0 0 0;
#X connect 6 0 2 0;
#X connect 8 0 7 0;
#X restore 747 188 pd <~;
#X obj 772 160 sig~ 0.5;
#X obj 761 227 rzero~ 1;
#X obj 586 -76 phasor~ 10;
#X obj 459 -8 /~ 44100;
#N canvas 0 22 450 300 <~ 0;
#X obj 24 -60 -~;
#X obj 24 10 +~ 1e-37;
#X obj 24 -11 clip~ -1e-37 0;
#X obj 24 -105 inlet~;
#X obj 68 -104 inlet~;
#X obj 24 -81 max~;
#X obj 24 -36 *~ -1;
#X obj 24 62 outlet~;
#X obj 24 31 *~ 1e+37;
#X connect 0 0 6 0;
#X connect 1 0 8 0;
#X connect 2 0 1 0;
#X connect 3 0 5 0;
#X connect 4 0 0 1;
#X connect 4 0 5 1;
#X connect 5 0 0 0;
#X connect 6 0 2 0;
#X connect 8 0 7 0;
#X restore 602 -18 pd <~;
#X msg 378 -135 0;
#X obj 458 57 /~ 128;
#X obj 737 370 /~ 44100;
#X obj 736 397 rpole~ 1;
#X obj 763 277 *~ -1;
#X obj 763 299 +~ 1;
#X obj 736 420 +~ 1;
#X obj 761 249 abs~;
#X obj 744 472 *~;
#X obj 735 341 sig~ -10;
#X obj 737 443 clip~ 0 1;
#X obj 743 544 osc~;
#X obj 743 522 *~ 400;
#X obj 459 19 rpole~ 1;
#X obj 627 -46 sig~ 0.999;
#X obj 475 -47 /~ 128;
#X text 797 548 kick;
#X obj 848 157 wrap~;
#N canvas 0 22 450 300 <~ 0;
#X obj 24 -60 -~;
#X obj 24 10 +~ 1e-37;
#X obj 24 -11 clip~ -1e-37 0;
#X obj 24 -105 inlet~;
#X obj 68 -104 inlet~;
#X obj 24 -81 max~;
#X obj 24 -36 *~ -1;
#X obj 24 62 outlet~;
#X obj 24 31 *~ 1e+37;
#X connect 0 0 6 0;
#X connect 1 0 8 0;
#X connect 2 0 1 0;
#X connect 3 0 5 0;
#X connect 4 0 0 1;
#X connect 4 0 5 1;
#X connect 5 0 0 0;
#X connect 6 0 2 0;
#X connect 8 0 7 0;
#X restore 848 208 pd <~;
#X obj 873 180 sig~ 0.5;
#X obj 862 247 rzero~ 1;
#X obj 838 390 /~ 44100;
#X obj 837 417 rpole~ 1;
#X obj 864 297 *~ -1;
#X obj 864 319 +~ 1;
#X obj 837 440 +~ 1;
#X obj 862 269 abs~;
#X obj 836 361 sig~ -10;
#X obj 838 463 clip~ 0 1;
#X obj 881 499 noise~;
#X obj 839 519 *~;
#X obj 838 493 *~;
#X obj 848 131 +~ 0.25;
#X obj 960 394 samphold~;
#X obj 960 373 noise~;
#X obj 947 160 wrap~;
#N canvas 0 22 450 300 <~ 0;
#X obj 24 -60 -~;
#X obj 24 10 +~ 1e-37;
#X obj 24 -11 clip~ -1e-37 0;
#X obj 24 -105 inlet~;
#X obj 68 -104 inlet~;
#X obj 24 -81 max~;
#X obj 24 -36 *~ -1;
#X obj 24 62 outlet~;
#X obj 24 31 *~ 1e+37;
#X connect 0 0 6 0;
#X connect 1 0 8 0;
#X connect 2 0 1 0;
#X connect 3 0 5 0;
#X connect 4 0 0 1;
#X connect 4 0 5 1;
#X connect 5 0 0 0;
#X connect 6 0 2 0;
#X connect 8 0 7 0;
#X restore 947 211 pd <~;
#X obj 972 183 sig~ 0.5;
#X obj 961 250 rzero~ 1;
#X obj 963 300 *~ -1;
#X obj 963 322 +~ 1;
#X obj 961 272 abs~;
#X obj 947 134 +~ 0.25;
#X obj 995 482 wrap~;
#X obj 960 506 -~;
#X obj 960 416 *~ 0.5;
#X obj 960 438 +~ 0.5;
#X obj 957 581 /~;
#X obj 960 528 +~ 1;
#X obj 848 104 /~;
#X obj 1063 391 samphold~;
#X obj 1063 370 noise~;
#X obj 1098 479 wrap~;
#X obj 1063 503 -~;
#X obj 1063 413 *~ 0.5;
#X obj 1063 435 +~ 0.5;
#X obj 1060 578 /~;
#X obj 1063 525 +~ 1;
#X obj 747 104 /~;
#X obj 960 460 *~ 2;
#X obj 957 559 sig~ 8;
#X obj 336 416 *~ 0.5;
#X text 896 592 hh;
#X obj 1060 556 sig~ 8;
#X obj 644 146 wrap~;
#N canvas 0 22 450 300 <~ 0;
#X obj 24 -60 -~;
#X obj 24 10 +~ 1e-37;
#X obj 24 -11 clip~ -1e-37 0;
#X obj 24 -105 inlet~;
#X obj 68 -104 inlet~;
#X obj 24 -81 max~;
#X obj 24 -36 *~ -1;
#X obj 24 62 outlet~;
#X obj 24 31 *~ 1e+37;
#X connect 0 0 6 0;
#X connect 1 0 8 0;
#X connect 2 0 1 0;
#X connect 3 0 5 0;
#X connect 4 0 0 1;
#X connect 4 0 5 1;
#X connect 5 0 0 0;
#X connect 6 0 2 0;
#X connect 8 0 7 0;
#X restore 644 198 pd <~;
#X obj 669 170 sig~ 0.5;
#X obj 658 222 rzero~ 1;
#X obj 634 365 /~ 44100;
#X obj 633 392 rpole~ 1;
#X obj 660 272 *~ -1;
#X obj 660 294 +~ 1;
#X obj 633 415 +~ 1;
#X obj 658 244 abs~;
#X obj 632 336 sig~ -10;
#X obj 634 438 clip~ 0 1;
#X obj 640 539 osc~;
#X obj 644 121 +~ 0.25;
#X obj 589 509 noise~;
#X obj 547 529 *~;
#X obj 47 392 osc~;
#X obj 95 183 -~;
#X obj 129 165 wrap~;
#X obj 48 258 tabread~ midi;
#X obj 49 349 mtof~;
#X obj 93 111 phasor~ 10;
#X obj 95 144 *~ 127;
#X obj 462 307 s~ midimod1;
#X obj 186 378 osc~;
#X obj 187 244 tabread~ midi;
#X obj 188 335 mtof~;
#X obj 189 164 wrap~;
#X obj 190 225 -~;
#X obj 224 207 wrap~;
#X obj 189 142 +~ 0.75;
#X obj 94 73 /~ 8;
#X obj 49 317 +~;
#X obj 186 302 +~;
#X obj 94 285 r~ midimod1;
#X obj 44 427 *~ 0.1;
#X obj 183 413 *~ 0.1;
#X obj 717 -66 sig~ 1;
#X obj 717 -44 /~;
#X obj 717 -22 s~ period;
#X msg 257 -122 1 \$1;
#X obj 257 -100 /;
#X obj 257 -78 s _period;
#X obj 190 186 *~ 122;
#X obj 325 -193 loadbang;
#X obj 420 398 delread~ _del 100;
#X obj 420 501 delwrite~ _del 500;
#X obj 420 344 r _period;
#X obj 420 366 * 4000;
#X obj 420 420 lop~ 1000;
#X obj 420 441 *~ 0.85;
#X text 694 543 snr;
#X text 210 -221 techno world!;
#X obj 1003 228 sig~ 1;
#X obj 186 280 +~ 12;
#X obj 49 295 +~ 12;
#X msg 325 -171 11;
#X obj 1145 390 samphold~;
#X obj 1145 369 noise~;
#X obj 1180 478 wrap~;
#X obj 1145 502 -~;
#X obj 1145 412 *~ 0.5;
#X obj 1145 434 +~ 0.5;
#X obj 1142 577 /~;
#X obj 1145 524 +~ 1;
#X obj 644 99 /~;
#X obj 947 107 /~ 8;
#X obj 1145 456 *~ 2;
#X obj 1063 457 *~ 1;
#X obj 1142 555 sig~ 16;
#X obj 839 541 hip~ 18000;
#X obj 840 565 bp~ 12000 10;
#X obj 547 551 hip~ 1000;
#X obj 641 467 *~ 1;
#X obj 640 517 *~ 300;
#X obj 640 561 *~ 0.1;
#X obj 840 590 *~ 0.1;
#X obj 743 566 *~ 0.333;
#X obj 47 525 throw~ master;
#X obj 163 517 throw~ master;
#X obj 640 603 throw~ master;
#X obj 743 608 throw~ master;
#X obj 840 632 throw~ master;
#X obj 337 458 throw~ master;
#X connect 7 0 11 0;
#X connect 8 0 12 0;
#X connect 9 0 8 0;
#X connect 10 0 8 1;
#X connect 11 0 15 0;
#X connect 12 0 13 0;
#X connect 13 0 11 1;
#X connect 13 0 14 0;
#X connect 13 0 22 0;
#X connect 14 0 15 1;
#X connect 15 0 99 0;
#X connect 15 0 148 0;
#X connect 16 0 17 1;
#X connect 17 0 19 0;
#X connect 19 0 20 0;
#X connect 19 0 21 0;
#X connect 20 0 21 1;
#X connect 21 0 29 0;
#X connect 22 0 23 0;
#X connect 23 0 16 0;
#X connect 23 0 17 0;
#X connect 24 0 36 0;
#X connect 24 0 53 0;
#X connect 24 0 133 0;
#X connect 24 0 140 1;
#X connect 25 0 26 0;
#X connect 26 0 30 0;
#X connect 27 0 26 1;
#X connect 28 0 7 0;
#X connect 29 0 28 0;
#X connect 30 0 29 1;
#X connect 30 0 125 0;
#X connect 31 0 32 0;
#X connect 32 0 34 0;
#X connect 33 0 32 1;
#X connect 34 0 45 0;
#X connect 35 0 37 0;
#X connect 36 0 51 0;
#X connect 37 0 51 1;
#X connect 38 0 10 1;
#X connect 38 0 35 1;
#X connect 38 0 123 1;
#X connect 39 0 25 0;
#X connect 40 0 41 0;
#X connect 41 0 44 0;
#X connect 42 0 43 0;
#X connect 43 0 41 1;
#X connect 44 0 48 0;
#X connect 45 0 42 0;
#X connect 46 0 50 0;
#X connect 47 0 40 0;
#X connect 48 0 46 1;
#X connect 48 0 46 0;
#X connect 49 0 179 0;
#X connect 50 0 49 0;
#X connect 51 0 39 0;
#X connect 51 0 87 0;
#X connect 51 0 96 0;
#X connect 51 0 167 0;
#X connect 51 0 168 0;
#X connect 52 0 37 1;
#X connect 53 0 35 0;
#X connect 55 0 56 0;
#X connect 56 0 58 0;
#X connect 57 0 56 1;
#X connect 58 0 64 0;
#X connect 59 0 60 0;
#X connect 60 0 63 0;
#X connect 61 0 62 0;
#X connect 62 0 60 1;
#X connect 63 0 66 0;
#X connect 64 0 61 0;
#X connect 65 0 59 0;
#X connect 66 0 69 0;
#X connect 66 0 69 1;
#X connect 67 0 68 1;
#X connect 68 0 172 0;
#X connect 69 0 68 0;
#X connect 70 0 55 0;
#X connect 71 0 83 0;
#X connect 72 0 71 0;
#X connect 73 0 74 0;
#X connect 74 0 76 0;
#X connect 75 0 74 1;
#X connect 76 0 79 0;
#X connect 77 0 78 0;
#X connect 78 0 71 1;
#X connect 78 0 88 1;
#X connect 78 0 159 1;
#X connect 79 0 77 0;
#X connect 80 0 73 0;
#X connect 81 0 82 1;
#X connect 82 0 86 0;
#X connect 83 0 84 0;
#X connect 84 0 97 0;
#X connect 85 0 87 1;
#X connect 86 0 85 1;
#X connect 87 0 70 0;
#X connect 88 0 92 0;
#X connect 89 0 88 0;
#X connect 90 0 91 1;
#X connect 91 0 95 0;
#X connect 92 0 93 0;
#X connect 93 0 170 0;
#X connect 94 0 96 1;
#X connect 95 0 94 1;
#X connect 96 0 31 0;
#X connect 97 0 81 0;
#X connect 97 0 82 0;
#X connect 98 0 85 0;
#X connect 99 0 185 0;
#X connect 101 0 94 0;
#X connect 102 0 103 0;
#X connect 103 0 105 0;
#X connect 104 0 103 1;
#X connect 105 0 111 0;
#X connect 106 0 107 0;
#X connect 107 0 110 0;
#X connect 108 0 109 0;
#X connect 109 0 107 1;
#X connect 110 0 113 0;
#X connect 111 0 108 0;
#X connect 112 0 106 0;
#X connect 113 0 175 0;
#X connect 114 0 177 0;
#X connect 115 0 102 0;
#X connect 116 0 117 1;
#X connect 117 0 174 0;
#X connect 118 0 137 0;
#X connect 119 0 121 0;
#X connect 120 0 119 1;
#X connect 121 0 157 0;
#X connect 122 0 118 0;
#X connect 123 0 124 0;
#X connect 123 0 132 0;
#X connect 124 0 119 0;
#X connect 124 0 120 0;
#X connect 126 0 138 0;
#X connect 127 0 156 0;
#X connect 128 0 126 0;
#X connect 129 0 145 0;
#X connect 130 0 127 0;
#X connect 131 0 130 1;
#X connect 132 0 129 0;
#X connect 133 0 123 0;
#X connect 134 0 122 0;
#X connect 135 0 128 0;
#X connect 136 0 134 1;
#X connect 136 0 135 1;
#X connect 137 0 180 0;
#X connect 138 0 181 0;
#X connect 139 0 140 0;
#X connect 140 0 141 0;
#X connect 142 0 143 0;
#X connect 143 0 144 0;
#X connect 145 0 130 0;
#X connect 145 0 131 0;
#X connect 146 0 158 0;
#X connect 146 0 38 0;
#X connect 147 0 151 0;
#X connect 149 0 150 0;
#X connect 150 0 147 0;
#X connect 151 0 152 0;
#X connect 152 0 148 0;
#X connect 152 0 99 0;
#X connect 155 0 76 1;
#X connect 155 0 58 1;
#X connect 155 0 34 1;
#X connect 155 0 105 1;
#X connect 156 0 135 0;
#X connect 157 0 134 0;
#X connect 158 0 142 0;
#X connect 158 0 10 0;
#X connect 158 0 24 0;
#X connect 159 0 163 0;
#X connect 160 0 159 0;
#X connect 161 0 162 1;
#X connect 162 0 166 0;
#X connect 163 0 164 0;
#X connect 164 0 169 0;
#X connect 165 0 167 1;
#X connect 166 0 165 1;
#X connect 167 0 115 0;
#X connect 168 0 80 0;
#X connect 169 0 161 0;
#X connect 169 0 162 0;
#X connect 170 0 90 0;
#X connect 170 0 91 0;
#X connect 171 0 165 0;
#X connect 172 0 173 0;
#X connect 173 0 178 0;
#X connect 174 0 177 0;
#X connect 175 0 117 0;
#X connect 175 0 176 0;
#X connect 176 0 114 0;
#X connect 177 0 182 0;
#X connect 178 0 184 0;
#X connect 179 0 183 0;
#X restore 182 402 pd techno-world;
#X obj 188 610 *~;
#X obj 552 212 lop~ 100;
#X obj 705 588 line~;
#X obj 715 453 tgl 15 0 empty empty empty 17 7 0 10 -262144 -1 -1 0
1;
#X obj 714 479 select 1 0;
#X obj 719 366 snapshot~;
#X obj 758 290 loadbang;
#X obj 758 324 metro 1000;
#X obj 715 425 > 0.2;
#X obj 573 147 dac~ 27 28 29 30;
#X obj 687 642 *~;
#X obj 665 511 delay 10;
#X obj 470 145 adc~ 3 4 5 8;
#X msg 705 544 1 180000;
#X obj 685 689 *~ 2;
#X obj 394 312 loadbang;
#X obj 393 348 random 100;
#X obj 392 388 / 5000;
#X obj 463 313 bng 15 250 50 0 empty empty empty 17 7 0 10 -262144
-1 -1;
#X obj 392 421 + 0.05;
#X obj 393 453 phasor~ 0.05;
#X obj 393 482 lop~ 0.05;
#X msg 772 545 0 2000;
#X connect 0 0 3 0;
#X connect 0 0 4 0;
#X connect 1 0 25 0;
#X connect 2 0 3 1;
#X connect 2 0 14 0;
#X connect 3 0 5 0;
#X connect 4 0 7 1;
#X connect 5 0 7 1;
#X connect 6 0 7 0;
#X connect 7 0 15 0;
#X connect 8 0 13 1;
#X connect 12 0 16 0;
#X connect 12 0 16 1;
#X connect 13 0 12 0;
#X connect 13 0 15 0;
#X connect 14 0 13 0;
#X connect 17 0 28 0;
#X connect 18 0 0 0;
#X connect 18 1 2 0;
#X connect 19 0 21 0;
#X connect 20 0 19 0;
#X connect 21 0 24 0;
#X connect 22 0 18 0;
#X connect 23 0 26 0;
#X connect 24 0 22 0;
#X connect 25 0 23 0;
#X connect 25 0 20 0;
#X connect 26 0 25 1;
#X connect 28 0 38 0;
#X connect 29 0 33 0;
#X connect 30 0 38 1;
#X connect 31 0 32 0;
#X connect 32 0 39 0;
#X connect 32 1 50 0;
#X connect 33 0 36 0;
#X connect 34 0 35 0;
#X connect 35 0 33 0;
#X connect 36 0 31 0;
#X connect 38 0 42 0;
#X connect 39 0 41 0;
#X connect 40 3 29 0;
#X connect 40 3 37 0;
#X connect 41 0 30 0;
#X connect 42 0 16 0;
#X connect 42 0 16 1;
#X connect 43 0 44 0;
#X connect 44 0 45 0;
#X connect 45 0 47 0;
#X connect 46 0 44 0;
#X connect 47 0 48 0;
#X connect 48 0 49 0;
#X connect 49 0 28 1;
#X connect 50 0 30 0;
