#N canvas 868 208 1680 979 12;
#X obj 516 547 dac~;
#X obj 752 162 lop~ 100;
#X obj 723 327 snapshot~;
#X obj 813 268 loadbang;
#X obj 813 296 metro 1000;
#X obj 723 359 > 0.2;
#X obj 414 203 loadbang;
#X obj 414 239 random 100;
#X obj 414 279 / 5000;
#X obj 483 204 bng 15 250 50 0 empty empty empty 17 7 0 10 -262144
-1 -1;
#X obj 414 312 + 0.05;
#X obj 414 344 phasor~ 0.05;
#X obj 414 373 lop~ 0.05;
#X obj 700 695 tgl 15 0 empty empty empty 17 7 0 10 -262144 -1 -1 1
1;
#X obj 608 695 tgl 15 0 empty empty empty 17 7 0 10 -262144 -1 -1 1
1;
#X obj 499 761 tgl 15 0 empty empty empty 17 7 0 10 -262144 -1 -1 1
1;
#X obj 591 761 tgl 15 0 empty empty empty 17 7 0 10 -262144 -1 -1 1
1;
#X obj 688 761 tgl 15 0 empty empty empty 17 7 0 10 -262144 -1 -1 1
1;
#X obj 700 719 s kick;
#X obj 608 719 s snare;
#X obj 499 785 s synth1;
#X obj 688 785 s synth3;
#X obj 591 785 s synth2;
#X obj 396 432 *~;
#X obj 752 103 adc~ 8;
#X text 812 100 Reading IR sensor;
#X text 934 134 Sending to Bela oscilloscope;
#X text 94 65 The sequencer-synth:;
#X text 72 13 Sverm-Puls: patch for Bela-controlled guitars;
#X text 73 27 =======;
#X obj 511 697 tgl 15 0 empty empty empty 17 7 0 10 -262144 -1 -1 1
1;
#X obj 511 721 s hihats;
#X obj 764 613 s hihat-level;
#X obj 764 488 select 1 0;
#X obj 1192 277 s~ midimod1;
#X obj 1287 276 s~ midimod2;
#X obj 1221 202 *~ 24;
#X obj 1223 230 -~ 12;
#X text 1221 139 pitch shift of techno synths;
#X obj 1005 423 s~ drumpitch;
#X text 1010 339 pitch shift drums;
#X obj 792 407 tgl 15 0 empty empty empty 17 7 0 10 -262144 -1 -1 0
1;
#X obj 617 127 sig~;
#X obj 567 86 vsl 15 128 0 1 0 0 empty empty empty 0 -9 0 10 -262144
-1 -1 0 1;
#X floatatom 568 231 5 0 0 0 - - -, f 5;
#X obj 724 388 change;
#X obj 680 421 s presence;
#X obj 317 147 r presence;
#X obj 321 177 r presence;
#X obj 325 206 r presence;
#X obj 120 238 stand_volume 10000;
#X obj 327 237 r presence;
#X obj 329 265 r presence;
#X obj 525 616 loadbang;
#X msg 566 646 1;
#X obj 122 266 stand_volume 20000;
#X obj 115 148 stand_volume 30000;
#X obj 113 177 stand_volume 40000;
#X obj 118 207 stand_volume 50000;
#X obj 883 212 *~ 1;
#X obj 567 41 dac~ 27 28 29 30;
#X obj 1007 396 +~ 50;
#X obj 1006 371 *~ 150;
#X msg 762 583 80;
#X msg 810 580 4;
#X obj 792 529 delay 3000;
#X obj 100 96 techno-world;
#X obj 916 491 select 1 0;
#X obj 944 532 delay 3000;
#X msg 914 586 30;
#X msg 962 583 1;
#X obj 916 555 delay 15000;
#X obj 916 616 s snare-level;
#X connect 1 0 59 0;
#X connect 1 0 60 0;
#X connect 2 0 5 0;
#X connect 3 0 4 0;
#X connect 4 0 2 0;
#X connect 5 0 45 0;
#X connect 6 0 7 0;
#X connect 7 0 8 0;
#X connect 8 0 10 0;
#X connect 9 0 7 0;
#X connect 10 0 11 0;
#X connect 11 0 12 0;
#X connect 12 0 23 1;
#X connect 13 0 18 0;
#X connect 14 0 19 0;
#X connect 15 0 20 0;
#X connect 16 0 22 0;
#X connect 17 0 21 0;
#X connect 23 0 0 0;
#X connect 23 0 0 1;
#X connect 30 0 31 0;
#X connect 33 0 63 0;
#X connect 33 1 65 0;
#X connect 36 0 37 0;
#X connect 37 0 34 0;
#X connect 37 0 35 0;
#X connect 41 0 33 0;
#X connect 41 0 67 0;
#X connect 42 0 1 0;
#X connect 43 0 42 0;
#X connect 43 0 44 0;
#X connect 45 0 41 0;
#X connect 45 0 46 0;
#X connect 47 0 56 1;
#X connect 48 0 57 1;
#X connect 49 0 58 1;
#X connect 50 0 23 0;
#X connect 51 0 50 1;
#X connect 52 0 55 1;
#X connect 53 0 54 0;
#X connect 54 0 30 0;
#X connect 54 0 14 0;
#X connect 54 0 17 0;
#X connect 54 0 16 0;
#X connect 54 0 15 0;
#X connect 54 0 13 0;
#X connect 55 0 23 0;
#X connect 56 0 23 0;
#X connect 57 0 23 0;
#X connect 58 0 23 0;
#X connect 59 0 2 0;
#X connect 59 0 36 0;
#X connect 59 0 62 0;
#X connect 61 0 39 0;
#X connect 62 0 61 0;
#X connect 63 0 32 0;
#X connect 64 0 32 0;
#X connect 65 0 64 0;
#X connect 66 0 56 0;
#X connect 66 1 57 0;
#X connect 66 2 58 0;
#X connect 66 3 50 0;
#X connect 66 3 60 1;
#X connect 66 4 55 0;
#X connect 66 4 60 2;
#X connect 66 5 23 0;
#X connect 66 5 60 3;
#X connect 67 0 71 0;
#X connect 67 1 68 0;
#X connect 68 0 70 0;
#X connect 69 0 72 0;
#X connect 70 0 72 0;
#X connect 71 0 69 0;
