#N canvas 1025 142 1700 1062 12;
#X obj 379 557 dac~;
#X obj 103 454 catch~ master;
#N canvas 794 22 1663 978 techno-world 0;
#X text 1251 -209 ├┴┐├┤-├─┤│-┬│--├┤-╠╦╝-║-
;
#X text 1251 -221 ┌┐-┌─┐┌─┐┌─┐┬--┌─┐╦═╗╔╦╗
;
#X text 1251 -200 └─┘└─┘┴-┴└─┘┴─┘└─┘╩╚═-╩-
;
#X text 1300 -181 powered by heavy;
#X text 1246 -189 -------------------------;
#X text 1287 -156 http://beaglert.cc;
#X text 1324 -113 ============;
#X obj 331 365 phasor~ 5;
#X obj 265 12 samphold~;
#X obj 265 -13 noise~;
#X obj 325 -13 phasor~ 10;
#N canvas 0 22 143 172 >~ 0;
#X obj 18 -59 -~;
#X obj 18 -80 min~;
#X obj 18 4 *~ 1e+37;
#X obj 18 -17 +~ 1e-37;
#X obj 18 -38 clip~ -1e-37 0;
#X obj 18 -105 inlet~;
#X obj 61 -105 inlet~;
#X obj 18 26 outlet~;
#X connect 0 0 4 0;
#X connect 1 0 0 0;
#X connect 2 0 7 0;
#X connect 3 0 2 0;
#X connect 4 0 3 0;
#X connect 5 0 1 0;
#X connect 6 0 0 1;
#X connect 6 0 1 1;
#X restore 331 395 pd >~;
#X obj 265 41 *~ 0.5;
#X obj 265 63 +~ 0.5;
#X obj 265 97 *~ 1000;
#X obj 331 425 vcf~ 10;
#X obj 349 148 wrap~;
#X obj 331 177 -~;
#N canvas 0 22 450 278 (subpatch) 0;
#X array midi 127 float 3 black black;
#A 0 51.435 51.435 51.435 51.435 51.435 51.435 51.435 51.435 51.435
51.435 51.435 51.435 51.435 51.435 51.435 51.435 51.435 51.435 51.435
51.435 51.435 51.435 51.435 51.435 51.435 51.435 51.435 51.435 51.435
51.435 51.435 51.435 51.435 51.435 51.435 51.435 51.435 51.435 51.435
51.435 51.435 51.435 51.435 51.435 51.435 51.435 51.435 51.435 51.435
51.435 51.435 51.435 51.435 51.435 51.435 51.435 51.435 51.435 51.435
51.435 50.8 50.8 50.8 50.8 50.8 50.8 50.8 50.8 50.8 50.165 50.165 50.165
50.165 50.165 50.165 50.165 50.165 50.165 50.165 50.165 50.165 50.165
50.165 50.165 50.165 50.165 50.165 50.165 50.165 50.165 50.165 50.165
50.165 50.165 50.165 50.165 50.165 49.53 49.53 49.53 49.53 49.53 48.26
48.26 48.26 48.26 47.625 47.9425 48.26 48.26 48.26 48.26 48.26 48.26
48.26 48.26 48.26 48.26 48.26 48.26 48.26 48.26 48.26 48.26 48.26 48.26
47.625;
#X coords 0 0 127 127 200 200 1;
#X restore 874 -233 graph;
#X obj 331 207 tabread~ midi;
#X obj 350 241 wrap~;
#X obj 331 264 -~;
#X obj 331 92 *~ 127;
#X obj 331 114 +~ 0;
#X obj 459 -151 sig~;
#X obj 459 87 wrap~;
#N canvas 0 22 450 300 <~ 0;
#X obj 24 -60 -~;
#X obj 24 10 +~ 1e-37;
#X obj 24 -11 clip~ -1e-37 0;
#X obj 24 -105 inlet~;
#X obj 68 -104 inlet~;
#X obj 24 -81 max~;
#X obj 24 -36 *~ -1;
#X obj 24 62 outlet~;
#X obj 24 31 *~ 1e+37;
#X connect 0 0 6 0;
#X connect 1 0 8 0;
#X connect 2 0 1 0;
#X connect 3 0 5 0;
#X connect 4 0 0 1;
#X connect 4 0 5 1;
#X connect 5 0 0 0;
#X connect 6 0 2 0;
#X connect 8 0 7 0;
#X restore 459 152 pd <~;
#X obj 491 125 sig~ 0.5;
#X obj 331 337 mtof~;
#X obj 331 301 +~;
#X obj 485 202 *~ 1;
#X obj 761 116 wrap~;
#N canvas 0 22 450 300 <~ 0;
#X obj 24 -60 -~;
#X obj 24 10 +~ 1e-37;
#X obj 24 -11 clip~ -1e-37 0;
#X obj 24 -105 inlet~;
#X obj 68 -104 inlet~;
#X obj 24 -81 max~;
#X obj 24 -36 *~ -1;
#X obj 24 62 outlet~;
#X obj 24 31 *~ 1e+37;
#X connect 0 0 6 0;
#X connect 1 0 8 0;
#X connect 2 0 1 0;
#X connect 3 0 5 0;
#X connect 4 0 0 1;
#X connect 4 0 5 1;
#X connect 5 0 0 0;
#X connect 6 0 2 0;
#X connect 8 0 7 0;
#X restore 761 200 pd <~;
#X obj 786 157 sig~ 0.5;
#X obj 761 251 rzero~ 1;
#X obj 586 -76 phasor~ 10;
#X obj 459 -8 /~ 44100;
#N canvas 0 22 450 300 <~ 0;
#X obj 24 -60 -~;
#X obj 24 10 +~ 1e-37;
#X obj 24 -11 clip~ -1e-37 0;
#X obj 24 -105 inlet~;
#X obj 68 -104 inlet~;
#X obj 24 -81 max~;
#X obj 24 -36 *~ -1;
#X obj 24 62 outlet~;
#X obj 24 31 *~ 1e+37;
#X connect 0 0 6 0;
#X connect 1 0 8 0;
#X connect 2 0 1 0;
#X connect 3 0 5 0;
#X connect 4 0 0 1;
#X connect 4 0 5 1;
#X connect 5 0 0 0;
#X connect 6 0 2 0;
#X connect 8 0 7 0;
#X restore 586 -18 pd <~;
#X msg 392 -43 0;
#X obj 459 57 /~ 128;
#X obj 737 401 /~ 44100;
#X obj 736 428 rpole~ 1;
#X obj 763 301 *~ -1;
#X obj 763 333 +~ 1;
#X obj 736 451 +~ 1;
#X obj 761 276 abs~;
#X obj 744 503 *~;
#X obj 735 372 sig~ -10;
#X obj 737 474 clip~ 0 1;
#X obj 743 575 osc~;
#X obj 459 19 rpole~ 1;
#X obj 618 -46 sig~ 0.999;
#X obj 476 -117 /~ 128;
#X text 797 579 kick;
#X obj 901 157 wrap~;
#N canvas 0 22 450 300 <~ 0;
#X obj 24 -60 -~;
#X obj 24 10 +~ 1e-37;
#X obj 24 -11 clip~ -1e-37 0;
#X obj 24 -105 inlet~;
#X obj 68 -104 inlet~;
#X obj 24 -81 max~;
#X obj 24 -36 *~ -1;
#X obj 24 62 outlet~;
#X obj 24 31 *~ 1e+37;
#X connect 0 0 6 0;
#X connect 1 0 8 0;
#X connect 2 0 1 0;
#X connect 3 0 5 0;
#X connect 4 0 0 1;
#X connect 4 0 5 1;
#X connect 5 0 0 0;
#X connect 6 0 2 0;
#X connect 8 0 7 0;
#X restore 901 200 pd <~;
#X obj 943 157 sig~ 0.5;
#X obj 901 251 rzero~ 1;
#X obj 877 404 /~ 44100;
#X obj 876 431 rpole~ 1;
#X obj 903 301 *~ -1;
#X obj 903 333 +~ 1;
#X obj 876 454 +~ 1;
#X obj 901 276 abs~;
#X obj 875 375 sig~ -10;
#X obj 877 477 clip~ 0 1;
#X obj 920 513 noise~;
#X obj 878 533 *~;
#X obj 877 507 *~;
#X obj 901 116 +~ 0.25;
#X obj 1413 399 samphold~;
#X obj 1413 375 noise~;
#X obj 1369 153 wrap~;
#N canvas 0 22 450 300 <~ 0;
#X obj 24 -60 -~;
#X obj 24 10 +~ 1e-37;
#X obj 24 -11 clip~ -1e-37 0;
#X obj 24 -105 inlet~;
#X obj 68 -104 inlet~;
#X obj 24 -81 max~;
#X obj 24 -36 *~ -1;
#X obj 24 62 outlet~;
#X obj 24 31 *~ 1e+37;
#X connect 0 0 6 0;
#X connect 1 0 8 0;
#X connect 2 0 1 0;
#X connect 3 0 5 0;
#X connect 4 0 0 1;
#X connect 4 0 5 1;
#X connect 5 0 0 0;
#X connect 6 0 2 0;
#X connect 8 0 7 0;
#X restore 1369 196 pd <~;
#X obj 1423 153 sig~ 0.5;
#X obj 1369 249 rzero~ 1;
#X obj 1369 301 *~ -1;
#X obj 1369 333 +~ 1;
#X obj 1369 274 abs~;
#X obj 1369 97 +~ 0.25;
#X obj 1431 504 wrap~;
#X obj 1413 531 -~;
#X obj 1413 423 *~ 0.5;
#X obj 1413 448 +~ 0.5;
#X obj 1395 667 /~;
#X obj 1413 556 +~ 1;
#X obj 901 79 /~;
#X obj 1309 399 samphold~;
#X obj 1309 375 noise~;
#X obj 1327 504 wrap~;
#X obj 1309 531 -~;
#X obj 1309 423 *~ 0.5;
#X obj 1309 448 +~ 0.5;
#X obj 1291 667 /~;
#X obj 1309 556 +~ 1;
#X obj 761 79 /~;
#X obj 1413 475 *~ 2;
#X obj 331 499 *~ 0.5;
#X text 935 606 hh;
#X obj 1291 636 sig~ 8;
#X obj 660 157 wrap~;
#N canvas 0 22 450 300 <~ 0;
#X obj 24 -60 -~;
#X obj 24 10 +~ 1e-37;
#X obj 24 -11 clip~ -1e-37 0;
#X obj 24 -105 inlet~;
#X obj 68 -104 inlet~;
#X obj 24 -81 max~;
#X obj 24 -36 *~ -1;
#X obj 24 62 outlet~;
#X obj 24 31 *~ 1e+37;
#X connect 0 0 6 0;
#X connect 1 0 8 0;
#X connect 2 0 1 0;
#X connect 3 0 5 0;
#X connect 4 0 0 1;
#X connect 4 0 5 1;
#X connect 5 0 0 0;
#X connect 6 0 2 0;
#X connect 8 0 7 0;
#X restore 660 200 pd <~;
#X obj 703 157 sig~ 0.5;
#X obj 660 251 rzero~ 1;
#X obj 634 396 /~ 44100;
#X obj 633 423 rpole~ 1;
#X obj 660 301 *~ -1;
#X obj 660 333 +~ 1;
#X obj 633 446 +~ 1;
#X obj 660 276 abs~;
#X obj 632 367 sig~ -10;
#X obj 634 469 clip~ 0 1;
#X obj 640 570 osc~;
#X obj 660 116 +~ 0.25;
#X obj 568 512 noise~;
#X obj 556 553 *~;
#X obj 48 392 osc~;
#X obj 48 203 -~;
#X obj 66 176 wrap~;
#X obj 48 240 tabread~ midi;
#X obj 48 349 mtof~;
#X obj 48 111 phasor~ 10;
#X obj 48 144 *~ 127;
#X obj 189 392 osc~;
#X obj 189 268 tabread~ midi;
#X obj 189 364 mtof~;
#X obj 189 164 wrap~;
#X obj 189 242 -~;
#X obj 207 214 wrap~;
#X obj 189 142 +~ 0.75;
#X obj 48 73 /~ 8;
#X obj 48 317 +~;
#X obj 189 331 +~;
#X obj 94 285 r~ midimod1;
#X obj 48 427 *~ 0.1;
#X obj 189 421 *~ 0.1;
#X obj 309 -155 sig~ 1;
#X obj 309 -127 /~;
#X obj 309 -101 s~ period;
#X msg 66 -127 1 \$1;
#X obj 66 -99 /;
#X obj 66 -73 s _period;
#X obj 189 186 *~ 122;
#X obj 459 -205 loadbang;
#X obj 420 391 delread~ _del 100;
#X obj 420 501 delwrite~ _del 500;
#X obj 420 336 r _period;
#X obj 420 363 * 4000;
#X obj 420 417 lop~ 1000;
#X obj 420 441 *~ 0.85;
#X text 694 574 snr;
#X text 1324 -123 techno world!;
#X obj 1422 219 sig~ 1;
#X obj 189 297 +~ 12;
#X obj 48 274 +~ 12;
#X obj 1213 399 samphold~;
#X obj 1213 375 noise~;
#X obj 1231 504 wrap~;
#X obj 1213 531 -~;
#X obj 1213 423 *~ 0.5;
#X obj 1213 448 +~ 0.5;
#X obj 1195 667 /~;
#X obj 1213 556 +~ 1;
#X obj 660 79 /~;
#X obj 1369 72 /~ 8;
#X obj 1213 475 *~ 2;
#X obj 1309 475 *~ 1;
#X obj 1195 636 sig~ 16;
#X obj 879 579 bp~ 12000 10;
#X obj 641 498 *~ 1;
#X obj 624 613 *~ 0.1;
#X obj 879 604 *~ 0.1;
#X obj 743 597 *~ 0.333;
#X obj 48 673 throw~ master;
#X obj 189 673 throw~ master;
#X obj 639 731 throw~ master;
#X obj 749 731 throw~ master;
#X obj 880 713 throw~ master;
#X obj 332 673 throw~ master;
#X obj 48 644 *~;
#X obj 66 570 tgl 15 0 empty empty empty 17 7 0 10 -262144 -1 -1 1
1;
#X obj 189 644 *~;
#X obj 207 572 tgl 15 0 empty empty empty 17 7 0 10 -262144 -1 -1 1
1;
#X obj 332 644 *~;
#X obj 350 573 tgl 15 0 empty empty empty 17 7 0 10 -262144 -1 -1 1
1;
#X obj 640 697 *~;
#X obj 658 675 tgl 15 0 empty empty empty 17 7 0 10 -262144 -1 -1 1
1;
#X obj 749 700 *~;
#X obj 767 678 tgl 15 0 empty empty empty 17 7 0 10 -262144 -1 -1 1
1;
#X obj 879 667 *~;
#X obj 897 645 tgl 15 0 empty empty empty 17 7 0 10 -262144 -1 -1 1
1;
#X obj 938 640 r hihats;
#X obj 392 -71 loadbang;
#X msg 115 79 0;
#X obj 115 50 loadbang;
#X msg 653 -104 0;
#X obj 653 -132 loadbang;
#X obj 767 649 r kick;
#X obj 658 646 r snare;
#X obj 66 545 r synth1;
#X obj 207 547 r synth2;
#X obj 350 548 r synth3;
#X obj 1395 636 sig~ 8;
#X floatatom 1195 607 5 0 0 0 - - -, f 5;
#X obj 1195 581 r snare-level;
#X floatatom 1295 607 5 0 0 0 - - -, f 5;
#X floatatom 1395 607 5 0 0 0 - - -, f 5;
#X obj 1295 582 r kick-level;
#X obj 1395 582 r hihat-level;
#X msg 459 -178 10;
#X obj 66 -186 loadbang;
#X msg 66 -159 10;
#X obj 350 616 line~;
#X obj 207 617 line~;
#X obj 66 617 line~;
#X msg 66 593 \$1 30000;
#X msg 207 593 \$1 3000;
#X msg 350 592 \$1 20000;
#X obj 372 273 r~ midimod2;
#X text 459 174 disconnected! cpm;
#X obj 783 515 r~ drumpitch;
#X obj 743 548 *~;
#X obj 640 548 *~;
#X obj 548 581 hip~ 1000;
#X obj 878 555 hip~ 18000;
#X connect 7 0 11 0;
#X connect 8 0 12 0;
#X connect 9 0 8 0;
#X connect 10 0 8 1;
#X connect 11 0 15 0;
#X connect 12 0 13 0;
#X connect 13 0 11 1;
#X connect 13 0 14 0;
#X connect 13 0 22 0;
#X connect 14 0 15 1;
#X connect 15 0 97 0;
#X connect 15 0 145 0;
#X connect 16 0 17 1;
#X connect 17 0 19 0;
#X connect 19 0 20 0;
#X connect 19 0 21 0;
#X connect 20 0 21 1;
#X connect 21 0 29 0;
#X connect 22 0 23 0;
#X connect 23 0 16 0;
#X connect 23 0 17 0;
#X connect 24 0 36 0;
#X connect 24 0 52 0;
#X connect 24 0 130 0;
#X connect 24 0 137 1;
#X connect 25 0 26 0;
#X connect 27 0 26 1;
#X connect 28 0 7 0;
#X connect 29 0 28 0;
#X connect 31 0 32 0;
#X connect 32 0 34 0;
#X connect 33 0 32 1;
#X connect 34 0 45 0;
#X connect 35 0 37 0;
#X connect 36 0 50 0;
#X connect 37 0 50 1;
#X connect 38 0 10 1;
#X connect 39 0 25 0;
#X connect 40 0 41 0;
#X connect 41 0 44 0;
#X connect 42 0 43 0;
#X connect 43 0 41 1;
#X connect 44 0 48 0;
#X connect 45 0 42 0;
#X connect 46 0 221 0;
#X connect 47 0 40 0;
#X connect 48 0 46 1;
#X connect 48 0 46 0;
#X connect 49 0 172 0;
#X connect 50 0 39 0;
#X connect 50 0 86 0;
#X connect 50 0 95 0;
#X connect 50 0 163 0;
#X connect 50 0 164 0;
#X connect 51 0 37 1;
#X connect 52 0 35 0;
#X connect 54 0 55 0;
#X connect 55 0 57 0;
#X connect 56 0 55 1;
#X connect 57 0 63 0;
#X connect 58 0 59 0;
#X connect 59 0 62 0;
#X connect 60 0 61 0;
#X connect 61 0 59 1;
#X connect 62 0 65 0;
#X connect 63 0 60 0;
#X connect 64 0 58 0;
#X connect 65 0 68 0;
#X connect 65 0 68 1;
#X connect 66 0 67 1;
#X connect 67 0 224 0;
#X connect 68 0 67 0;
#X connect 69 0 54 0;
#X connect 70 0 82 0;
#X connect 71 0 70 0;
#X connect 72 0 73 0;
#X connect 73 0 75 0;
#X connect 74 0 73 1;
#X connect 75 0 78 0;
#X connect 76 0 77 0;
#X connect 77 0 70 1;
#X connect 77 0 87 1;
#X connect 77 0 155 1;
#X connect 78 0 76 0;
#X connect 79 0 72 0;
#X connect 80 0 81 1;
#X connect 81 0 85 0;
#X connect 82 0 83 0;
#X connect 83 0 96 0;
#X connect 84 0 86 1;
#X connect 85 0 84 1;
#X connect 86 0 69 0;
#X connect 87 0 91 0;
#X connect 88 0 87 0;
#X connect 89 0 90 1;
#X connect 90 0 94 0;
#X connect 91 0 92 0;
#X connect 92 0 166 0;
#X connect 93 0 95 1;
#X connect 94 0 93 1;
#X connect 95 0 31 0;
#X connect 96 0 80 0;
#X connect 96 0 81 0;
#X connect 97 0 183 0;
#X connect 99 0 93 0;
#X connect 100 0 101 0;
#X connect 101 0 103 0;
#X connect 102 0 101 1;
#X connect 103 0 109 0;
#X connect 104 0 105 0;
#X connect 105 0 108 0;
#X connect 106 0 107 0;
#X connect 107 0 105 1;
#X connect 108 0 111 0;
#X connect 109 0 106 0;
#X connect 110 0 104 0;
#X connect 111 0 169 0;
#X connect 112 0 170 0;
#X connect 113 0 100 0;
#X connect 114 0 115 1;
#X connect 115 0 223 0;
#X connect 116 0 134 0;
#X connect 117 0 119 0;
#X connect 118 0 117 1;
#X connect 119 0 154 0;
#X connect 120 0 116 0;
#X connect 121 0 122 0;
#X connect 121 0 129 0;
#X connect 122 0 118 0;
#X connect 122 0 117 0;
#X connect 123 0 135 0;
#X connect 124 0 153 0;
#X connect 125 0 123 0;
#X connect 126 0 142 0;
#X connect 127 0 124 0;
#X connect 128 0 127 1;
#X connect 129 0 126 0;
#X connect 130 0 121 0;
#X connect 131 0 120 0;
#X connect 132 0 125 0;
#X connect 133 0 131 1;
#X connect 133 0 132 1;
#X connect 134 0 179 0;
#X connect 135 0 181 0;
#X connect 136 0 137 0;
#X connect 137 0 138 0;
#X connect 139 0 140 0;
#X connect 140 0 141 0;
#X connect 142 0 127 0;
#X connect 142 0 128 0;
#X connect 143 0 209 0;
#X connect 144 0 148 0;
#X connect 146 0 147 0;
#X connect 147 0 144 0;
#X connect 148 0 149 0;
#X connect 149 0 145 0;
#X connect 149 0 97 0;
#X connect 152 0 75 1;
#X connect 152 0 57 1;
#X connect 152 0 34 1;
#X connect 152 0 103 1;
#X connect 153 0 132 0;
#X connect 154 0 131 0;
#X connect 155 0 159 0;
#X connect 156 0 155 0;
#X connect 157 0 158 1;
#X connect 158 0 162 0;
#X connect 159 0 160 0;
#X connect 160 0 165 0;
#X connect 161 0 163 1;
#X connect 162 0 161 1;
#X connect 163 0 113 0;
#X connect 164 0 79 0;
#X connect 165 0 157 0;
#X connect 165 0 158 0;
#X connect 166 0 89 0;
#X connect 166 0 90 0;
#X connect 167 0 161 0;
#X connect 168 0 171 0;
#X connect 169 0 115 0;
#X connect 169 0 222 0;
#X connect 170 0 185 0;
#X connect 171 0 189 0;
#X connect 172 0 187 0;
#X connect 179 0 173 0;
#X connect 180 0 215 0;
#X connect 181 0 174 0;
#X connect 182 0 216 0;
#X connect 183 0 178 0;
#X connect 184 0 217 0;
#X connect 185 0 175 0;
#X connect 186 0 185 1;
#X connect 187 0 176 0;
#X connect 188 0 187 1;
#X connect 189 0 177 0;
#X connect 190 0 189 1;
#X connect 191 0 190 0;
#X connect 192 0 38 0;
#X connect 193 0 121 1;
#X connect 194 0 193 0;
#X connect 195 0 35 1;
#X connect 196 0 195 0;
#X connect 197 0 188 0;
#X connect 198 0 186 0;
#X connect 199 0 180 0;
#X connect 200 0 182 0;
#X connect 201 0 184 0;
#X connect 202 0 84 0;
#X connect 203 0 167 0;
#X connect 204 0 203 0;
#X connect 205 0 99 0;
#X connect 206 0 202 0;
#X connect 207 0 205 0;
#X connect 208 0 206 0;
#X connect 209 0 24 0;
#X connect 210 0 211 0;
#X connect 212 0 183 1;
#X connect 213 0 181 1;
#X connect 214 0 179 1;
#X connect 215 0 214 0;
#X connect 216 0 213 0;
#X connect 217 0 212 0;
#X connect 218 0 29 1;
#X connect 220 0 221 1;
#X connect 220 0 222 1;
#X connect 221 0 49 0;
#X connect 222 0 112 0;
#X connect 223 0 170 0;
#X connect 224 0 168 0;
#X restore 100 96 pd techno-world;
#X obj 764 233 lop~ 100;
#X obj 422 423 line~;
#X obj 422 269 tgl 15 0 empty empty empty 17 7 0 10 -262144 -1 -1 0
1;
#X obj 422 288 select 1 0;
#X obj 764 338 snapshot~;
#X obj 813 268 loadbang;
#X obj 813 296 metro 1000;
#X obj 764 370 > 0.2;
#X obj 404 477 *~;
#X obj 422 344 delay 10;
#X msg 422 379 1 180000;
#X obj 404 504 *~ 2;
#X obj 230 261 loadbang;
#X obj 230 297 random 100;
#X obj 230 337 / 5000;
#X obj 299 262 bng 15 250 50 0 empty empty empty 17 7 0 10 -262144
-1 -1;
#X obj 230 370 + 0.05;
#X obj 230 402 phasor~ 0.05;
#X obj 230 431 lop~ 0.05;
#X msg 489 380 0 2000;
#X obj 959 689 tgl 15 0 empty empty empty 17 7 0 10 -262144 -1 -1 1
1;
#X obj 867 689 tgl 15 0 empty empty empty 17 7 0 10 -262144 -1 -1 1
1;
#X obj 1168 689 tgl 15 0 empty empty empty 17 7 0 10 -262144 -1 -1
1 1;
#X obj 1260 689 tgl 15 0 empty empty empty 17 7 0 10 -262144 -1 -1
1 1;
#X obj 1357 689 tgl 15 0 empty empty empty 17 7 0 10 -262144 -1 -1
1 1;
#X obj 959 713 s kick;
#X obj 867 713 s snare;
#X obj 1168 713 s synth1;
#X obj 1357 713 s synth3;
#X obj 1260 713 s synth2;
#X obj 212 490 *~;
#X obj 764 174 adc~ 8;
#X obj 795 203 dac~ 27;
#X text 824 171 Reading IR sensor;
#X text 857 202 Sending to Bela oscilloscope;
#X text 94 65 The sequencer-synth:;
#X text 72 13 Sverm-Puls: patch for Bela-controlled guitars;
#X text 73 27 =======;
#X obj 764 689 tgl 15 0 empty empty empty 17 7 0 10 -262144 -1 -1 1
1;
#X obj 764 713 s hihats;
#X obj 878 847 s snare-level;
#X obj 975 847 s kick-level;
#X obj 767 847 s hihat-level;
#X floatatom 878 813 5 0 0 0 - - -, f 5;
#X floatatom 975 813 5 0 0 0 - - -, f 5;
#X floatatom 766 813 5 0 0 0 - - -, f 5;
#X obj 764 406 tgl 15 0 empty empty empty 17 7 0 10 -262144 -1 -1 0
1;
#X obj 764 432 select 1 0;
#X obj 764 645 t 16 1;
#X obj 867 604 delay 10000;
#X obj 797 493 t 1024 0;
#X obj 1168 604 delay 10000;
#X msg 1260 645 1;
#X msg 1357 645 1;
#X obj 959 604 delay 10000;
#X obj 1260 604 delay 10000;
#X obj 1357 604 delay 10000;
#X obj 797 464 delay 3000;
#X obj 867 645 t 8 16 1;
#X obj 959 645 t 8 16 1;
#X obj 1066 604 delay 10000;
#X obj 1066 645 t 8;
#X obj 1168 645 t 1;
#X obj 1192 277 s~ midimod1;
#X obj 1287 276 s~ midimod2;
#X obj 1217 171 lop~ 100;
#X obj 1221 202 *~ 24;
#X obj 1223 230 -~ 12;
#X text 1221 139 pitch shift of techno synths;
#X obj 1005 423 s~ drumpitch;
#X obj 1006 346 lop~ 100;
#X obj 1006 371 *~ 500;
#X obj 1007 396 +~ 150;
#X text 1018 315 pitch shift drums;
#X obj 246 520 dubdel;
#X obj 608 339 vsl 15 128 0 1 0 0 empty empty empty 0 -9 0 10 -262144
-1 -1 12700 1;
#X obj 594 510 list prepend dry;
#X msg 182 655 dry 1 \, bq 2 \, basedur 500 \, bpitch 83 \, feedback
0.99 \, dell 2 \, delr 3 \,;
#X obj 180 618 loadbang;
#X connect 1 0 33 0;
#X connect 3 0 7 0;
#X connect 4 0 11 1;
#X connect 5 0 6 0;
#X connect 6 0 12 0;
#X connect 6 1 22 0;
#X connect 7 0 10 0;
#X connect 8 0 9 0;
#X connect 9 0 7 0;
#X connect 10 0 49 0;
#X connect 11 0 14 0;
#X connect 12 0 13 0;
#X connect 13 0 4 0;
#X connect 14 0 0 0;
#X connect 14 0 0 1;
#X connect 15 0 16 0;
#X connect 16 0 17 0;
#X connect 17 0 19 0;
#X connect 18 0 16 0;
#X connect 19 0 20 0;
#X connect 20 0 21 0;
#X connect 21 0 33 1;
#X connect 22 0 4 0;
#X connect 23 0 28 0;
#X connect 24 0 29 0;
#X connect 25 0 30 0;
#X connect 26 0 32 0;
#X connect 27 0 31 0;
#X connect 33 0 77 0;
#X connect 33 0 77 1;
#X connect 34 0 3 0;
#X connect 34 0 35 0;
#X connect 34 0 68 0;
#X connect 34 0 73 0;
#X connect 41 0 42 0;
#X connect 46 0 43 0;
#X connect 47 0 44 0;
#X connect 48 0 45 0;
#X connect 49 0 50 0;
#X connect 50 0 51 0;
#X connect 50 0 52 0;
#X connect 50 1 60 0;
#X connect 51 0 48 0;
#X connect 51 1 41 0;
#X connect 52 0 57 0;
#X connect 52 0 61 0;
#X connect 53 0 48 0;
#X connect 53 1 24 0;
#X connect 53 1 26 0;
#X connect 53 1 25 0;
#X connect 53 1 23 0;
#X connect 53 1 27 0;
#X connect 54 0 58 0;
#X connect 54 0 65 0;
#X connect 55 0 26 0;
#X connect 56 0 27 0;
#X connect 57 0 62 0;
#X connect 57 0 63 0;
#X connect 58 0 55 0;
#X connect 58 0 59 0;
#X connect 59 0 56 0;
#X connect 60 0 53 0;
#X connect 61 0 48 0;
#X connect 61 1 46 0;
#X connect 61 2 24 0;
#X connect 62 0 46 0;
#X connect 62 1 47 0;
#X connect 62 2 23 0;
#X connect 63 0 64 0;
#X connect 63 0 54 0;
#X connect 64 0 47 0;
#X connect 65 0 25 0;
#X connect 68 0 69 0;
#X connect 69 0 70 0;
#X connect 70 0 66 0;
#X connect 70 0 67 0;
#X connect 73 0 74 0;
#X connect 74 0 75 0;
#X connect 75 0 72 0;
#X connect 77 0 0 0;
#X connect 77 1 0 1;
#X connect 78 0 79 0;
#X connect 79 0 77 2;
#X connect 80 0 77 2;
#X connect 81 0 80 0;
