#N canvas 707 107 634 649 10;
#X obj 259 36 inlet;
#X obj 65 32 inlet~;
#X obj 68 330 *~;
#X obj 381 260 line~;
#X obj 368 101 select 1 0;
#X obj 261 145 delay 10;
#X msg 433 201 0 5000;
#X obj 70 411 outlet~;
#X obj 275 259 print;
#X obj 245 191 list prepend 1;
#X obj 266 221 list trim;
#X obj 308 411 outlet~;
#X obj 245 169 f;
#X obj 154 144 * 1000;
#X obj 154 117 f \$1;
#X obj 153 91 loadbang;
#X text 68 438 args: first argument sets the ramp up time in seconds
;
#X obj 231 316 pow~ 2;
#X connect 0 0 4 0;
#X connect 1 0 2 0;
#X connect 2 0 7 0;
#X connect 3 0 11 0;
#X connect 3 0 17 0;
#X connect 4 0 5 0;
#X connect 4 1 6 0;
#X connect 5 0 12 0;
#X connect 6 0 3 0;
#X connect 9 0 10 0;
#X connect 10 0 8 0;
#X connect 10 0 3 0;
#X connect 12 0 9 0;
#X connect 13 0 12 1;
#X connect 14 0 13 0;
#X connect 15 0 14 0;
#X connect 17 0 2 1;
