#N canvas 121 222 1671 1113 10;
#X obj 331 365 phasor~ 5;
#X obj 265 12 samphold~;
#X obj 265 -13 noise~;
#X obj 325 -13 phasor~ 10;
#N canvas 0 22 143 172 >~ 0;
#X obj 18 -59 -~;
#X obj 18 -80 min~;
#X obj 18 4 *~ 1e+37;
#X obj 18 -17 +~ 1e-37;
#X obj 18 -38 clip~ -1e-37 0;
#X obj 18 -105 inlet~;
#X obj 61 -105 inlet~;
#X obj 18 26 outlet~;
#X connect 0 0 4 0;
#X connect 1 0 0 0;
#X connect 2 0 7 0;
#X connect 3 0 2 0;
#X connect 4 0 3 0;
#X connect 5 0 1 0;
#X connect 6 0 0 1;
#X connect 6 0 1 1;
#X restore 331 395 pd >~;
#X obj 265 41 *~ 0.5;
#X obj 265 63 +~ 0.5;
#X obj 265 97 *~ 1000;
#X obj 331 425 vcf~ 10;
#X obj 349 148 wrap~;
#X obj 331 177 -~;
#N canvas 0 22 450 278 (subpatch) 0;
#X array midi 127 float 3;
#A 0 51.435 51.435 51.435 51.435 51.435 51.435 51.435 51.435 51.435
51.435 51.435 51.435 51.435 51.435 51.435 51.435 51.435 51.435 51.435
51.435 51.435 51.435 51.435 51.435 51.435 51.435 51.435 51.435 51.435
51.435 51.435 51.435 51.435 51.435 51.435 51.435 51.435 51.435 51.435
51.435 51.435 51.435 51.435 51.435 51.435 51.435 51.435 51.435 51.435
51.435 51.435 51.435 51.435 51.435 51.435 51.435 51.435 51.435 51.435
51.435 50.8 50.8 50.8 50.8 50.8 50.8 50.8 50.8 50.8 50.165 50.165 50.165
50.165 50.165 50.165 50.165 50.165 50.165 50.165 50.165 50.165 50.165
50.165 50.165 50.165 50.165 50.165 50.165 50.165 50.165 50.165 50.165
50.165 50.165 50.165 50.165 50.165 49.53 49.53 49.53 49.53 49.53 48.26
48.26 48.26 48.26 47.625 47.9425 48.26 48.26 48.26 48.26 48.26 48.26
48.26 48.26 48.26 48.26 48.26 48.26 48.26 48.26 48.26 48.26 48.26 48.26
47.625;
#X coords 0 0 127 127 200 200 1;
#X restore 833 -162 graph;
#X obj 331 207 tabread~ midi;
#X obj 350 241 wrap~;
#X obj 331 264 -~;
#X obj 331 92 *~ 127;
#X obj 331 114 +~ 0;
#X obj 459 -151 sig~;
#X obj 331 337 mtof~;
#X obj 331 301 +~;
#X obj 586 -76 phasor~ 10;
#X obj 459 -8 /~ 44100;
#N canvas 0 22 450 300 <~ 0;
#X obj 24 -60 -~;
#X obj 24 10 +~ 1e-37;
#X obj 24 -11 clip~ -1e-37 0;
#X obj 24 -105 inlet~;
#X obj 68 -104 inlet~;
#X obj 24 -81 max~;
#X obj 24 -36 *~ -1;
#X obj 24 62 outlet~;
#X obj 24 31 *~ 1e+37;
#X connect 0 0 6 0;
#X connect 1 0 8 0;
#X connect 2 0 1 0;
#X connect 3 0 5 0;
#X connect 4 0 0 1;
#X connect 4 0 5 1;
#X connect 5 0 0 0;
#X connect 6 0 2 0;
#X connect 8 0 7 0;
#X restore 586 -18 pd <~;
#X msg 392 -43 0;
#X obj 459 19 rpole~ 1;
#X obj 618 -46 sig~ 0.999;
#X obj 476 -117 /~ 128;
#X obj 331 499 *~ 0.5;
#X obj 48 392 osc~;
#X obj 48 203 -~;
#X obj 66 176 wrap~;
#X obj 48 240 tabread~ midi;
#X obj 48 349 mtof~;
#X obj 48 111 phasor~ 10;
#X obj 48 144 *~ 127;
#X obj 189 392 osc~;
#X obj 189 268 tabread~ midi;
#X obj 189 364 mtof~;
#X obj 189 164 wrap~;
#X obj 189 242 -~;
#X obj 207 214 wrap~;
#X obj 189 142 +~ 0.75;
#X obj 48 317 +~;
#X obj 189 331 +~;
#X obj 94 285 r~ midimod1;
#X obj 48 427 *~ 0.1;
#X obj 189 421 *~ 0.1;
#X obj 309 -155 sig~ 1;
#X obj 309 -127 /~;
#X obj 309 -101 s~ period;
#X msg 204 -125 1 \$1;
#X obj 204 -98 /;
#X obj 204 -71 s _period;
#X obj 189 186 *~ 122;
#X obj 459 -205 loadbang;
#X obj 420 391 delread~ _del 100;
#X obj 420 501 delwrite~ _del 500;
#X obj 420 336 r _period;
#X obj 420 363 * 4000;
#X obj 420 417 lop~ 1000;
#X obj 420 441 *~ 0.85;
#X obj 189 297 +~ 12;
#X obj 48 274 +~ 12;
#X msg 115 79 0;
#X msg 653 -104 0;
#X obj 653 -132 loadbang;
#X obj 1135 276 r snare-level;
#X floatatom 1151 546 5 0 0 0 - - -, f 5;
#X obj 1151 521 r kick-level;
#X obj 848 281 r hihat-level;
#X obj 66 -186 loadbang;
#X msg 66 -159 10;
#X obj 372 273 r~ midimod2;
#X obj 688 460 r~ drumpitch;
#X obj 661 572 outlet~;
#X obj 803 577 outlet~;
#X obj 933 585 outlet~;
#X obj 48 673 outlet~;
#X obj 189 673 outlet~;
#X obj 332 673 outlet~;
#N canvas 39 200 578 668 bd 0;
#X obj 110 399 *~;
#X obj 128 370 osc~;
#X obj 127 348 +~ 50;
#X obj 111 277 c_ead 1 400;
#X obj 111 56 inlet;
#X obj 193 241 switch~;
#X msg 193 218 1;
#X msg 225 218 0;
#X obj 109 465 outlet~;
#X obj 111 138 t b b b;
#X obj 225 199 delay 450;
#X obj 111 86 route bang float;
#X obj 285 163 + 50;
#X obj 111 110 t b b;
#X msg 269 85 400;
#X obj 165 108 t b a;
#X obj 126 323 *~;
#X obj 354 47 inlet~;
#X connect 0 0 8 0;
#X connect 1 0 0 1;
#X connect 2 0 1 0;
#X connect 3 0 0 0;
#X connect 3 0 16 0;
#X connect 4 0 11 0;
#X connect 6 0 5 0;
#X connect 7 0 5 0;
#X connect 9 0 3 0;
#X connect 9 1 6 0;
#X connect 9 2 10 0;
#X connect 10 0 7 0;
#X connect 11 0 13 0;
#X connect 11 1 15 0;
#X connect 12 0 10 1;
#X connect 13 0 9 0;
#X connect 13 1 14 0;
#X connect 14 0 12 0;
#X connect 14 0 3 2;
#X connect 15 0 9 0;
#X connect 15 1 12 0;
#X connect 15 1 3 2;
#X connect 16 0 2 0;
#X connect 17 0 16 1;
#X restore 660 493 pd bd;
#N canvas 358 22 963 800 sn 0;
#X obj 301 28 inlet;
#X obj 383 273 switch~;
#X msg 383 250 1;
#X msg 415 250 0;
#X obj 300 676 outlet~;
#X obj 301 170 t b b b;
#X obj 415 231 delay 450;
#X floatatom 388 307 5 0 0 1 decay - -, f 5;
#X obj 300 604 *~;
#X obj 547 476 osc~;
#X obj 301 332 c_ead 3 200;
#X obj 596 478 phasor~;
#X obj 546 454 +~ 200;
#X floatatom 600 429 5 0 0 0 - - -, f 5;
#X floatatom 434 453 5 0 0 0 - - -, f 5;
#X floatatom 480 455 5 0 0 0 - - -, f 5;
#X obj 548 542 *~ 0.3;
#X obj 597 456 +~ 600;
#X obj 400 479 bp~ 5000 3;
#X obj 301 636 *~ 1.8;
#X floatatom 647 431 5 0 0 0 - - -, f 5;
#X obj 399 506 *~ 1.5;
#X obj 301 83 route bang float;
#X obj 475 160 + 50;
#X obj 301 107 t b b;
#X msg 370 144 200;
#X obj 355 107 t b a;
#X obj 401 431 noise~;
#X obj 512 351 r~ drumpitch;
#X obj 545 429 *~;
#X obj 548 571 *~ 1;
#X connect 0 0 22 0;
#X connect 2 0 1 0;
#X connect 3 0 1 0;
#X connect 5 0 10 0;
#X connect 5 1 2 0;
#X connect 5 2 6 0;
#X connect 6 0 3 0;
#X connect 7 0 10 2;
#X connect 8 0 19 0;
#X connect 9 0 16 0;
#X connect 10 0 8 0;
#X connect 10 0 29 0;
#X connect 11 0 16 0;
#X connect 12 0 9 0;
#X connect 13 0 12 1;
#X connect 14 0 18 1;
#X connect 15 0 18 2;
#X connect 16 0 30 0;
#X connect 17 0 11 0;
#X connect 18 0 21 0;
#X connect 19 0 4 0;
#X connect 20 0 17 1;
#X connect 21 0 30 0;
#X connect 22 0 24 0;
#X connect 22 1 26 0;
#X connect 23 0 6 1;
#X connect 24 0 5 0;
#X connect 24 1 25 0;
#X connect 25 0 23 0;
#X connect 25 0 10 2;
#X connect 26 0 5 0;
#X connect 26 1 23 0;
#X connect 26 1 10 2;
#X connect 27 0 18 0;
#X connect 28 0 29 1;
#X connect 29 0 12 0;
#X connect 29 0 17 0;
#X connect 30 0 8 1;
#X restore 805 519 pd sn;
#N canvas 343 22 993 683 hh 0;
#X obj 548 275 clip~ -1 1;
#X obj 548 198 bp~ 8906 1.437;
#X obj 548 220 bp~ 8906 1.437;
#X obj 548 178 hip~ 8000;
#X obj 64 424 *~;
#X obj 65 248 c_ead 3 100;
#N canvas 0 22 744 501 squarebattery 0;
#X obj 346 142 *~ 0.7;
#X obj 105 124 *~ 0.9;
#X obj 105 79 * 210;
#X obj 345 94 * 540;
#X obj 462 104 * 550;
#X obj 569 103 * 800;
#X obj 269 92 * 380;
#X obj 187 91 * 320;
#X obj 105 404 outlet~;
#X obj 105 11 inlet;
#X text 151 13 tuning;
#N canvas 0 22 438 462 square 0;
#X obj 132 215 -~ 0.5;
#X obj 42 197 wrap~;
#X obj 42 220 -~ 0.5;
#X obj 42 175 -~ 0.5;
#X obj 42 289 -~;
#X obj 42 317 outlet~;
#X obj 42 94 phasor~;
#X obj 42 64 inlet;
#X connect 0 0 4 1;
#X connect 1 0 2 0;
#X connect 2 0 4 0;
#X connect 3 0 1 0;
#X connect 4 0 5 0;
#X connect 6 0 3 0;
#X connect 6 0 0 0;
#X connect 7 0 6 0;
#X restore 345 114 pd square;
#N canvas 0 22 438 462 square 0;
#X obj 132 215 -~ 0.5;
#X obj 42 197 wrap~;
#X obj 42 220 -~ 0.5;
#X obj 42 175 -~ 0.5;
#X obj 42 289 -~;
#X obj 42 317 outlet~;
#X obj 42 94 phasor~;
#X obj 42 64 inlet;
#X connect 0 0 4 1;
#X connect 1 0 2 0;
#X connect 2 0 4 0;
#X connect 3 0 1 0;
#X connect 4 0 5 0;
#X connect 6 0 3 0;
#X connect 6 0 0 0;
#X connect 7 0 6 0;
#X restore 462 128 pd square;
#N canvas 0 22 438 462 square 0;
#X obj 132 215 -~ 0.5;
#X obj 42 197 wrap~;
#X obj 42 220 -~ 0.5;
#X obj 42 175 -~ 0.5;
#X obj 42 289 -~;
#X obj 42 317 outlet~;
#X obj 42 94 phasor~;
#X obj 42 64 inlet;
#X connect 0 0 4 1;
#X connect 1 0 2 0;
#X connect 2 0 4 0;
#X connect 3 0 1 0;
#X connect 4 0 5 0;
#X connect 6 0 3 0;
#X connect 6 0 0 0;
#X connect 7 0 6 0;
#X restore 569 128 pd square;
#N canvas 0 22 438 462 square 0;
#X obj 132 215 -~ 0.5;
#X obj 42 197 wrap~;
#X obj 42 220 -~ 0.5;
#X obj 42 175 -~ 0.5;
#X obj 42 289 -~;
#X obj 42 317 outlet~;
#X obj 42 94 phasor~;
#X obj 42 64 inlet;
#X connect 0 0 4 1;
#X connect 1 0 2 0;
#X connect 2 0 4 0;
#X connect 3 0 1 0;
#X connect 4 0 5 0;
#X connect 6 0 3 0;
#X connect 6 0 0 0;
#X connect 7 0 6 0;
#X restore 269 115 pd square;
#N canvas 0 22 438 462 square 0;
#X obj 132 215 -~ 0.5;
#X obj 42 197 wrap~;
#X obj 42 220 -~ 0.5;
#X obj 42 175 -~ 0.5;
#X obj 42 289 -~;
#X obj 42 317 outlet~;
#X obj 42 94 phasor~;
#X obj 42 64 inlet;
#X connect 0 0 4 1;
#X connect 1 0 2 0;
#X connect 2 0 4 0;
#X connect 3 0 1 0;
#X connect 4 0 5 0;
#X connect 6 0 3 0;
#X connect 6 0 0 0;
#X connect 7 0 6 0;
#X restore 187 119 pd square;
#N canvas 0 22 438 462 square 0;
#X obj 132 215 -~ 0.5;
#X obj 42 197 wrap~;
#X obj 42 220 -~ 0.5;
#X obj 42 175 -~ 0.5;
#X obj 42 289 -~;
#X obj 42 317 outlet~;
#X obj 42 94 phasor~;
#X obj 42 64 inlet;
#X connect 0 0 4 1;
#X connect 1 0 2 0;
#X connect 2 0 4 0;
#X connect 3 0 1 0;
#X connect 4 0 5 0;
#X connect 6 0 3 0;
#X connect 6 0 0 0;
#X connect 7 0 6 0;
#X restore 105 101 pd square;
#X connect 0 0 8 0;
#X connect 1 0 8 0;
#X connect 2 0 16 0;
#X connect 3 0 11 0;
#X connect 4 0 12 0;
#X connect 5 0 13 0;
#X connect 6 0 14 0;
#X connect 7 0 15 0;
#X connect 9 0 2 0;
#X connect 9 0 3 0;
#X connect 9 0 4 0;
#X connect 9 0 5 0;
#X connect 9 0 6 0;
#X connect 9 0 7 0;
#X connect 11 0 0 0;
#X connect 12 0 8 0;
#X connect 13 0 8 0;
#X connect 14 0 8 0;
#X connect 15 0 8 0;
#X connect 16 0 1 0;
#X restore 548 149 pd squarebattery;
#X msg 594 125 1;
#X obj 594 105 loadbang;
#X obj 64 515 outlet~;
#X obj 65 50 inlet;
#X obj 65 153 route float;
#X msg 139 178 100;
#X obj 65 222 t b a;
#X obj 548 252 *~ 150;
#X connect 0 0 4 1;
#X connect 1 0 2 0;
#X connect 2 0 14 0;
#X connect 3 0 1 0;
#X connect 4 0 9 0;
#X connect 5 0 4 0;
#X connect 6 0 3 0;
#X connect 7 0 6 0;
#X connect 8 0 7 0;
#X connect 10 0 11 0;
#X connect 11 0 13 0;
#X connect 11 1 12 0;
#X connect 12 0 13 0;
#X connect 13 0 5 0;
#X connect 13 1 5 2;
#X connect 14 0 0 0;
#X restore 932 517 pd hh;
#X obj 716 103 f;
#X obj 827 175 + 1;
#X obj 827 200 % 16;
#X obj 667 263 select 0 4 8 12;
#X obj 707 74 metro 160;
#X obj 815 256 random 100;
#X obj 811 229 t b;
#X obj 812 307 sel 1;
#X obj 816 281 <;
#X obj 860 313 print hatpercent;
#X obj 933 557 *~ 0.88;
#X obj 803 546 *~ 0.9;
#X obj 662 538 *~ 0.9;
#X obj 1055 251 random 100;
#X obj 1082 304 <;
#X obj 1080 327 sel 1;
#X obj 1135 308 print sdpercent;
#X obj 327 -42 /~ 1;
#X obj 505 -148 s \$0-beatfreq;
#X obj 1111 6 r \$0-beatfreq;
#X obj 1112 28 t b a;
#X msg 1108 58 1;
#X obj 1128 88 /;
#X obj 1125 117 s \$0-beatperiod;
#X floatatom 1042 122 12 0 0 0 - - -, f 12;
#X obj 695 -3 r \$0-beatperiod;
#X obj 720 20 * 1000;
#X msg 459 -178 6;
#X obj 80 -44 r \$0-beatperiod;
#X obj 80 -17 t b;
#X obj 48 644 *~ 1;
#X obj 718 44 t b a;
#X obj 190 644 *~ 1;
#X obj 48 73 /~ 8;
#X obj 332 644 *~ 1;
#X obj 805 472 random 200;
#X obj 928 490 + 20;
#X obj 929 467 random 100;
#X obj 807 494 + 40;
#X connect 0 0 4 0;
#X connect 1 0 5 0;
#X connect 2 0 1 0;
#X connect 3 0 1 1;
#X connect 4 0 8 0;
#X connect 5 0 6 0;
#X connect 6 0 4 1;
#X connect 6 0 7 0;
#X connect 6 0 15 0;
#X connect 7 0 8 1;
#X connect 8 0 27 0;
#X connect 8 0 56 0;
#X connect 9 0 10 1;
#X connect 10 0 12 0;
#X connect 12 0 13 0;
#X connect 12 0 14 0;
#X connect 13 0 14 1;
#X connect 14 0 19 0;
#X connect 15 0 16 0;
#X connect 16 0 9 0;
#X connect 16 0 10 0;
#X connect 17 0 21 0;
#X connect 17 0 26 0;
#X connect 17 0 48 1;
#X connect 17 0 100 0;
#X connect 17 0 116 0;
#X connect 18 0 0 0;
#X connect 19 0 18 0;
#X connect 20 0 22 0;
#X connect 21 0 24 0;
#X connect 22 0 24 1;
#X connect 23 0 3 1;
#X connect 25 0 22 1;
#X connect 26 0 20 0;
#X connect 27 0 117 0;
#X connect 28 0 45 0;
#X connect 29 0 31 0;
#X connect 30 0 29 1;
#X connect 31 0 62 0;
#X connect 32 0 28 0;
#X connect 33 0 34 0;
#X connect 33 0 41 0;
#X connect 34 0 30 0;
#X connect 34 0 29 0;
#X connect 35 0 46 0;
#X connect 36 0 61 0;
#X connect 37 0 35 0;
#X connect 38 0 53 0;
#X connect 39 0 36 0;
#X connect 40 0 39 1;
#X connect 41 0 38 0;
#X connect 42 0 32 0;
#X connect 43 0 37 0;
#X connect 44 0 42 1;
#X connect 44 0 43 1;
#X connect 45 0 113 0;
#X connect 46 0 115 0;
#X connect 47 0 48 0;
#X connect 48 0 49 0;
#X connect 50 0 51 0;
#X connect 51 0 52 0;
#X connect 53 0 39 0;
#X connect 53 0 40 0;
#X connect 54 0 110 0;
#X connect 55 0 59 0;
#X connect 57 0 58 0;
#X connect 58 0 55 0;
#X connect 59 0 60 0;
#X connect 60 0 56 0;
#X connect 60 0 27 0;
#X connect 61 0 43 0;
#X connect 62 0 42 0;
#X connect 63 0 33 1;
#X connect 64 0 20 1;
#X connect 65 0 64 0;
#X connect 66 0 97 1;
#X connect 66 0 99 0;
#X connect 68 0 67 0;
#X connect 69 0 91 1;
#X connect 69 0 92 0;
#X connect 70 0 71 0;
#X connect 72 0 19 1;
#X connect 73 0 80 1;
#X connect 80 0 95 0;
#X connect 81 0 94 0;
#X connect 82 0 93 0;
#X connect 83 0 84 0;
#X connect 83 0 86 0;
#X connect 83 0 89 0;
#X connect 84 0 85 0;
#X connect 85 0 83 1;
#X connect 86 0 80 0;
#X connect 86 1 80 0;
#X connect 86 1 81 0;
#X connect 86 2 80 0;
#X connect 86 3 80 0;
#X connect 86 3 81 0;
#X connect 87 0 83 0;
#X connect 88 0 91 0;
#X connect 89 0 88 0;
#X connect 89 0 96 0;
#X connect 90 0 120 0;
#X connect 91 0 90 0;
#X connect 93 0 76 0;
#X connect 94 0 75 0;
#X connect 95 0 74 0;
#X connect 96 0 97 0;
#X connect 97 0 98 0;
#X connect 98 0 118 0;
#X connect 100 0 3 0;
#X connect 102 0 103 0;
#X connect 103 0 104 0;
#X connect 103 1 105 1;
#X connect 104 0 105 0;
#X connect 105 0 106 0;
#X connect 105 0 107 0;
#X connect 108 0 109 0;
#X connect 109 0 114 0;
#X connect 110 0 17 0;
#X connect 110 0 101 0;
#X connect 111 0 112 0;
#X connect 112 0 63 0;
#X connect 112 0 23 0;
#X connect 113 0 77 0;
#X connect 114 0 87 0;
#X connect 114 1 87 1;
#X connect 115 0 78 0;
#X connect 116 0 33 0;
#X connect 117 0 79 0;
#X connect 118 0 121 0;
#X connect 119 0 82 0;
#X connect 120 0 119 0;
#X connect 121 0 81 0;
