#N canvas 324 23 1513 978 12;
#X obj 649 380 bng 15 250 50 0 empty empty empty 0 -6 0 8 -262144 -1
-1;
#X obj 536 13 loadbang;
#X floatatom 721 416 5 0 0 0 - - -, f 5;
#X obj 682 450 del;
#X msg 649 476 1;
#X msg 682 476 0;
#X obj 561 480 noise~;
#X obj 562 549 *~;
#X floatatom 690 603 5 0 0 0 - - -, f 5;
#X text 739 604 damping factor (between 0 and 1);
#X text 770 409 size of the noise input;
#X text 680 677 volume control;
#X obj 623 675 *~ 0.3;
#X obj 30 382 noise~;
#X obj 30 444 *~;
#X obj 30 472 lop~ 200;
#X obj 186 131 lop~ 100;
#X obj 98 211 loadbang;
#X obj 97 247 random 100;
#X obj 96 287 / 5000;
#X obj 167 212 bng 15 250 50 0 empty empty empty 17 7 0 10 -262144
-1 -1;
#X obj 96 320 + 0.05;
#X obj 163 562 line~;
#X obj 218 512 *~;
#X obj 349 372 tgl 15 0 empty empty empty 17 7 0 10 -262144 -1 -1 1
1;
#X obj 348 398 select 1 0;
#X obj 353 285 snapshot~;
#X obj 359 199 loadbang;
#X obj 359 233 metro 1000;
#X obj 349 344 > 0.2;
#X obj 149 620 *~;
#X obj 230 93 dac~ 27 28 29 30;
#X obj 245 337 * 500;
#X obj 245 370 + 550;
#X obj 163 589 *~;
#X obj 97 352 phasor~ 0.05;
#X obj 97 381 lop~ 0.05;
#X obj 236 477 lop~ 0.5;
#X obj 105 93 adc~ 3 4 5 8;
#X obj 142 655 *~ 2;
#X obj 623 627 *~ 0.99;
#X obj 742 507 vd~ buffer1 100;
#X obj 563 778 delwrite~ buffer1 1000;
#X obj 857 789 dac~;
#X obj 858 746 catch~ master;
#X obj 621 726 throw~ master;
#X obj 653 347 t b f;
#X obj 536 155 random 100;
#X obj 536 129 bng 15 250 50 0 empty empty empty 17 7 0 10 -262144
-1 -1;
#X obj 536 183 / 100;
#X floatatom 535 254 5 0 0 0 - - -, f 5;
#X obj 782 35 select 1 2 3 4 5 6 7 8;
#X obj 631 32 random 500;
#X obj 535 217 + 6;
#X obj 536 94 metro 32000;
#X obj 631 66 + 32000;
#X obj 789 179 bng 15 250 50 0 empty empty empty 17 7 0 10 -262144
-1 -1;
#N canvas 102 169 324 613 figure 0;
#X obj 98 35 inlet;
#X obj 103 568 outlet;
#X obj 102 195 delay 70;
#X obj 103 255 random 100;
#X obj 103 283 / 100;
#X obj 102 317 + 6;
#X obj 161 110 random 300;
#X obj 161 144 + 50;
#X connect 0 0 2 0;
#X connect 0 0 6 0;
#X connect 2 0 3 0;
#X connect 3 0 4 0;
#X connect 4 0 5 0;
#X connect 5 0 1 0;
#X connect 6 0 7 0;
#X connect 7 0 2 1;
#X restore 785 225 pd figure;
#X floatatom 784 262 5 0 0 0 - - -, f 5;
#X floatatom 869 267 5 0 0 0 - - -, f 5;
#X floatatom 952 268 5 0 0 0 - - -, f 5;
#X floatatom 1030 266 5 0 0 0 - - -, f 5;
#X floatatom 1115 268 5 0 0 0 - - -, f 5;
#N canvas 102 169 324 613 figure 0;
#X obj 98 35 inlet;
#X obj 103 568 outlet;
#X obj 102 195 delay 70;
#X obj 103 255 random 100;
#X obj 103 283 / 100;
#X obj 102 317 + 6;
#X obj 161 110 random 300;
#X obj 161 144 + 50;
#X connect 0 0 2 0;
#X connect 0 0 6 0;
#X connect 2 0 3 0;
#X connect 3 0 4 0;
#X connect 4 0 5 0;
#X connect 5 0 1 0;
#X connect 6 0 7 0;
#X connect 7 0 2 1;
#X restore 870 223 pd figure;
#N canvas 102 169 324 613 figure 0;
#X obj 98 35 inlet;
#X obj 103 568 outlet;
#X obj 102 195 delay 70;
#X obj 103 255 random 100;
#X obj 103 283 / 100;
#X obj 102 317 + 6;
#X obj 161 110 random 300;
#X obj 161 144 + 50;
#X connect 0 0 2 0;
#X connect 0 0 6 0;
#X connect 2 0 3 0;
#X connect 3 0 4 0;
#X connect 4 0 5 0;
#X connect 5 0 1 0;
#X connect 6 0 7 0;
#X connect 7 0 2 1;
#X restore 953 222 pd figure;
#N canvas 102 169 324 613 figure 0;
#X obj 98 35 inlet;
#X obj 103 568 outlet;
#X obj 102 195 delay 70;
#X obj 103 255 random 100;
#X obj 103 283 / 100;
#X obj 102 317 + 6;
#X obj 161 110 random 300;
#X obj 161 144 + 50;
#X connect 0 0 2 0;
#X connect 0 0 6 0;
#X connect 2 0 3 0;
#X connect 3 0 4 0;
#X connect 4 0 5 0;
#X connect 5 0 1 0;
#X connect 6 0 7 0;
#X connect 7 0 2 1;
#X restore 1035 220 pd figure;
#N canvas 102 169 324 613 figure 0;
#X obj 98 35 inlet;
#X obj 103 568 outlet;
#X obj 102 195 delay 70;
#X obj 103 255 random 100;
#X obj 103 283 / 100;
#X obj 102 317 + 6;
#X obj 161 110 random 300;
#X obj 161 144 + 50;
#X connect 0 0 2 0;
#X connect 0 0 6 0;
#X connect 2 0 3 0;
#X connect 3 0 4 0;
#X connect 4 0 5 0;
#X connect 5 0 1 0;
#X connect 6 0 7 0;
#X connect 7 0 2 1;
#X restore 1126 223 pd figure;
#X obj 779 79 tgl 15 0 empty empty empty 17 7 0 10 -262144 -1 -1 0
1;
#X msg 335 571 1;
#X msg 406 464 0;
#X obj 334 529 delay 10000;
#X obj 779 111 metro 4000;
#X connect 0 0 3 0;
#X connect 0 0 4 0;
#X connect 1 0 54 0;
#X connect 2 0 3 1;
#X connect 2 0 41 0;
#X connect 3 0 5 0;
#X connect 4 0 7 1;
#X connect 5 0 7 1;
#X connect 6 0 7 0;
#X connect 7 0 42 0;
#X connect 8 0 40 1;
#X connect 12 0 45 0;
#X connect 13 0 14 0;
#X connect 14 0 15 0;
#X connect 15 0 23 0;
#X connect 16 0 26 0;
#X connect 16 0 37 0;
#X connect 17 0 18 0;
#X connect 18 0 19 0;
#X connect 19 0 21 0;
#X connect 20 0 18 0;
#X connect 21 0 35 0;
#X connect 22 0 34 0;
#X connect 22 0 34 1;
#X connect 23 0 30 0;
#X connect 24 0 25 0;
#X connect 25 0 70 0;
#X connect 25 1 69 0;
#X connect 26 0 29 0;
#X connect 26 0 32 0;
#X connect 27 0 28 0;
#X connect 28 0 26 0;
#X connect 29 0 24 0;
#X connect 30 0 39 0;
#X connect 32 0 33 0;
#X connect 33 0 15 1;
#X connect 34 0 30 1;
#X connect 35 0 36 0;
#X connect 36 0 14 1;
#X connect 37 0 23 1;
#X connect 38 3 16 0;
#X connect 38 3 31 0;
#X connect 40 0 12 0;
#X connect 40 0 42 0;
#X connect 41 0 40 0;
#X connect 44 0 43 0;
#X connect 44 0 43 1;
#X connect 46 0 0 0;
#X connect 46 1 2 0;
#X connect 47 0 49 0;
#X connect 48 0 47 0;
#X connect 49 0 53 0;
#X connect 50 0 46 0;
#X connect 52 0 55 0;
#X connect 53 0 50 0;
#X connect 54 0 52 0;
#X connect 54 0 48 0;
#X connect 55 0 54 1;
#X connect 56 0 57 0;
#X connect 56 0 63 0;
#X connect 56 0 64 0;
#X connect 56 0 65 0;
#X connect 56 0 66 0;
#X connect 57 0 58 0;
#X connect 58 0 46 0;
#X connect 59 0 46 0;
#X connect 60 0 46 0;
#X connect 61 0 46 0;
#X connect 62 0 46 0;
#X connect 63 0 59 0;
#X connect 64 0 60 0;
#X connect 65 0 61 0;
#X connect 66 0 62 0;
#X connect 67 0 71 0;
#X connect 68 0 67 0;
#X connect 69 0 67 0;
#X connect 70 0 68 0;
#X connect 71 0 56 0;
