#N canvas 324 23 1513 978 12;
#X obj 649 380 bng 15 250 50 0 empty empty empty 0 -6 0 8 -262144 -1
-1;
#X obj 536 13 loadbang;
#X floatatom 721 416 5 0 0 0 - - -, f 5;
#X obj 682 450 del;
#X msg 649 476 1;
#X msg 682 476 0;
#X obj 561 480 noise~;
#X obj 562 549 *~;
#X floatatom 690 603 5 0 0 0 - - -, f 5;
#X text 739 604 damping factor (between 0 and 1);
#X text 770 409 size of the noise input;
#X text 680 677 volume control;
#X obj 623 675 *~ 0.3;
#X obj 30 382 noise~;
#X obj 30 444 *~;
#X obj 30 472 lop~ 200;
#X obj 186 131 lop~ 100;
#X obj 98 211 loadbang;
#X obj 97 247 random 100;
#X obj 96 287 / 5000;
#X obj 167 212 bng 15 250 50 0 empty empty empty 17 7 0 10 -262144
-1 -1;
#X obj 96 320 + 0.05;
#X obj 339 507 line~;
#X obj 218 512 *~;
#X obj 349 372 tgl 15 0 empty empty empty 17 7 0 10 -262144 -1 -1 0
1;
#X obj 348 398 select 1 0;
#X obj 353 285 snapshot~;
#X obj 392 209 loadbang;
#X obj 392 243 metro 1000;
#X obj 349 344 > 0.2;
#X obj 325 565 *~;
#X obj 230 93 dac~ 27 28 29 30;
#X obj 286 337 * 500;
#X obj 286 370 + 550;
#X obj 339 534 *~;
#X obj 97 352 phasor~ 0.05;
#X obj 97 381 lop~ 0.05;
#X obj 299 430 delay 10;
#X msg 406 464 0 5000;
#X obj 236 477 lop~ 0.5;
#X obj 105 93 adc~ 3 4 5 8;
#X msg 339 463 1 180000;
#X obj 422 577 *~ 2;
#X obj 623 627 *~ 0.99;
#X obj 742 507 vd~ buffer1 100;
#X obj 563 778 delwrite~ buffer1 1000;
#X obj 292 726 dac~;
#X obj 293 683 catch~ master;
#X obj 621 726 throw~ master;
#X obj 997 175 delay 1500;
#X obj 1103 176 delay 1500;
#X obj 653 347 t b f;
#X msg 996 206 5.7;
#X msg 1102 209 4.3;
#X msg 800 204 5.1;
#X msg 906 207 4.3;
#X obj 801 173 delay 700;
#X obj 907 174 delay 1300;
#X obj 860 88 random 100;
#X obj 860 122 + 500;
#X obj 965 91 random 100;
#X obj 965 125 + 1000;
#X obj 1063 93 random 100;
#X obj 1063 127 + 2000;
#X obj 1177 91 random 100;
#X obj 1177 125 + 4000;
#X obj 536 155 random 100;
#X obj 536 129 bng 15 250 50 0 empty empty empty 17 7 0 10 -262144
-1 -1;
#X obj 536 183 / 100;
#X msg 695 208 5.1;
#X obj 696 177 delay 700;
#X obj 755 92 random 100;
#X obj 755 126 + 250;
#X floatatom 535 254 5 0 0 0 - - -, f 5;
#X obj 896 38 select 1 2 3 4 5 6 7 8;
#X obj 536 94 metro 16000;
#X obj 631 66 + 16000;
#X obj 631 32 random 500;
#X obj 535 217 + 6;
#X connect 0 0 3 0;
#X connect 0 0 4 0;
#X connect 1 0 75 0;
#X connect 2 0 3 1;
#X connect 2 0 44 0;
#X connect 3 0 5 0;
#X connect 4 0 7 1;
#X connect 5 0 7 1;
#X connect 6 0 7 0;
#X connect 7 0 45 0;
#X connect 8 0 43 1;
#X connect 12 0 48 0;
#X connect 13 0 14 0;
#X connect 14 0 15 0;
#X connect 15 0 23 0;
#X connect 16 0 26 0;
#X connect 16 0 39 0;
#X connect 17 0 18 0;
#X connect 18 0 19 0;
#X connect 19 0 21 0;
#X connect 20 0 18 0;
#X connect 21 0 35 0;
#X connect 22 0 34 0;
#X connect 22 0 34 1;
#X connect 23 0 30 0;
#X connect 24 0 25 0;
#X connect 25 0 37 0;
#X connect 25 1 38 0;
#X connect 26 0 29 0;
#X connect 26 0 32 0;
#X connect 27 0 28 0;
#X connect 28 0 26 0;
#X connect 29 0 24 0;
#X connect 30 0 42 0;
#X connect 32 0 33 0;
#X connect 33 0 15 1;
#X connect 34 0 30 1;
#X connect 35 0 36 0;
#X connect 36 0 14 1;
#X connect 37 0 41 0;
#X connect 38 0 22 0;
#X connect 39 0 23 1;
#X connect 40 3 16 0;
#X connect 40 3 31 0;
#X connect 41 0 22 0;
#X connect 43 0 12 0;
#X connect 43 0 45 0;
#X connect 44 0 43 0;
#X connect 47 0 46 0;
#X connect 47 0 46 1;
#X connect 49 0 52 0;
#X connect 49 0 50 0;
#X connect 50 0 53 0;
#X connect 51 0 0 0;
#X connect 51 1 2 0;
#X connect 52 0 51 0;
#X connect 53 0 51 0;
#X connect 54 0 51 0;
#X connect 55 0 51 0;
#X connect 56 0 54 0;
#X connect 56 0 57 0;
#X connect 57 0 55 0;
#X connect 58 0 59 0;
#X connect 59 0 56 1;
#X connect 60 0 61 0;
#X connect 61 0 57 1;
#X connect 62 0 63 0;
#X connect 63 0 49 1;
#X connect 64 0 65 0;
#X connect 65 0 50 1;
#X connect 66 0 68 0;
#X connect 67 0 66 0;
#X connect 68 0 78 0;
#X connect 69 0 51 0;
#X connect 70 0 69 0;
#X connect 71 0 72 0;
#X connect 72 0 70 1;
#X connect 73 0 51 0;
#X connect 75 0 77 0;
#X connect 75 0 67 0;
#X connect 76 0 75 1;
#X connect 77 0 76 0;
#X connect 78 0 73 0;
