#N canvas 782 98 543 647 12;
#X obj 131 169 bng 15 250 50 0 empty empty empty 0 -6 0 8 -262144 -1
-1;
#X obj 203 73 loadbang;
#X floatatom 203 205 5 0 0 0 - - -, f 5;
#X obj 164 239 del;
#X msg 131 265 1;
#X msg 164 265 0;
#X obj 43 269 noise~;
#X obj 44 338 *~;
#X obj 224 296 vd~ buffer 100;
#X floatatom 172 392 5 0 0 0 - - -, f 5;
#X obj 105 515 dac~;
#X obj 45 567 delwrite~ buffer 1000;
#X text 221 393 damping factor (between 0 and 1);
#X text 252 198 size of the noise input;
#X text 307 606 www.pd-tutorial.com;
#X text 315 580 Johannes Kreidler;
#X text 162 466 volume control;
#X obj 105 464 *~ 0.3;
#X obj 130 122 metro 4000;
#X obj 105 416 *~ 0.95;
#X msg 203 177 10;
#X connect 0 0 3 0;
#X connect 0 0 4 0;
#X connect 1 0 20 0;
#X connect 1 0 18 0;
#X connect 2 0 3 1;
#X connect 2 0 8 0;
#X connect 3 0 5 0;
#X connect 4 0 7 1;
#X connect 5 0 7 1;
#X connect 6 0 7 0;
#X connect 7 0 11 0;
#X connect 8 0 19 0;
#X connect 9 0 19 1;
#X connect 17 0 10 0;
#X connect 17 0 10 1;
#X connect 18 0 0 0;
#X connect 19 0 11 0;
#X connect 19 0 17 0;
#X connect 20 0 2 0;
