#N canvas 40 257 1068 633 10;
#X obj 381 393 dac~;
#X obj 320 150 +~;
#X obj 319 175 /~ 3;
#N canvas 454 124 450 352 standstill 0;
#X obj 85 34 inlet~;
#X obj 84 82 *~;
#X obj 169 34 inlet~;
#X obj 168 82 *~;
#X obj 249 32 inlet~;
#X obj 248 80 *~;
#X obj 117 125 +~;
#X obj 121 160 +~;
#X obj 119 196 sqrt~;
#X obj 82 290 outlet~;
#X obj 83 261 lop~ 1;
#X connect 0 0 1 0;
#X connect 0 0 1 1;
#X connect 1 0 6 0;
#X connect 2 0 3 0;
#X connect 2 0 3 1;
#X connect 3 0 6 1;
#X connect 4 0 5 0;
#X connect 4 0 5 1;
#X connect 5 0 7 1;
#X connect 6 0 7 0;
#X connect 7 0 8 0;
#X connect 8 0 10 0;
#X connect 10 0 9 0;
#X restore 108 126 pd standstill;
#X obj 306 318 drone;
#X obj 627 311 *~;
#X obj 563 311 *~;
#X obj 501 315 *~;
#X obj 442 313 *~, f 4;
#X obj 437 283 drone-high;
#X obj 508 280 drone-high;
#X obj 582 279 drone-high;
#X obj 654 279 drone-high;
#X obj 625 220 *~ 1.2;
#X obj 571 222 *~ 1;
#X obj 518 221 *~ 0.8;
#X obj 462 223 *~ 0.7;
#X obj 557 67 lop~ 100;
#X obj 118 396 dac~ 27 28 29 30;
#X obj 317 194 lop~ 100;
#X obj 314 246 *~ 5;
#X obj 321 219 -~ 0.3;
#X obj 148 66 adc~ 3 4 5 6;
#X connect 1 0 2 0;
#X connect 2 0 19 0;
#X connect 3 0 4 0;
#X connect 3 0 18 1;
#X connect 4 0 0 1;
#X connect 4 0 0 0;
#X connect 4 0 18 3;
#X connect 5 0 0 0;
#X connect 5 0 0 1;
#X connect 6 0 0 0;
#X connect 6 0 0 1;
#X connect 7 0 0 0;
#X connect 7 0 0 1;
#X connect 8 0 0 0;
#X connect 8 0 0 1;
#X connect 9 0 8 0;
#X connect 10 0 7 0;
#X connect 11 0 6 0;
#X connect 12 0 5 0;
#X connect 13 0 5 1;
#X connect 14 0 6 1;
#X connect 15 0 7 1;
#X connect 16 0 8 1;
#X connect 17 0 13 0;
#X connect 17 0 14 0;
#X connect 17 0 15 0;
#X connect 17 0 16 0;
#X connect 17 0 18 2;
#X connect 19 0 21 0;
#X connect 20 0 4 1;
#X connect 20 0 18 0;
#X connect 21 0 20 0;
#X connect 22 0 3 0;
#X connect 22 1 3 1;
#X connect 22 1 1 0;
#X connect 22 2 1 1;
#X connect 22 2 3 2;
#X connect 22 3 17 0;
