#N canvas 92 24 1172 978 12;
#X obj 649 380 bng 15 250 50 0 empty empty empty 0 -6 0 8 -262144 -1
-1;
#X obj 735 8 loadbang;
#X floatatom 721 416 5 0 0 0 - - -, f 5;
#X obj 682 450 del;
#X msg 649 476 1;
#X msg 682 476 0;
#X obj 542 402 noise~;
#X obj 562 549 *~;
#X floatatom 690 603 5 0 0 0 - - -, f 5;
#X text 739 604 damping factor (between 0 and 1);
#X text 770 409 size of the noise input;
#X text 680 677 volume control;
#X obj 623 675 *~ 0.3;
#X obj 30 382 noise~;
#X obj 30 444 *~;
#X obj 30 472 lop~ 200;
#X obj 186 131 lop~ 100;
#X obj 98 211 loadbang;
#X obj 97 247 random 100;
#X obj 96 287 / 5000;
#X obj 167 212 bng 15 250 50 0 empty empty empty 17 7 0 10 -262144
-1 -1;
#X obj 96 320 + 0.05;
#X obj 339 507 line~;
#X obj 218 512 *~;
#X obj 349 372 tgl 15 0 empty empty empty 17 7 0 10 -262144 -1 -1 0
1;
#X obj 348 398 select 1 0;
#X obj 353 285 snapshot~;
#X obj 392 209 loadbang;
#X obj 392 243 metro 1000;
#X obj 349 344 > 0.2;
#X obj 325 565 *~;
#X obj 79 92 dac~ 27 28 29 30;
#X obj 286 337 * 500;
#X obj 286 370 + 550;
#X obj 339 534 *~;
#X obj 97 352 phasor~ 0.05;
#X obj 97 381 lop~ 0.05;
#X obj 299 430 delay 10;
#X msg 406 464 0 5000;
#X obj 236 477 lop~ 0.5;
#X obj 96 23 adc~ 3 4 5 8;
#X msg 339 463 1 180000;
#X obj 422 577 *~ 2;
#X obj 623 627 *~ 0.99;
#X obj 742 507 vd~ buffer1 100;
#X obj 563 778 delwrite~ buffer1 1000;
#X obj 292 726 dac~;
#X obj 293 683 catch~ master;
#X obj 621 726 throw~ master;
#X obj 653 347 t b f;
#X obj 735 124 bng 15 250 50 0 empty empty empty 17 7 0 10 -262144
-1 -1;
#X obj 830 27 random 500;
#X obj 523 445 bp~ 3000 7;
#X obj 552 473 bp~ 5107 10;
#X obj 675 562 lop~ 12000;
#X obj 977 281 mtof;
#X obj 989 368 /;
#X msg 963 332 1000;
#X obj 975 303 t b f;
#X floatatom 989 402 5 0 0 0 - - -, f 5;
#X obj 1051 137 random 100;
#X obj 1048 163 / 100;
#X obj 791 464 line;
#X obj 789 436 list append 300;
#X obj 727 273 random 500;
#N canvas 396 319 450 300 repeater 0;
#X obj 82 223 outlet;
#X obj 81 19 inlet;
#X obj 79 108 delay 100;
#X obj 180 166 random 500;
#X obj 197 73 f;
#X obj 256 121 -;
#X obj 180 192 t b a a;
#X obj 284 165 moses 0;
#X obj 329 197 t b b;
#X obj 359 228 bng 15 250 50 0 empty empty empty 17 7 0 10 -262144
-1 -1;
#X obj 37 66 bng 15 250 50 0 empty empty empty 17 7 0 10 -262144 -1
-1;
#X obj 13 182 bng 15 250 50 0 empty empty empty 17 7 0 10 -262144 -1
-1;
#X obj 13 202 bng 15 250 50 0 empty empty empty 17 7 0 10 -262144 -1
-1;
#X floatatom 311 124 13 0 0 0 - - -, f 13;
#X floatatom 195 238 5 0 0 0 - - -, f 5;
#X floatatom 195 262 5 0 0 0 - - -, f 5;
#X msg 253 42 1000;
#X obj 91 55 t b b;
#X connect 1 0 17 0;
#X connect 2 0 0 0;
#X connect 2 0 3 0;
#X connect 2 0 11 0;
#X connect 3 0 6 0;
#X connect 3 0 2 1;
#X connect 3 0 14 0;
#X connect 4 0 5 0;
#X connect 5 0 7 0;
#X connect 5 0 13 0;
#X connect 5 0 4 1;
#X connect 6 0 4 0;
#X connect 6 1 5 1;
#X connect 6 2 2 1;
#X connect 7 1 8 0;
#X connect 8 1 9 0;
#X connect 8 1 2 0;
#X connect 10 0 2 0;
#X connect 11 0 12 0;
#X connect 14 0 15 0;
#X connect 16 0 4 1;
#X connect 17 0 2 0;
#X connect 17 1 16 0;
#X restore 519 340 pd repeater;
#X obj 506 239 random 100;
#X obj 537 269 moses 50;
#X obj 546 307 t b;
#X obj 735 89 metro 1000;
#X obj 830 61 + 1000;
#X obj 977 255 + 24;
#X obj 977 228 * 48;
#X obj 924 170 snapshot~;
#X obj 1004 34 loadbang;
#X obj 1004 68 metro 1000;
#X obj 897 134 lop~ 3;
#X obj 301 38 pow~ 2;
#X obj 361 37 pow~ 2;
#X obj 420 37 pow~ 2;
#X obj 368 101 sqrt~;
#X obj 331 70 +~;
#X obj 392 70 +~;
#X obj 376 141 snapshot~;
#X obj 428 81 loadbang;
#X obj 428 115 metro 50;
#X connect 0 0 3 0;
#X connect 0 0 4 0;
#X connect 1 0 69 0;
#X connect 2 0 3 1;
#X connect 2 0 63 0;
#X connect 3 0 5 0;
#X connect 4 0 7 1;
#X connect 5 0 7 1;
#X connect 6 0 52 0;
#X connect 6 0 53 0;
#X connect 7 0 45 0;
#X connect 8 0 43 1;
#X connect 12 0 48 0;
#X connect 13 0 14 0;
#X connect 14 0 15 0;
#X connect 15 0 23 0;
#X connect 16 0 26 0;
#X connect 16 0 39 0;
#X connect 17 0 18 0;
#X connect 18 0 19 0;
#X connect 19 0 21 0;
#X connect 20 0 18 0;
#X connect 21 0 35 0;
#X connect 22 0 34 0;
#X connect 22 0 34 1;
#X connect 23 0 30 0;
#X connect 24 0 25 0;
#X connect 25 0 37 0;
#X connect 25 1 38 0;
#X connect 26 0 29 0;
#X connect 26 0 32 0;
#X connect 27 0 28 0;
#X connect 28 0 26 0;
#X connect 29 0 24 0;
#X connect 30 0 42 0;
#X connect 32 0 33 0;
#X connect 33 0 15 1;
#X connect 34 0 30 1;
#X connect 35 0 36 0;
#X connect 36 0 14 1;
#X connect 37 0 41 0;
#X connect 38 0 22 0;
#X connect 39 0 23 1;
#X connect 40 0 31 0;
#X connect 40 0 77 0;
#X connect 40 1 31 1;
#X connect 40 1 78 0;
#X connect 40 2 31 2;
#X connect 40 2 79 0;
#X connect 40 3 16 0;
#X connect 41 0 22 0;
#X connect 43 0 12 0;
#X connect 43 0 45 0;
#X connect 44 0 54 0;
#X connect 47 0 46 0;
#X connect 47 0 46 1;
#X connect 49 0 0 0;
#X connect 49 0 66 0;
#X connect 49 1 2 0;
#X connect 50 0 64 0;
#X connect 50 0 60 0;
#X connect 51 0 70 0;
#X connect 52 0 7 0;
#X connect 53 0 7 0;
#X connect 54 0 43 0;
#X connect 55 0 58 0;
#X connect 56 0 49 0;
#X connect 56 0 59 0;
#X connect 57 0 56 0;
#X connect 58 0 57 0;
#X connect 58 1 56 1;
#X connect 60 0 61 0;
#X connect 61 0 72 0;
#X connect 62 0 44 0;
#X connect 63 0 62 0;
#X connect 64 0 63 1;
#X connect 65 0 0 0;
#X connect 66 0 67 0;
#X connect 67 0 68 0;
#X connect 68 0 65 0;
#X connect 69 0 51 0;
#X connect 69 0 50 0;
#X connect 70 0 69 1;
#X connect 71 0 55 0;
#X connect 72 0 71 0;
#X connect 74 0 75 0;
#X connect 75 0 73 0;
#X connect 76 0 73 0;
#X connect 77 0 81 0;
#X connect 78 0 82 0;
#X connect 79 0 82 1;
#X connect 80 0 83 0;
#X connect 80 0 31 3;
#X connect 81 0 80 0;
#X connect 82 0 81 1;
#X connect 84 0 85 0;
#X connect 85 0 83 0;
