#N canvas 77 186 1068 503 10;
#X obj 235 322 dac~;
#X text 36 419 ADC 3: Analog In 0;
#X text 35 353 ADC routing:;
#X text 35 361 ------------;
#X text 36 429 ADC 4: Analog In 1;
#X text 36 439 ADC 5: Analog In 2;
#X text 36 449 ADC 6: Analog In 3;
#X text 36 459 ADC 7: Analog In 4;
#X text 36 469 ADC 8: Analog In 5;
#X text 36 479 ADC 9: Analog In 6;
#X text 36 489 ADC 10: Analog In 7;
#X text 36 399 ADC 1: Audio In L;
#X text 36 409 ADC 2: Audio In R;
#X text 36 373 ADC channels 3-10 are used to address the analog inputs:
;
#X obj 148 66 adc~ 3 4 5 10;
#X obj 48 256 chime;
#X obj 89 257 chime;
#X obj 126 256 chime;
#X obj 170 257 chime;
#X obj 210 252 chime;
#X obj 251 253 chime;
#X obj 292 259 chime;
#X obj 334 259 chime;
#X obj 379 260 chime;
#X obj 417 258 chime;
#X obj 459 259 chime;
#X obj 509 256 chime;
#X obj 655 74 +~;
#X obj 655 96 +~;
#X obj 654 121 /~ 3;
#X obj 655 145 lop~ 1;
#X obj 336 86 lop~ 1000;
#N canvas 933 354 450 352 standstill 0;
#X obj 85 34 inlet~;
#X obj 84 82 *~;
#X obj 169 34 inlet~;
#X obj 168 82 *~;
#X obj 249 32 inlet~;
#X obj 248 80 *~;
#X obj 117 125 +~;
#X obj 121 160 +~;
#X obj 119 196 sqrt~;
#X obj 82 290 outlet~;
#X obj 49 193 sig~ 1;
#X obj 75 226 -~;
#X obj 83 261 lop~ 1;
#X connect 0 0 1 0;
#X connect 0 0 1 1;
#X connect 1 0 6 0;
#X connect 2 0 3 0;
#X connect 2 0 3 1;
#X connect 3 0 6 1;
#X connect 4 0 5 0;
#X connect 4 0 5 1;
#X connect 5 0 7 1;
#X connect 6 0 7 0;
#X connect 7 0 8 0;
#X connect 8 0 11 1;
#X connect 10 0 11 0;
#X connect 11 0 12 0;
#X connect 12 0 9 0;
#X restore 108 126 pd standstill;
#X obj 641 264 drone;
#X obj 683 266 drone;
#X obj 732 268 drone;
#X obj 779 263 drone;
#X connect 14 0 27 0;
#X connect 14 0 32 0;
#X connect 14 1 27 1;
#X connect 14 1 32 1;
#X connect 14 2 28 1;
#X connect 14 2 32 2;
#X connect 14 3 31 0;
#X connect 15 0 0 0;
#X connect 15 0 0 1;
#X connect 16 0 0 0;
#X connect 16 0 0 1;
#X connect 17 0 0 0;
#X connect 17 0 0 1;
#X connect 18 0 0 0;
#X connect 18 0 0 1;
#X connect 19 0 0 0;
#X connect 19 0 0 1;
#X connect 20 0 0 0;
#X connect 20 0 0 1;
#X connect 21 0 0 0;
#X connect 21 0 0 1;
#X connect 22 0 0 0;
#X connect 22 0 0 1;
#X connect 23 0 0 0;
#X connect 23 0 0 1;
#X connect 24 0 0 0;
#X connect 24 0 0 1;
#X connect 25 0 0 0;
#X connect 25 0 0 1;
#X connect 26 0 0 0;
#X connect 26 0 0 1;
#X connect 27 0 28 0;
#X connect 28 0 29 0;
#X connect 29 0 30 0;
#X connect 30 0 36 1;
#X connect 30 0 35 1;
#X connect 30 0 34 1;
#X connect 30 0 33 1;
#X connect 30 0 15 1;
#X connect 30 0 26 1;
#X connect 30 0 25 1;
#X connect 30 0 24 1;
#X connect 30 0 23 1;
#X connect 30 0 22 1;
#X connect 30 0 21 1;
#X connect 30 0 20 1;
#X connect 30 0 19 1;
#X connect 30 0 18 1;
#X connect 30 0 17 1;
#X connect 30 0 16 1;
#X connect 31 0 26 2;
#X connect 31 0 25 2;
#X connect 31 0 24 2;
#X connect 31 0 23 2;
#X connect 31 0 22 2;
#X connect 31 0 21 2;
#X connect 31 0 20 2;
#X connect 31 0 19 2;
#X connect 31 0 18 2;
#X connect 31 0 17 2;
#X connect 31 0 16 2;
#X connect 31 0 15 2;
#X connect 32 0 15 0;
#X connect 32 0 26 0;
#X connect 32 0 25 0;
#X connect 32 0 24 0;
#X connect 32 0 23 0;
#X connect 32 0 22 0;
#X connect 32 0 21 0;
#X connect 32 0 20 0;
#X connect 32 0 19 0;
#X connect 32 0 18 0;
#X connect 32 0 17 0;
#X connect 32 0 16 0;
#X connect 33 0 0 0;
#X connect 33 0 0 1;
#X connect 34 0 0 0;
#X connect 34 0 0 1;
#X connect 35 0 0 0;
#X connect 35 0 0 1;
#X connect 36 0 0 0;
#X connect 36 0 0 1;
