#N canvas 88 119 560 393 10;
#X obj 184 354 outlet~;
#X obj 194 24 loadbang;
#X obj 226 219 osc~;
#X obj 114 236 *~;
#X obj 236 77 random 1000;
#X obj 81 149 osc~;
#X obj 279 267 *~;
#X obj 236 124 sig~;
#X obj 236 102 / 1000;
#X obj 465 39 inlet~;
#X obj 51 43 inlet~;
#X obj 52 78 +~ 0.5;
#X obj 83 122 *~;
#X obj 190 307 *~ 0.2;
#X obj 342 29 inlet~;
#X obj 260 196 *~;
#X obj 344 52 +~ 1;
#X obj 232 147 *~ 0.02;
#X obj 231 171 +~ 0.01;
#X obj 129 82 + 300;
#X obj 141 50 random 600;
#X connect 1 0 4 0;
#X connect 1 0 20 0;
#X connect 2 0 3 1;
#X connect 3 0 6 0;
#X connect 4 0 8 0;
#X connect 5 0 3 0;
#X connect 6 0 13 0;
#X connect 7 0 17 0;
#X connect 8 0 7 0;
#X connect 9 0 6 1;
#X connect 10 0 11 0;
#X connect 11 0 12 0;
#X connect 12 0 5 0;
#X connect 13 0 0 0;
#X connect 14 0 16 0;
#X connect 15 0 2 0;
#X connect 16 0 15 1;
#X connect 17 0 18 0;
#X connect 18 0 15 0;
#X connect 19 0 12 1;
#X connect 20 0 19 0;
