#N canvas 53 64 1619 937 10;
#X obj 90 46 adc~ 3 4 5 8;
#X obj 77 139 dac~ 27 28 29 30;
#N canvas 0 22 450 300 magnitude 0;
#X obj 38 65 pow~ 2;
#X obj 89 65 pow~ 2;
#X obj 142 66 pow~ 2;
#X obj 58 97 +~;
#X obj 124 94 +~;
#X obj 85 125 sqrt~;
#X obj 27 19 inlet~;
#X obj 82 18 inlet~;
#X obj 138 17 inlet~;
#X obj 90 171 outlet~;
#X connect 0 0 3 0;
#X connect 1 0 4 0;
#X connect 2 0 4 1;
#X connect 3 0 5 0;
#X connect 4 0 3 1;
#X connect 5 0 9 0;
#X connect 6 0 0 0;
#X connect 7 0 1 0;
#X connect 8 0 2 0;
#X restore 229 72 pd magnitude;
#X obj 509 57 tgl 15 0 empty empty empty 17 7 0 10 -262144 -1 -1 0
1;
#X obj 215 719 array define accelrec 64;
#X msg 215 693 const 0;
#X obj 215 666 loadbang;
#X obj 514 112 f;
#X floatatom 504 136 5 0 0 0 - - -, f 5;
#X obj 549 113 + 1;
#X obj 549 139 % 64;
#X obj 490 179 snapshot~;
#X obj 504 155 t b f;
#X obj 500 221 array set accelrec;
#X obj 221 106 -~ 0.779;
#N canvas 769 113 450 300 pickup 0;
#X obj 63 24 inlet~;
#X obj 67 119 snapshot~;
#X obj 69 259 print pickup;
#X obj 138 76 metro 10;
#X obj 136 24 loadbang;
#X obj 147 47 tgl 15 0 empty empty empty 17 7 0 10 -262144 -1 -1 1
1;
#X obj 67 213 select 1;
#X obj 72 234 f;
#X obj 71 152 t f f;
#X obj 176 256 outlet;
#X obj 305 30 loadbang;
#X obj 65 186 >;
#X text 290 118 pickup threshold;
#X msg 305 80 0.06;
#X connect 0 0 1 0;
#X connect 1 0 8 0;
#X connect 3 0 1 0;
#X connect 4 0 5 0;
#X connect 5 0 3 0;
#X connect 6 0 7 0;
#X connect 7 0 2 0;
#X connect 7 0 9 0;
#X connect 8 0 11 0;
#X connect 8 1 7 1;
#X connect 10 0 13 0;
#X connect 11 0 6 0;
#X connect 13 0 11 1;
#X restore 222 141 pd pickup;
#X obj 155 335 osc~ 440;
#X obj 148 561 dac~ 1 2;
#X obj 155 387 *~ 0.6;
#X obj 220 334 vline~;
#X msg 224 309 1 50 \, 0 100 50;
#X obj 155 358 *~;
#X obj 158 288 *~ 500;
#X obj 157 313 +~ 100;
#X msg 445 35 1;
#X obj 427 61 bng 15 250 50 0 empty empty empty 17 7 0 10 -262144 -1
-1;
#X msg 427 111 0;
#X obj 425 84 delay 2560;
#X obj 509 78 metro 40;
#X obj 302 193 print writestart;
#X obj 349 219 print writestop;
#X obj 449 380 array get accelrec;
#X obj 448 356 bng 15 250 50 0 empty empty empty 17 7 0 10 -262144
-1 -1;
#X obj 448 402 print comp, f 11;
#X obj 449 335 metro 5000;
#X obj 445 287 loadbang;
#X obj 446 311 tgl 15 0 empty empty empty 17 7 0 10 -262144 -1 -1 1
1;
#N canvas 155 295 829 686 arrayreadsynth 0;
#X obj 184 610 outlet~;
#X obj 186 56 tgl 15 0 empty empty empty 17 7 0 10 -262144 -1 -1 1
1;
#X obj 257 137 f;
#X floatatom 257 162 5 0 0 0 - - -, f 5;
#X obj 298 138 + 1;
#X obj 302 165 % 64;
#X obj 190 34 loadbang;
#X msg 290 203 1;
#X obj 186 77 metro 300;
#X obj 244 229 array get accelrec;
#X obj 213 436 osc~ 440;
#X obj 159 435 vline~;
#X msg 163 410 1 50 \, 0 100 50;
#X obj 192 464 *~;
#X obj 176 349 + 100;
#X obj 173 373 t b f;
#X obj 619 225 array min accelrec;
#X obj 257 181 t f b b b;
#X obj 435 225 array max accelrec;
#X obj 544 263 -;
#X obj 382 285 /;
#X obj 364 261 -;
#X text 522 287 get max-min;
#X text 344 308 scale array 0-1;
#X text 233 341 choose frequencies;
#X obj 290 103 bng 15 250 50 0 empty empty empty 17 7 0 10 -262144
-1 -1;
#X text 313 104 play next note in array;
#X obj 177 276 * 10;
#X obj 177 300 int;
#X obj 175 325 * 100;
#X connect 1 0 8 0;
#X connect 2 0 3 0;
#X connect 2 0 4 0;
#X connect 3 0 17 0;
#X connect 4 0 5 0;
#X connect 5 0 2 1;
#X connect 6 0 1 0;
#X connect 7 0 9 1;
#X connect 8 0 25 0;
#X connect 9 0 21 0;
#X connect 10 0 13 0;
#X connect 11 0 13 1;
#X connect 12 0 11 0;
#X connect 13 0 0 0;
#X connect 14 0 15 0;
#X connect 15 0 12 0;
#X connect 15 1 10 0;
#X connect 16 0 19 1;
#X connect 16 0 21 1;
#X connect 17 0 9 0;
#X connect 17 1 7 0;
#X connect 17 2 16 0;
#X connect 17 3 18 0;
#X connect 18 0 19 0;
#X connect 19 0 20 1;
#X connect 20 0 27 0;
#X connect 21 0 20 0;
#X connect 25 0 2 0;
#X connect 27 0 28 0;
#X connect 28 0 29 0;
#X connect 29 0 14 0;
#X restore 200 445 pd arrayreadsynth;
#X obj 158 263 adc~ 4;
#X floatatom 802 279 5 0 0 0 - - -, f 5;
#X floatatom 802 382 5 0 0 0 - - -, f 5;
#X obj 802 225 f;
#X obj 845 218 + 1;
#X obj 802 591 dac~;
#X floatatom 861 151 5 0 0 0 - - -, f 5;
#X floatatom 884 217 5 0 0 0 - - -, f 5;
#X obj 845 240 mod 65;
#X obj 1240 130 table major-scale;
#X obj 1239 155 table harmonic-minor;
#X obj 1239 29 loadbang;
#X obj 1239 177 table melodic-minor;
#X msg 1239 53 \; major-scale 0 0 2 4 5 7 9 11 \; harmonic-minor 0
0 2 3 5 7 8 11 \; melodic-minor 0 0 2 3 5 7 9 11 \; natural-minor 0
0 2 3 5 7 9 10 \;;
#X obj 1239 200 table natural-minor;
#N canvas 0 23 450 278 (subpatch) 0;
#X array myMelody 64 float 2;
#X coords 0 127 64 0 250 200 1 0 0;
#X restore 1239 255 graph;
#X obj 1161 30 loadbang;
#X msg 1161 54 \; myMelody;
#X obj 802 131 tgl 15 0 empty empty empty 17 7 0 10 -262144 -1 -1 0
1;
#X obj 841 62 loadbang;
#X obj 802 479 bng 15 250 50 0 empty empty empty 17 7 0 10 -262144
-1 -1;
#X floatatom 832 462 5 0 1 3 Decay - -, f 5;
#X floatatom 884 461 5 0 5000 3 Cutoff - -, f 5;
#X floatatom 841 534 5 0 0 0 - - -, f 5;
#X obj 802 404 sel 0;
#X obj 802 431 t b f b;
#X obj 802 109 spigot;
#X obj 841 87 tgl 15 0 empty empty empty 17 7 0 10 -262144 -1 -1 1
1;
#N canvas 397 24 292 365 random-volume 0;
#X obj 93 103 random 100;
#X floatatom 93 181 5 0 0 0 - - -, f 5;
#X obj 93 79 bng 15 250 50 0 empty empty empty 17 7 0 10 -262144 -1
-1;
#X obj 93 155 + 0;
#X obj 93 129 / 100;
#X obj 93 52 inlet;
#X obj 93 211 outlet;
#X connect 0 0 4 0;
#X connect 1 0 6 0;
#X connect 2 0 0 0;
#X connect 3 0 1 0;
#X connect 4 0 3 0;
#X connect 5 0 2 0;
#X restore 972 456 pd random-volume;
#N canvas 397 24 459 382 random-pitch 0;
#X obj 54 39 inlet;
#X obj 322 129 random 62;
#X obj 193 216 + 1;
#X obj 289 216 + 2;
#X obj 54 239 pack 0 0;
#X obj 140 239 pack 0 0;
#X obj 236 239 pack 0 0;
#X obj 54 97 bng 15 250 50 0 empty empty empty 17 7 0 10 -262144 -1
-1;
#X obj 54 273 tabwrite myMelody;
#X obj 54 67 sel 1;
#X obj 54 129 random 36;
#X obj 140 129 random 36;
#X obj 236 129 random 36;
#X obj 54 163 + 24;
#X obj 140 163 + 24;
#X obj 236 163 + 24;
#X connect 0 0 9 0;
#X connect 1 0 2 0;
#X connect 1 0 3 0;
#X connect 1 0 4 1;
#X connect 2 0 5 1;
#X connect 3 0 6 1;
#X connect 4 0 8 0;
#X connect 5 0 8 0;
#X connect 6 0 8 0;
#X connect 7 0 1 0;
#X connect 7 0 10 0;
#X connect 7 0 11 0;
#X connect 7 0 12 0;
#X connect 9 0 7 0;
#X connect 10 0 13 0;
#X connect 11 0 14 0;
#X connect 12 0 15 0;
#X connect 13 0 4 0;
#X connect 14 0 5 0;
#X connect 15 0 6 0;
#X restore 1036 343 pd random-pitch;
#N canvas 397 24 303 429 reset-pitches 0;
#X obj 54 39 inlet;
#X msg 54 94 bang;
#X obj 54 152 until;
#X msg 62 121 3;
#X obj 54 180 f;
#X obj 92 180 + 1;
#X obj 137 179 sel 0;
#X obj 92 206 mod 65;
#X obj 54 279 pack 0 0;
#X obj 54 228 t b f;
#X msg 54 254 0;
#X obj 54 308 tabwrite myMelody;
#X obj 73 67 loadbang;
#X connect 0 0 1 0;
#X connect 1 0 2 0;
#X connect 2 0 4 0;
#X connect 3 0 2 0;
#X connect 4 0 5 0;
#X connect 4 0 9 0;
#X connect 5 0 7 0;
#X connect 6 0 2 1;
#X connect 7 0 4 1;
#X connect 7 0 6 0;
#X connect 8 0 11 0;
#X connect 9 0 10 0;
#X connect 9 1 8 1;
#X connect 10 0 8 0;
#X connect 12 0 1 0;
#X restore 676 181 pd reset-pitches;
#N canvas 0 23 450 300 sensor-input 0;
#N canvas 454 124 450 352 standstill 0;
#X obj 85 34 inlet~;
#X obj 84 82 *~;
#X obj 169 34 inlet~;
#X obj 168 82 *~;
#X obj 249 32 inlet~;
#X obj 248 80 *~;
#X obj 117 125 +~;
#X obj 121 160 +~;
#X obj 119 196 sqrt~;
#X obj 82 290 outlet~;
#X obj 83 261 lop~ 1;
#X connect 0 0 1 0;
#X connect 0 0 1 1;
#X connect 1 0 6 0;
#X connect 2 0 3 0;
#X connect 2 0 3 1;
#X connect 3 0 6 1;
#X connect 4 0 5 0;
#X connect 4 0 5 1;
#X connect 5 0 7 1;
#X connect 6 0 7 0;
#X connect 7 0 8 0;
#X connect 8 0 10 0;
#X connect 10 0 9 0;
#X restore 52 65 pd standstill;
#X obj 173 107 lop~ 100;
#X obj 173 140 snapshot~;
#X obj 291 65 loadbang;
#X obj 291 101 metro 1000;
#X obj 173 165 > 0.2;
#X obj 160 65 dac~ 27 28 29 30;
#X obj 52 30 adc~ 3 4 5 8;
#X obj 173 189 change;
#X obj 173 221 outlet;
#X connect 1 0 2 0;
#X connect 2 0 5 0;
#X connect 3 0 4 0;
#X connect 4 0 2 0;
#X connect 5 0 8 0;
#X connect 7 0 0 0;
#X connect 7 1 0 1;
#X connect 7 2 0 2;
#X connect 7 3 1 0;
#X connect 7 3 6 0;
#X connect 8 0 9 0;
#X restore 802 37 pd sensor-input;
#X text 858 89 turn off for testing offline;
#X obj 676 155 sel 0;
#N canvas 0 23 302 396 waiting-mode 0;
#X obj 99 107 loadbang;
#X obj 60 172 metro 60000;
#X obj 60 146 tgl 15 0 empty empty empty 17 7 0 10 -262144 -1 -1 1
1;
#X obj 60 84 - 1;
#X obj 60 109 abs;
#X obj 60 223 random 36;
#X obj 60 248 + 24;
#X obj 60 198 bng 15 250 50 0 empty empty empty 17 7 0 10 -262144 -1
-1;
#X obj 60 47 inlet;
#X obj 60 291 outlet;
#X connect 0 0 2 0;
#X connect 1 0 7 0;
#X connect 2 0 1 0;
#X connect 3 0 4 0;
#X connect 4 0 2 0;
#X connect 5 0 6 0;
#X connect 6 0 9 0;
#X connect 7 0 5 0;
#X connect 8 0 3 0;
#X restore 672 278 pd waiting-mode;
#N canvas 115 72 1238 911 melodic-pitch 0;
#X obj 64 239 inlet;
#X obj 607 582 random 62;
#X obj 208 622 + 1;
#X obj 304 622 + 2;
#X obj 64 645 pack 0 0;
#X obj 155 645 pack 0 0;
#X obj 251 645 pack 0 0;
#X obj 64 297 bng 15 250 50 0 empty empty empty 17 7 0 10 -262144 -1
-1;
#X obj 64 722 tabwrite myMelody;
#X obj 64 267 sel 1;
#X floatatom 64 428 5 0 0 0 - - -, f 5;
#X floatatom 64 483 5 0 0 0 - - -, f 5;
#X obj 64 400 random 7;
#X obj 64 452 tabread melodic-minor;
#X floatatom 238 428 5 0 0 0 - - -, f 5;
#X floatatom 238 483 5 0 0 0 - - -, f 5;
#X obj 238 400 random 7;
#X obj 238 452 tabread melodic-minor;
#X floatatom 418 428 5 0 0 0 - - -, f 5;
#X floatatom 418 483 5 0 0 0 - - -, f 5;
#X obj 418 400 random 7;
#X obj 418 452 tabread melodic-minor;
#X obj 64 569 + 36;
#X obj 155 569 + 36;
#X obj 251 569 + 36;
#X obj 355 645 pack 0 0;
#X obj 355 569 + 36;
#X obj 462 645 pack 0 0;
#X obj 462 569 + 36;
#X floatatom 506 332 5 0 0 0 - - -, f 5;
#X floatatom 581 428 5 0 0 0 - - -, f 5;
#X floatatom 581 483 5 0 0 0 - - -, f 5;
#X obj 581 400 random 7;
#X obj 581 452 tabread melodic-minor;
#X floatatom 761 428 5 0 0 0 - - -, f 5;
#X floatatom 761 483 5 0 0 0 - - -, f 5;
#X obj 761 400 random 7;
#X obj 761 452 tabread melodic-minor;
#X obj 408 622 + 3;
#X obj 515 622 + 4;
#X obj 506 218 bng 15 250 50 0 empty empty empty 17 7 0 10 -262144
-1 -1;
#X obj 506 303 * 12;
#X obj 506 274 + 2;
#X obj 464 189 inlet;
#X obj 506 245 random 3;
#X obj 458 224 bng 15 250 50 0 empty empty empty 17 7 0 10 -262144
-1 -1;
#X obj 429 267 random 36;
#X obj 429 298 + 24;
#X connect 0 0 9 0;
#X connect 1 0 2 0;
#X connect 1 0 3 0;
#X connect 1 0 4 1;
#X connect 1 0 38 0;
#X connect 1 0 39 0;
#X connect 2 0 5 1;
#X connect 3 0 6 1;
#X connect 4 0 8 0;
#X connect 5 0 8 0;
#X connect 6 0 8 0;
#X connect 7 0 1 0;
#X connect 7 0 12 0;
#X connect 7 0 16 0;
#X connect 7 0 20 0;
#X connect 7 0 32 0;
#X connect 7 0 36 0;
#X connect 9 0 7 0;
#X connect 10 0 13 0;
#X connect 11 0 22 0;
#X connect 12 0 10 0;
#X connect 13 0 11 0;
#X connect 14 0 17 0;
#X connect 15 0 23 0;
#X connect 16 0 14 0;
#X connect 17 0 15 0;
#X connect 18 0 21 0;
#X connect 19 0 24 0;
#X connect 20 0 18 0;
#X connect 21 0 19 0;
#X connect 22 0 4 0;
#X connect 23 0 5 0;
#X connect 24 0 6 0;
#X connect 26 0 25 0;
#X connect 28 0 27 0;
#X connect 29 0 28 1;
#X connect 29 0 26 1;
#X connect 29 0 24 1;
#X connect 29 0 23 1;
#X connect 29 0 22 1;
#X connect 30 0 33 0;
#X connect 31 0 26 0;
#X connect 32 0 30 0;
#X connect 33 0 31 0;
#X connect 34 0 37 0;
#X connect 35 0 28 0;
#X connect 36 0 34 0;
#X connect 37 0 35 0;
#X connect 38 0 25 1;
#X connect 39 0 27 1;
#X connect 40 0 44 0;
#X connect 41 0 29 0;
#X connect 42 0 41 0;
#X connect 43 0 45 0;
#X connect 44 0 42 0;
#X connect 45 0 46 0;
#X connect 46 0 47 0;
#X connect 47 0 29 0;
#X restore 984 313 pd melodic-pitch;
#X obj 802 510 pluck~;
#X obj 1007 227 sel 0;
#X obj 802 555 *~ 1;
#X obj 802 182 metro 200;
#X floatatom 875 388 5 0 0 0 - - -, f 5;
#N canvas 230 526 931 416 proc_accel_array 0;
#X obj 120 12 inlet;
#X obj 242 267 outlet;
#X msg 149 95 1;
#X obj 103 121 array get accelrec;
#X obj 478 117 array min accelrec;
#X obj 116 73 t f b b b;
#X obj 294 117 array max accelrec;
#X obj 403 155 -;
#X obj 241 177 /;
#X obj 223 153 -;
#X text 381 179 get max-min;
#X obj 243 245 int;
#X obj 241 217 * 64;
#X connect 0 0 5 0;
#X connect 2 0 3 1;
#X connect 3 0 9 0;
#X connect 4 0 7 1;
#X connect 4 0 9 1;
#X connect 5 0 3 0;
#X connect 5 1 2 0;
#X connect 5 2 4 0;
#X connect 5 3 6 0;
#X connect 6 0 7 0;
#X connect 7 0 8 1;
#X connect 8 0 12 0;
#X connect 9 0 8 0;
#X connect 11 0 1 0;
#X connect 12 0 11 0;
#X restore 826 330 pd proc_accel_array;
#X obj 598 501 print notes;
#X obj 825 357 tabread myMelody;
#X floatatom 926 386 5 0 0 0 - - -, f 5;
#X obj 933 409 print MIDI;
#X connect 0 0 1 0;
#X connect 0 0 2 0;
#X connect 0 1 1 1;
#X connect 0 1 2 1;
#X connect 0 1 11 0;
#X connect 0 2 1 2;
#X connect 0 2 2 2;
#X connect 2 0 14 0;
#X connect 3 0 28 0;
#X connect 5 0 4 0;
#X connect 6 0 5 0;
#X connect 7 0 8 0;
#X connect 7 0 9 0;
#X connect 8 0 12 0;
#X connect 9 0 10 0;
#X connect 10 0 7 1;
#X connect 11 0 13 0;
#X connect 12 0 11 0;
#X connect 12 1 13 1;
#X connect 14 0 1 3;
#X connect 14 0 15 0;
#X connect 15 0 20 0;
#X connect 15 0 24 0;
#X connect 16 0 21 0;
#X connect 18 0 17 0;
#X connect 18 0 17 1;
#X connect 19 0 21 1;
#X connect 20 0 19 0;
#X connect 21 0 18 0;
#X connect 22 0 23 0;
#X connect 23 0 16 0;
#X connect 24 0 3 0;
#X connect 24 0 25 0;
#X connect 24 0 29 0;
#X connect 25 0 27 0;
#X connect 26 0 3 0;
#X connect 26 0 30 0;
#X connect 27 0 26 0;
#X connect 28 0 7 0;
#X connect 31 0 33 0;
#X connect 32 0 31 0;
#X connect 34 0 32 0;
#X connect 35 0 36 0;
#X connect 36 0 34 0;
#X connect 38 0 22 0;
#X connect 39 0 73 0;
#X connect 39 0 79 0;
#X connect 40 0 62 0;
#X connect 41 0 42 0;
#X connect 41 0 39 0;
#X connect 42 0 46 0;
#X connect 44 0 77 1;
#X connect 45 0 46 1;
#X connect 46 0 41 1;
#X connect 49 0 51 0;
#X connect 54 0 55 0;
#X connect 56 0 71 0;
#X connect 56 0 72 0;
#X connect 56 0 75 0;
#X connect 56 0 77 0;
#X connect 57 0 65 0;
#X connect 58 0 74 0;
#X connect 59 0 74 2;
#X connect 60 0 74 3;
#X connect 61 0 76 1;
#X connect 62 1 63 0;
#X connect 63 0 58 0;
#X connect 63 1 74 1;
#X connect 63 2 66 0;
#X connect 64 0 56 0;
#X connect 65 0 64 1;
#X connect 66 0 74 4;
#X connect 69 0 64 0;
#X connect 71 0 68 0;
#X connect 72 0 40 0;
#X connect 74 0 76 0;
#X connect 75 0 73 1;
#X connect 76 0 43 1;
#X connect 76 0 43 0;
#X connect 77 0 41 0;
#X connect 79 0 78 0;
#X connect 79 0 80 0;
#X connect 79 0 81 0;
#X connect 81 0 40 0;
#X connect 81 0 82 0;
#X connect 82 0 83 0;
