#N canvas 202 22 1275 929 10;
#X obj 90 46 adc~ 3 4 5 8;
#X obj 77 139 dac~ 27 28 29 30;
#N canvas 0 22 450 300 magnitude 0;
#X obj 38 65 pow~ 2;
#X obj 89 65 pow~ 2;
#X obj 142 66 pow~ 2;
#X obj 58 97 +~;
#X obj 124 94 +~;
#X obj 85 125 sqrt~;
#X obj 27 19 inlet~;
#X obj 82 18 inlet~;
#X obj 138 17 inlet~;
#X obj 90 171 outlet~;
#X connect 0 0 3 0;
#X connect 1 0 4 0;
#X connect 2 0 4 1;
#X connect 3 0 5 0;
#X connect 4 0 3 1;
#X connect 5 0 9 0;
#X connect 6 0 0 0;
#X connect 7 0 1 0;
#X connect 8 0 2 0;
#X restore 229 72 pd magnitude;
#X obj 509 57 tgl 15 0 empty empty empty 17 7 0 10 -262144 -1 -1 0
1;
#X obj 905 119 array define accelrec 64;
#X msg 905 93 const 0;
#X obj 905 66 loadbang;
#X obj 514 112 f;
#X floatatom 504 136 5 0 0 0 - - -, f 5;
#X obj 549 113 + 1;
#X obj 549 139 % 64;
#X obj 490 179 snapshot~;
#X obj 504 155 t b f;
#X obj 500 221 array set accelrec;
#X obj 221 106 -~ 0.779;
#N canvas 769 113 450 300 pickup 0;
#X obj 63 24 inlet~;
#X obj 67 119 snapshot~;
#X obj 69 259 print pickup;
#X obj 138 76 metro 10;
#X obj 136 24 loadbang;
#X obj 147 47 tgl 15 0 empty empty empty 17 7 0 10 -262144 -1 -1 1
1;
#X obj 67 213 select 1;
#X obj 72 234 f;
#X obj 165 161 t f f;
#X obj 65 186 > 0.03;
#X obj 176 256 outlet;
#X connect 0 0 1 0;
#X connect 1 0 8 0;
#X connect 3 0 1 0;
#X connect 4 0 5 0;
#X connect 5 0 3 0;
#X connect 6 0 7 0;
#X connect 7 0 2 0;
#X connect 7 0 10 0;
#X connect 8 0 9 0;
#X connect 8 1 7 1;
#X connect 9 0 6 0;
#X restore 222 141 pd pickup;
#X obj 155 335 osc~ 440;
#X obj 148 561 dac~ 1 2;
#X obj 155 387 *~ 0.6;
#X obj 220 334 vline~;
#X msg 224 309 1 50 \, 0 100 50;
#X obj 155 358 *~;
#X obj 158 288 *~ 500;
#X obj 157 313 +~ 100;
#N canvas 748 245 726 617 irstandstill 0;
#X obj 395 106 lop~ 100;
#X obj 378 452 line~;
#X obj 388 317 tgl 15 0 empty empty empty 17 7 0 10 -262144 -1 -1 0
1;
#X obj 387 343 select 1 0;
#X obj 392 230 snapshot~;
#X obj 431 154 loadbang;
#X obj 431 188 metro 1000;
#X obj 388 289 > 0.2;
#X obj 338 375 delay 10;
#X msg 445 409 0 5000;
#X obj 138 105 adc~ 8;
#X obj 380 511 outlet~;
#X obj 467 508 outlet;
#X msg 378 408 1 20000;
#X connect 0 0 4 0;
#X connect 1 0 11 0;
#X connect 2 0 3 0;
#X connect 3 0 8 0;
#X connect 3 1 9 0;
#X connect 3 1 12 0;
#X connect 4 0 7 0;
#X connect 5 0 6 0;
#X connect 6 0 4 0;
#X connect 7 0 2 0;
#X connect 8 0 13 0;
#X connect 8 0 12 0;
#X connect 9 0 1 0;
#X connect 10 0 0 0;
#X connect 13 0 1 0;
#X restore 216 422 pd irstandstill;
#X obj 203 470 *~;
#X msg 445 35 1;
#X obj 427 61 bng 15 250 50 0 empty empty empty 17 7 0 10 -262144 -1
-1;
#X msg 427 111 0;
#X obj 425 84 delay 2560;
#X obj 509 78 metro 40;
#X obj 302 193 print writestart;
#X obj 349 219 print writestop;
#X obj 629 473 array get accelrec;
#X obj 628 449 bng 15 250 50 0 empty empty empty 17 7 0 10 -262144
-1 -1;
#X obj 628 495 print comp, f 11;
#X obj 629 428 metro 5000;
#X obj 625 380 loadbang;
#X obj 626 404 tgl 15 0 empty empty empty 17 7 0 10 -262144 -1 -1 1
1;
#N canvas 0 22 829 686 arrayreadsynth 1;
#X obj 184 610 outlet~;
#X obj 186 56 tgl 15 0 empty empty empty 17 7 0 10 -262144 -1 -1 1
1;
#X obj 257 137 f;
#X floatatom 257 162 5 0 0 0 - - -, f 5;
#X obj 298 138 + 1;
#X obj 302 165 % 64;
#X obj 190 34 loadbang;
#X msg 290 203 1;
#X obj 186 77 metro 300;
#X obj 244 229 array get accelrec;
#X obj 213 436 osc~ 440;
#X obj 159 435 vline~;
#X msg 163 410 1 50 \, 0 100 50;
#X obj 192 464 *~;
#X obj 188 318 * 1000;
#X obj 189 342 + 100;
#X obj 173 373 t b f;
#X obj 619 225 array min accelrec;
#X obj 257 181 t f b b b;
#X obj 435 225 array max accelrec;
#X obj 544 263 -;
#X obj 382 285 /;
#X obj 364 261 -;
#X text 522 287 get max-min;
#X text 344 308 scale array 0-1;
#X text 246 334 choose frequencies;
#X obj 290 103 bng 15 250 50 0 empty empty empty 17 7 0 10 -262144
-1 -1;
#X text 313 104 play next note in array;
#X connect 1 0 8 0;
#X connect 2 0 3 0;
#X connect 2 0 4 0;
#X connect 3 0 18 0;
#X connect 4 0 5 0;
#X connect 5 0 2 1;
#X connect 6 0 1 0;
#X connect 7 0 9 1;
#X connect 8 0 26 0;
#X connect 9 0 22 0;
#X connect 10 0 13 0;
#X connect 11 0 13 1;
#X connect 12 0 11 0;
#X connect 13 0 0 0;
#X connect 14 0 15 0;
#X connect 15 0 16 0;
#X connect 16 0 12 0;
#X connect 16 1 10 0;
#X connect 17 0 20 1;
#X connect 17 0 22 1;
#X connect 18 0 9 0;
#X connect 18 1 7 0;
#X connect 18 2 17 0;
#X connect 18 3 19 0;
#X connect 19 0 20 0;
#X connect 20 0 21 1;
#X connect 21 0 14 0;
#X connect 22 0 21 0;
#X connect 26 0 2 0;
#X restore 200 445 pd arrayreadsynth;
#X obj 158 263 adc~ 4;
#X connect 0 0 1 0;
#X connect 0 0 2 0;
#X connect 0 1 1 1;
#X connect 0 1 2 1;
#X connect 0 1 11 0;
#X connect 0 2 1 2;
#X connect 0 2 2 2;
#X connect 2 0 14 0;
#X connect 3 0 30 0;
#X connect 5 0 4 0;
#X connect 6 0 5 0;
#X connect 7 0 8 0;
#X connect 7 0 9 0;
#X connect 8 0 12 0;
#X connect 9 0 10 0;
#X connect 10 0 7 1;
#X connect 11 0 13 0;
#X connect 12 0 11 0;
#X connect 12 1 13 1;
#X connect 14 0 1 3;
#X connect 14 0 15 0;
#X connect 15 0 20 0;
#X connect 15 0 26 0;
#X connect 16 0 21 0;
#X connect 18 0 17 0;
#X connect 18 0 17 1;
#X connect 19 0 21 1;
#X connect 20 0 19 0;
#X connect 21 0 18 0;
#X connect 22 0 23 0;
#X connect 23 0 16 0;
#X connect 24 0 25 1;
#X connect 25 0 17 0;
#X connect 25 0 17 1;
#X connect 26 0 3 0;
#X connect 26 0 27 0;
#X connect 26 0 31 0;
#X connect 27 0 29 0;
#X connect 28 0 3 0;
#X connect 28 0 32 0;
#X connect 29 0 28 0;
#X connect 30 0 7 0;
#X connect 33 0 35 0;
#X connect 34 0 33 0;
#X connect 36 0 34 0;
#X connect 37 0 38 0;
#X connect 38 0 36 0;
#X connect 39 0 25 0;
#X connect 40 0 22 0;
