#N canvas 182 56 1406 838 12;
#X obj 89 557 noise~;
#X obj 571 761 dac~;
#X obj 163 614 *~;
#X obj 161 642 lop~ 200;
#X obj 922 553 *~;
#X obj 920 598 lop~ 200;
#X obj 958 499 osc~ 0.04;
#X obj 896 427 osc~ 150;
#X obj 928 462 osc~ 200;
#X obj 872 397 osc~ 100;
#X obj 855 353 osc~ 50;
#X obj 831 323 osc~ 25;
#N canvas 454 124 450 352 standstill 0;
#X obj 85 34 inlet~;
#X obj 84 82 *~;
#X obj 169 34 inlet~;
#X obj 168 82 *~;
#X obj 249 32 inlet~;
#X obj 248 80 *~;
#X obj 117 125 +~;
#X obj 121 160 +~;
#X obj 119 196 sqrt~;
#X obj 82 290 outlet~;
#X obj 83 261 lop~ 1;
#X connect 0 0 1 0;
#X connect 0 0 1 1;
#X connect 1 0 6 0;
#X connect 2 0 3 0;
#X connect 2 0 3 1;
#X connect 3 0 6 1;
#X connect 4 0 5 0;
#X connect 4 0 5 1;
#X connect 5 0 7 1;
#X connect 6 0 7 0;
#X connect 7 0 8 0;
#X connect 8 0 10 0;
#X connect 10 0 9 0;
#X restore 155 129 pd standstill;
#X obj 289 223 *~ 1.2;
#X obj 235 225 *~ 1;
#X obj 182 224 *~ 0.8;
#X obj 126 226 *~ 0.7;
#X obj 301 142 lop~ 100;
#X obj 195 69 adc~ 3 4 5 6;
#X obj 114 506 osc~ 0.05;
#X obj 193 337 loadbang;
#X obj 192 373 random 100;
#X obj 191 413 / 5000;
#X obj 262 338 bng 15 250 50 0 empty empty empty 17 7 0 10 -262144
-1 -1;
#X obj 191 446 + 0.05;
#X obj 834 137 loadbang;
#X obj 903 138 bng 15 250 50 0 empty empty empty 17 7 0 10 -262144
-1 -1;
#X obj 865 282 * 1.5;
#X obj 915 320 * 2;
#X obj 978 330 * 2.5;
#X obj 1023 365 * 3;
#X obj 833 207 + 50;
#X obj 833 173 random 25;
#X obj 418 627 line~;
#X obj 316 673 *~;
#X obj 428 492 tgl 15 0 empty empty empty 17 7 0 10 -262144 -1 -1 1
1;
#X obj 427 518 select 1 0;
#X obj 432 405 snapshot~;
#X obj 471 329 loadbang;
#X obj 471 363 metro 1000;
#X obj 428 464 > 0.2;
#X obj 404 685 *~;
#X obj 542 227 dac~ 27 28 29 30;
#X obj 501 697 *~ 1;
#X obj 365 457 * 500;
#X obj 359 494 + 550;
#X obj 437 659 *~;
#X obj 630 703 *~ 0.03;
#X obj 207 505 phasor~ 0.05;
#X obj 195 542 lop~ 0.05;
#X msg 418 575 1 60000;
#X obj 378 550 delay 10;
#X msg 485 576 0 5000;
#X obj 319 379 lop~ 0.5;
#X connect 0 0 2 0;
#X connect 2 0 3 0;
#X connect 3 0 34 0;
#X connect 4 0 5 0;
#X connect 5 0 47 0;
#X connect 6 0 4 1;
#X connect 7 0 4 0;
#X connect 8 0 4 0;
#X connect 9 0 4 0;
#X connect 10 0 4 0;
#X connect 11 0 4 0;
#X connect 17 0 13 0;
#X connect 17 0 14 0;
#X connect 17 0 15 0;
#X connect 17 0 16 0;
#X connect 17 0 37 0;
#X connect 17 0 42 0;
#X connect 17 0 53 0;
#X connect 18 0 12 0;
#X connect 18 1 12 1;
#X connect 18 2 12 2;
#X connect 18 3 17 0;
#X connect 20 0 21 0;
#X connect 21 0 22 0;
#X connect 22 0 24 0;
#X connect 23 0 21 0;
#X connect 24 0 19 0;
#X connect 24 0 48 0;
#X connect 25 0 32 0;
#X connect 26 0 32 0;
#X connect 27 0 10 0;
#X connect 28 0 9 0;
#X connect 29 0 7 0;
#X connect 30 0 8 0;
#X connect 31 0 11 0;
#X connect 31 0 27 0;
#X connect 31 0 28 0;
#X connect 31 0 29 0;
#X connect 31 0 30 0;
#X connect 32 0 31 0;
#X connect 33 0 46 0;
#X connect 33 0 46 1;
#X connect 34 0 41 0;
#X connect 35 0 36 0;
#X connect 36 0 51 0;
#X connect 36 1 52 0;
#X connect 37 0 40 0;
#X connect 37 0 44 0;
#X connect 38 0 39 0;
#X connect 39 0 37 0;
#X connect 40 0 35 0;
#X connect 41 0 43 0;
#X connect 43 0 1 0;
#X connect 43 0 1 1;
#X connect 44 0 45 0;
#X connect 45 0 3 1;
#X connect 46 0 41 1;
#X connect 46 0 42 1;
#X connect 47 0 1 1;
#X connect 47 0 1 0;
#X connect 47 0 42 2;
#X connect 48 0 49 0;
#X connect 49 0 2 1;
#X connect 49 0 42 3;
#X connect 50 0 33 0;
#X connect 51 0 50 0;
#X connect 52 0 33 0;
#X connect 53 0 34 1;
