#N canvas 138 66 1185 762 12;
#X obj 77 491 noise~;
#X obj 539 750 dac~;
#X obj 77 553 *~;
#X obj 77 581 lop~ 200;
#X obj 598 579 *~;
#X obj 629 630 lop~ 200;
#N canvas 454 124 450 352 standstill 0;
#X obj 85 34 inlet~;
#X obj 84 82 *~;
#X obj 169 34 inlet~;
#X obj 168 82 *~;
#X obj 249 32 inlet~;
#X obj 248 80 *~;
#X obj 117 125 +~;
#X obj 121 160 +~;
#X obj 119 196 sqrt~;
#X obj 82 290 outlet~;
#X obj 83 261 lop~ 1;
#X connect 0 0 1 0;
#X connect 0 0 1 1;
#X connect 1 0 6 0;
#X connect 2 0 3 0;
#X connect 2 0 3 1;
#X connect 3 0 6 1;
#X connect 4 0 5 0;
#X connect 4 0 5 1;
#X connect 5 0 7 1;
#X connect 6 0 7 0;
#X connect 7 0 8 0;
#X connect 8 0 10 0;
#X connect 10 0 9 0;
#X restore 111 233 pd standstill;
#X obj 233 240 lop~ 100;
#X obj 145 320 loadbang;
#X obj 144 356 random 100;
#X obj 143 396 / 5000;
#X obj 214 321 bng 15 250 50 0 empty empty empty 17 7 0 10 -262144
-1 -1;
#X obj 143 429 + 0.05;
#X obj 760 51 loadbang;
#X obj 597 236 + 50;
#X obj 597 202 random 25;
#X obj 386 616 line~;
#X obj 265 621 *~;
#X obj 396 481 tgl 15 0 empty empty empty 17 7 0 10 -262144 -1 -1 0
1;
#X obj 395 507 select 1 0;
#X obj 400 394 snapshot~;
#X obj 439 318 loadbang;
#X obj 439 352 metro 1000;
#X obj 396 453 > 0.2;
#X obj 372 674 *~;
#X obj 31 749 dac~ 27 28 29 30;
#X obj 333 446 * 500;
#X obj 333 479 + 550;
#X obj 386 643 *~;
#X obj 144 461 phasor~ 0.05;
#X obj 144 490 lop~ 0.05;
#X obj 346 539 delay 10;
#X msg 453 573 0 5000;
#X obj 283 586 lop~ 0.5;
#X obj 151 173 adc~ 3 4 5 8;
#X obj 597 352 osc~ 25;
#X obj 621 382 osc~ 50;
#X obj 638 426 osc~ 100;
#X obj 662 456 osc~ 150;
#X obj 694 491 osc~ 200;
#X obj 738 231 random 100;
#X obj 737 198 bng 15 250 50 0 empty empty empty 17 7 0 10 -262144
-1 -1;
#X obj 739 291 + 1;
#X obj 835 264 random 100;
#X obj 834 231 bng 15 250 50 0 empty empty empty 17 7 0 10 -262144
-1 -1;
#X obj 916 325 random 100;
#X obj 915 292 bng 15 250 50 0 empty empty empty 17 7 0 10 -262144
-1 -1;
#X obj 1005 363 random 100;
#X obj 1004 330 bng 15 250 50 0 empty empty empty 17 7 0 10 -262144
-1 -1;
#X msg 386 572 1 180000;
#X obj 631 311 *;
#X obj 681 349 *;
#X obj 708 392 *;
#X obj 746 432 *;
#X obj 760 140 t b b b b b;
#X obj 1006 423 + 2;
#X obj 917 385 + 2;
#X obj 836 324 + 1;
#X obj 782 107 metro 60000;
#X obj 782 83 tgl 15 0 empty empty empty 17 7 0 10 -262144 -1 -1 0
1;
#X obj 598 692 *~ 0.2;
#X obj 724 528 osc~ 0.02;
#X obj 738 263 / 3000;
#X obj 835 296 / 3000;
#X obj 916 357 / 3000;
#X obj 1005 395 / 3000;
#X obj 469 686 *~ 2;
#X connect 0 0 2 0;
#X connect 2 0 3 0;
#X connect 3 0 17 0;
#X connect 4 0 60 0;
#X connect 5 0 60 0;
#X connect 7 0 20 0;
#X connect 7 0 33 0;
#X connect 8 0 9 0;
#X connect 9 0 10 0;
#X connect 10 0 12 0;
#X connect 11 0 9 0;
#X connect 12 0 29 0;
#X connect 13 0 54 0;
#X connect 13 0 59 0;
#X connect 14 0 35 0;
#X connect 14 0 50 0;
#X connect 14 0 51 0;
#X connect 14 0 52 0;
#X connect 14 0 53 0;
#X connect 15 0 14 0;
#X connect 16 0 28 0;
#X connect 16 0 28 1;
#X connect 17 0 24 0;
#X connect 18 0 19 0;
#X connect 19 0 31 0;
#X connect 19 1 32 0;
#X connect 20 0 23 0;
#X connect 20 0 26 0;
#X connect 21 0 22 0;
#X connect 22 0 20 0;
#X connect 23 0 18 0;
#X connect 24 0 66 0;
#X connect 26 0 27 0;
#X connect 27 0 3 1;
#X connect 28 0 24 1;
#X connect 29 0 30 0;
#X connect 30 0 2 1;
#X connect 31 0 49 0;
#X connect 32 0 16 0;
#X connect 33 0 17 1;
#X connect 34 0 6 0;
#X connect 34 1 6 1;
#X connect 34 2 6 2;
#X connect 34 3 7 0;
#X connect 34 3 25 0;
#X connect 35 0 4 0;
#X connect 36 0 4 0;
#X connect 37 0 4 0;
#X connect 38 0 4 0;
#X connect 39 0 4 0;
#X connect 40 0 62 0;
#X connect 41 0 40 0;
#X connect 42 0 50 1;
#X connect 43 0 63 0;
#X connect 44 0 43 0;
#X connect 45 0 64 0;
#X connect 46 0 45 0;
#X connect 47 0 65 0;
#X connect 48 0 47 0;
#X connect 49 0 16 0;
#X connect 50 0 36 0;
#X connect 51 0 37 0;
#X connect 52 0 38 0;
#X connect 53 0 39 0;
#X connect 54 0 15 0;
#X connect 54 1 41 0;
#X connect 54 2 44 0;
#X connect 54 3 46 0;
#X connect 54 4 48 0;
#X connect 55 0 53 1;
#X connect 56 0 52 1;
#X connect 57 0 51 1;
#X connect 58 0 54 0;
#X connect 59 0 58 0;
#X connect 60 0 1 1;
#X connect 60 0 1 0;
#X connect 61 0 4 1;
#X connect 62 0 42 0;
#X connect 63 0 57 0;
#X connect 64 0 56 0;
#X connect 65 0 55 0;
#X connect 66 0 1 0;
#X connect 66 0 1 1;
