#N canvas 62 23 1493 977 10;
#X obj 81 58 metro 100;
#X obj 80 30 tgl 15 0 empty empty empty 17 7 0 10 -262144 -1 -1 0 1
;
#X obj 80 94 random 36;
#X obj 79 124 + 36;
#X obj 169 170 i;
#X obj 205 155 + 1;
#X floatatom 136 236 5 0 0 0 - - -, f 5;
#X obj 252 318 t 0;
#X obj 117 340 bng 15 250 50 0 empty empty empty 17 7 0 10 -262144
-1 -1;
#X obj 124 287 sel 1 2 3 4 5 6 7 8;
#X obj 205 179 mod 65;
#X floatatom 463 537 5 0 0 0 - - -, f 5;
#X floatatom 462 600 5 0 0 0 - - -, f 5;
#X obj 464 440 metro 100;
#X obj 463 483 f;
#X obj 511 483 + 1;
#X obj 462 721 *~ 0.3;
#X obj 462 688 osc~;
#X obj 453 770 dac~;
#X floatatom 523 409 5 0 0 0 - - -, f 5;
#X floatatom 462 660 5 0 0 0 - - -, f 5;
#X obj 462 629 mtof;
#X floatatom 549 468 5 0 0 0 - - -, f 5;
#X obj 464 381 bng 25 250 50 0 empty start Start 30 12 0 14 -4034 -1
-1;
#X obj 691 380 bng 25 250 50 0 empty start Stop 30 12 0 14 -257985
-1 -1;
#X msg 691 420 0;
#X text 586 467 <--- sequence length;
#X obj 511 505 mod 65;
#X obj 1242 248 table major-scale;
#X obj 1241 273 table harmonic-minor;
#X obj 1253 134 loadbang;
#X obj 1241 295 table melodic-minor;
#X msg 1253 158 \; major-scale 0 0 2 4 5 7 9 11 \; harmonic-minor 0
0 2 3 5 7 8 11 \; melodic-minor 0 0 2 3 5 7 9 11 \; natural-minor 0
0 2 3 5 7 9 10 \;;
#X obj 1241 318 table natural-minor;
#X obj 462 564 tabread myMelody;
#X obj 759 236 tabwrite myMelody;
#N canvas 0 22 450 278 (subpatch) 0;
#X array myMelody 64 float 2;
#X coords 0 127 64 0 250 200 1 0 0;
#X restore 443 90 graph;
#X msg 762 129 90 50;
#X msg 777 160 91 51;
#X msg 792 188 92 52;
#X obj 1287 458 tabread major-scale;
#X floatatom 1282 421 5 0 0 0 - - -, f 5;
#X floatatom 1289 483 5 0 0 0 - - -, f 5;
#X obj 1289 536 + 60;
#X obj 463 340 loadbang;
#X obj 1207 47 loadbang;
#X msg 1207 71 \; myMelody;
#X obj 760 93 bng 15 250 50 0 empty empty empty 17 7 0 10 -262144 -1
-1;
#X obj 759 65 loadbang;
#X obj 1055 165 random 62;
#X obj 1060 308 + 1;
#X obj 1129 308 + 2;
#X obj 926 348 pack 0 0;
#X obj 1019 350 pack 0 0;
#X obj 1088 349 pack 0 0;
#X obj 976 113 bng 15 250 50 0 empty empty empty 17 7 0 10 -262144
-1 -1;
#X obj 1003 260 + 36;
#X obj 1099 264 + 36;
#X obj 880 410 tabwrite myMelody;
#X obj 632 543 sel 1;
#X obj 915 228 random 36;
#X obj 1001 226 random 36;
#X obj 1097 230 random 36;
#X obj 917 262 + 36;
#X connect 0 0 2 0;
#X connect 0 0 4 0;
#X connect 1 0 0 0;
#X connect 2 0 3 0;
#X connect 4 0 6 0;
#X connect 4 0 5 0;
#X connect 5 0 10 0;
#X connect 6 0 9 0;
#X connect 9 0 8 0;
#X connect 9 7 7 0;
#X connect 10 0 4 1;
#X connect 11 0 34 0;
#X connect 11 0 59 0;
#X connect 12 0 21 0;
#X connect 13 0 14 0;
#X connect 14 0 15 0;
#X connect 14 0 11 0;
#X connect 15 0 27 0;
#X connect 16 0 18 1;
#X connect 16 0 18 0;
#X connect 17 0 16 0;
#X connect 19 0 13 1;
#X connect 20 0 17 0;
#X connect 21 0 20 0;
#X connect 22 0 27 1;
#X connect 23 0 13 0;
#X connect 24 0 25 0;
#X connect 25 0 13 0;
#X connect 27 0 14 1;
#X connect 30 0 32 0;
#X connect 34 0 12 0;
#X connect 37 0 35 0;
#X connect 38 0 35 0;
#X connect 39 0 35 0;
#X connect 40 0 42 0;
#X connect 41 0 40 0;
#X connect 42 0 43 0;
#X connect 44 0 23 0;
#X connect 45 0 46 0;
#X connect 47 0 37 0;
#X connect 47 0 38 0;
#X connect 47 0 39 0;
#X connect 48 0 47 0;
#X connect 49 0 50 0;
#X connect 49 0 51 0;
#X connect 49 0 52 1;
#X connect 50 0 53 1;
#X connect 51 0 54 1;
#X connect 52 0 58 0;
#X connect 53 0 58 0;
#X connect 54 0 58 0;
#X connect 55 0 49 0;
#X connect 55 0 60 0;
#X connect 55 0 61 0;
#X connect 55 0 62 0;
#X connect 56 0 53 0;
#X connect 57 0 54 0;
#X connect 59 0 55 0;
#X connect 60 0 63 0;
#X connect 61 0 56 0;
#X connect 62 0 57 0;
#X connect 63 0 52 0;
