#N canvas 256 506 1041 577 10;
#X obj 373 92 mtof;
#X obj 481 157 r \$0-feedback;
#X obj 714 61 inlet;
#X obj 714 85 list trim;
#X obj 373 46 r \$0-bpitch;
#X obj 533 301 r \$0-basedur;
#X obj 80 213 inlet~;
#X obj 377 214 inlet~;
#X obj 355 506 outlet~;
#X obj 460 302 r \$0-delr;
#X obj 159 314 r \$0-dell;
#X obj 460 354 swap 1000;
#X obj 159 365 swap 1000;
#X obj 460 382 /;
#X obj 159 395 /;
#X obj 167 225 bp~ 5400 2;
#X obj 442 238 bp~ 5400 2;
#X obj 481 182 / 2;
#X obj 207 147 r \$0-feedback;
#X obj 207 172 / 2;
#X text 511 182 because of 2 delaylines;
#X obj 442 215 *~ 0.1;
#X obj 168 202 *~ 0.1;
#X obj 509 215 r \$0-bq;
#X obj 234 205 r \$0-bq;
#X obj 460 422 vd~ \$0-dubby-r;
#X obj 159 434 vd~ \$0-dubby-l;
#X obj 421 481 r \$0-dry;
#X obj 421 503 pack 0 10;
#X obj 533 323 t b a;
#X obj 233 314 r \$0-basedur;
#X obj 233 336 t b a;
#X obj 440 271 delwrite~ \$0-dubby-r 6000;
#X obj 167 271 delwrite~ \$0-dubby-l 6000;
#N canvas 172 83 586 377 LICENSE-GPL 0;
#X text 57 88 This program is free software: you can redistribute it
and/or modify it under the terms of the GNU General Public License
as published by the Free Software Foundation \, either version 3 of
the License \, or (at your option) any later version.;
#X text 58 168 This program is distributed in the hope that it will
be useful \, but WITHOUT ANY WARRANTY \; without even the implied warranty
of MERCHANTABILITY or FITNESS FOR A PARTICULAR PURPOSE. See the GNU
General Public License for more details.;
#X text 57 261 You should have received a copy of the GNU General Public
License along with this program. If not \, see <http://www.gnu.org/licenses/>.
;
#X text 61 54 Copyright (C) 2009 \, Reality Jockey Ltd.;
#X text 60 325 See the file LICENSE.txt for the full license text.
;
#X restore 912 29 pd LICENSE-GPL;
#N canvas 1479 319 450 300 xfade 0;
#X obj 94 94 inlet~;
#X obj 160 94 inlet~;
#X obj 95 205 outlet~;
#X obj 219 94 inlet;
#X obj 219 134 vline~;
#X obj 159 143 -~;
#X obj 159 163 *~;
#X connect 0 0 5 1;
#X connect 0 0 2 0;
#X connect 1 0 5 0;
#X connect 3 0 4 0;
#X connect 4 0 6 1;
#X connect 5 0 6 0;
#X connect 6 0 2 0;
#X restore 350 476 pd xfade;
#X obj 79 508 outlet~;
#X obj 145 483 r \$0-dry;
#X obj 145 505 pack 0 10;
#N canvas 1479 319 450 300 xfade 0;
#X obj 94 94 inlet~;
#X obj 160 94 inlet~;
#X obj 95 205 outlet~;
#X obj 219 94 inlet;
#X obj 219 134 vline~;
#X obj 159 143 -~;
#X obj 159 163 *~;
#X connect 0 0 5 1;
#X connect 0 0 2 0;
#X connect 1 0 5 0;
#X connect 3 0 4 0;
#X connect 4 0 6 1;
#X connect 5 0 6 0;
#X connect 6 0 2 0;
#X restore 74 478 pd xfade;
#X obj 714 109 dispatch \$0 delr;
#X obj 714 133 dispatch \$0 dell;
#X obj 714 158 dispatch \$0 feedback;
#X obj 714 181 dispatch \$0 bpitch;
#X obj 714 204 dispatch \$0 basedur;
#X obj 714 226 dispatch \$0 bq;
#X obj 714 247 dispatch \$0 dry;
#X text 707 282 borrowed from RJ library;
#X connect 0 0 15 1;
#X connect 0 0 16 1;
#X connect 1 0 17 0;
#X connect 2 0 3 0;
#X connect 3 0 40 0;
#X connect 4 0 0 0;
#X connect 5 0 29 0;
#X connect 6 0 33 0;
#X connect 6 0 39 1;
#X connect 7 0 32 0;
#X connect 7 0 35 1;
#X connect 9 0 11 0;
#X connect 10 0 12 0;
#X connect 11 0 13 0;
#X connect 11 1 13 1;
#X connect 12 0 14 0;
#X connect 12 1 14 1;
#X connect 13 0 25 0;
#X connect 14 0 26 0;
#X connect 15 0 33 0;
#X connect 16 0 32 0;
#X connect 17 0 21 1;
#X connect 18 0 19 0;
#X connect 19 0 22 1;
#X connect 21 0 16 0;
#X connect 22 0 15 0;
#X connect 23 0 16 2;
#X connect 24 0 15 2;
#X connect 25 0 22 0;
#X connect 25 0 35 0;
#X connect 26 0 21 0;
#X connect 26 0 39 0;
#X connect 27 0 28 0;
#X connect 28 0 35 2;
#X connect 29 0 11 0;
#X connect 29 1 11 1;
#X connect 30 0 31 0;
#X connect 31 0 12 0;
#X connect 31 1 12 1;
#X connect 35 0 8 0;
#X connect 37 0 38 0;
#X connect 38 0 39 2;
#X connect 39 0 36 0;
#X connect 40 0 41 0;
#X connect 41 0 42 0;
#X connect 42 0 43 0;
#X connect 43 0 44 0;
#X connect 44 0 45 0;
#X connect 45 0 46 0;
