#N canvas 41 197 1068 633 10;
#X obj 166 163 +~;
#X obj 165 188 /~ 3;
#N canvas 454 124 450 352 standstill 0;
#X obj 85 34 inlet~;
#X obj 84 82 *~;
#X obj 169 34 inlet~;
#X obj 168 82 *~;
#X obj 249 32 inlet~;
#X obj 248 80 *~;
#X obj 117 125 +~;
#X obj 121 160 +~;
#X obj 119 196 sqrt~;
#X obj 82 290 outlet~;
#X obj 83 261 lop~ 1;
#X connect 0 0 1 0;
#X connect 0 0 1 1;
#X connect 1 0 6 0;
#X connect 2 0 3 0;
#X connect 2 0 3 1;
#X connect 3 0 6 1;
#X connect 4 0 5 0;
#X connect 4 0 5 1;
#X connect 5 0 7 1;
#X connect 6 0 7 0;
#X connect 7 0 8 0;
#X connect 8 0 10 0;
#X connect 10 0 9 0;
#X restore 108 126 pd standstill;
#X obj 274 83 lop~ 100;
#X obj 163 207 lop~ 100;
#X obj 160 259 *~ 5;
#X obj 167 232 -~ 0.3;
#X obj 148 66 adc~ 3 4 5 6;
#X obj 634 118 loadbang;
#X obj 666 313 osc~;
#X obj 554 330 *~;
#X obj 676 171 random 1000;
#X obj 521 243 osc~;
#X obj 676 218 sig~;
#X obj 676 196 / 1000;
#X obj 672 241 *~ 0.02;
#X obj 671 265 +~ 0.02;
#X obj 452 399 *~ 0.6;
#X obj 568 176 + 50;
#X obj 424 469 dac~ 1 2;
#X obj 578 149 random 500;
#X connect 0 0 1 0;
#X connect 1 0 4 0;
#X connect 4 0 6 0;
#X connect 6 0 5 0;
#X connect 7 0 2 0;
#X connect 7 1 2 1;
#X connect 7 1 0 0;
#X connect 7 2 0 1;
#X connect 7 2 2 2;
#X connect 7 3 3 0;
#X connect 8 0 11 0;
#X connect 8 0 20 0;
#X connect 9 0 10 1;
#X connect 10 0 17 0;
#X connect 11 0 14 0;
#X connect 12 0 10 0;
#X connect 13 0 15 0;
#X connect 14 0 13 0;
#X connect 15 0 16 0;
#X connect 16 0 9 0;
#X connect 17 0 19 0;
#X connect 17 0 19 1;
#X connect 18 0 12 0;
#X connect 20 0 18 0;
