#N canvas 503 96 1068 633 10;
#X obj 166 163 +~;
#X obj 165 188 /~ 3;
#N canvas 454 124 450 352 standstill 0;
#X obj 85 34 inlet~;
#X obj 84 82 *~;
#X obj 169 34 inlet~;
#X obj 168 82 *~;
#X obj 249 32 inlet~;
#X obj 248 80 *~;
#X obj 117 125 +~;
#X obj 121 160 +~;
#X obj 119 196 sqrt~;
#X obj 82 290 outlet~;
#X obj 83 261 lop~ 1;
#X connect 0 0 1 0;
#X connect 0 0 1 1;
#X connect 1 0 6 0;
#X connect 2 0 3 0;
#X connect 2 0 3 1;
#X connect 3 0 6 1;
#X connect 4 0 5 0;
#X connect 4 0 5 1;
#X connect 5 0 7 1;
#X connect 6 0 7 0;
#X connect 7 0 8 0;
#X connect 8 0 10 0;
#X connect 10 0 9 0;
#X restore 108 126 pd standstill;
#X obj 274 83 lop~ 100;
#X obj 163 207 lop~ 100;
#X obj 160 259 *~ 5;
#X obj 167 232 -~ 0.3;
#X obj 148 66 adc~ 3 4 5 6;
#X obj 795 102 loadbang;
#X obj 827 297 osc~;
#X obj 715 314 *~;
#X obj 837 155 random 1000;
#X obj 682 227 osc~;
#X obj 837 202 sig~;
#X obj 837 180 / 1000;
#X obj 833 225 *~ 0.02;
#X obj 832 249 +~ 0.02;
#X obj 729 160 + 50;
#X obj 394 466 dac~ 1 2;
#X obj 739 133 random 500;
#X obj 456 349 line~;
#X msg 491 296 0 500;
#X obj 489 261 delay 100;
#X obj 444 257 bng 15 250 50 0 empty empty empty 17 7 0 10 -262144
-1 -1;
#X obj 446 178 loadbang;
#X obj 444 211 metro 1000;
#X obj 394 417 *~;
#X obj 374 344 osc~ 200;
#X msg 447 290 3 100;
#X connect 0 0 1 0;
#X connect 1 0 4 0;
#X connect 4 0 6 0;
#X connect 6 0 5 0;
#X connect 7 0 2 0;
#X connect 7 1 2 1;
#X connect 7 1 0 0;
#X connect 7 2 0 1;
#X connect 7 2 2 2;
#X connect 7 3 3 0;
#X connect 8 0 11 0;
#X connect 8 0 19 0;
#X connect 9 0 10 1;
#X connect 11 0 14 0;
#X connect 12 0 10 0;
#X connect 13 0 15 0;
#X connect 14 0 13 0;
#X connect 15 0 16 0;
#X connect 16 0 9 0;
#X connect 17 0 12 0;
#X connect 19 0 17 0;
#X connect 20 0 26 1;
#X connect 21 0 20 0;
#X connect 22 0 21 0;
#X connect 23 0 28 0;
#X connect 24 0 25 0;
#X connect 25 0 23 0;
#X connect 26 0 18 0;
#X connect 26 0 18 1;
#X connect 27 0 26 0;
#X connect 28 0 20 0;
#X connect 28 0 22 0;
