#N canvas 782 98 543 647 12;
#X obj 101 220 noise~;
#X obj 175 528 dac~;
#X obj 111 311 *~;
#X obj 105 464 *~ 0.02;
#X obj 147 257 osc~ 0.05;
#X obj 109 356 lop~ 200;
#X obj 234 470 *~ 0.02;
#X obj 278 315 *~;
#X obj 276 360 lop~ 200;
#X obj 314 261 osc~ 0.04;
#X obj 252 189 osc~ 150;
#X obj 284 224 osc~ 200;
#X obj 228 159 osc~ 100;
#X obj 211 115 osc~ 50;
#X obj 187 85 osc~ 25;
#X connect 0 0 2 0;
#X connect 2 0 5 0;
#X connect 3 0 1 0;
#X connect 3 0 1 1;
#X connect 4 0 2 1;
#X connect 5 0 3 0;
#X connect 6 0 1 1;
#X connect 6 0 1 0;
#X connect 7 0 8 0;
#X connect 8 0 6 0;
#X connect 9 0 7 1;
#X connect 10 0 7 0;
#X connect 11 0 7 0;
#X connect 12 0 7 0;
#X connect 13 0 7 0;
#X connect 14 0 7 0;
