#N canvas 32 42 1089 871 10;
#X obj 170 261 snapshot~;
#X obj 170 203 bng 15 250 50 0 empty empty empty 17 7 0 10 -262144
-1 -1;
#X obj 170 363 t f f;
#X obj 224 363 receive pcc;
#X obj 197 386 * 0.1;
#X obj 170 408 + 0.1;
#X obj 315 395 send pcc;
#X obj 315 346 nbx 5 14 -1e+37 1e+37 0 0 empty empty empty 0 -8 0 10
-262144 -1 -1 0 256;
#X obj 354 28 loadbang;
#X msg 583 74 0.1;
#X obj 170 514 bng 15 250 50 0 empty empty empty 17 7 0 10 -262144
-1 -1;
#X text 219 448 find edge~;
#X obj 170 311 expr if ($f1 > 0.98 \, 0 \, if ($f1 < 0.02 \, 0 \, $f1))
\;;
#X obj 170 128 bonk~;
#X msg 354 67 thresh 2.5 10;
#X obj 36 483 threshold~ 0.99 10 0.6 0;
#X obj 170 440 > 1;
#X obj 170 462 sel 1;
#X msg 197 205 list /volume set \$1;
#X msg 197 158 \$2;
#X obj 197 181 * 0.5;
#X msg 251 74 minvel \$1;
#X obj 251 50 nbx 5 14 -1e+37 1e+37 0 0 empty empty empty 0 -8 0 10
-262144 -1 -1 0 256;
#X msg 454 68 50;
#X obj 454 89 * 0.5;
#X msg 454 110 list /threshold \$1;
#X msg 331 370 list /pcctext \$1;
#X msg 583 95 list /pcc \$1;
#X obj 170 541 t b b;
#X obj 170 693 dac~ 1 2;
#X obj 36 449 phasor~ 1;
#X obj 170 82 adc~ 1;
#N canvas 949 244 478 337 select-note 0;
#X obj 86 65 snapshot~;
#X obj 86 288 outlet;
#X obj 86 34 inlet;
#X floatatom 185 306 5 0 0 0 - - -, f 5;
#N canvas 117 120 194 276 note 0;
#X obj 41 91 random 2;
#X obj 41 112 sel 0 1;
#X msg 41 150 0;
#X msg 80 150 2;
#X obj 41 36 inlet;
#X obj 41 181 outlet;
#X obj 41 66 bng 15 250 50 0 empty empty empty 17 7 0 10 -262144 -1
-1;
#X connect 0 0 1 0;
#X connect 1 0 2 0;
#X connect 1 1 3 0;
#X connect 2 0 5 0;
#X connect 3 0 5 0;
#X connect 4 0 6 0;
#X connect 6 0 0 0;
#X restore 86 228 pd note;
#N canvas 117 120 194 276 note 0;
#X obj 41 91 random 2;
#X obj 41 112 sel 0 1;
#X obj 41 36 inlet;
#X obj 41 181 outlet;
#X obj 41 66 bng 15 250 50 0 empty empty empty 17 7 0 10 -262144 -1
-1;
#X msg 41 150 4;
#X msg 80 150 7;
#X connect 0 0 1 0;
#X connect 1 0 5 0;
#X connect 1 1 6 0;
#X connect 2 0 4 0;
#X connect 4 0 0 0;
#X connect 5 0 3 0;
#X connect 6 0 3 0;
#X restore 137 228 pd note;
#N canvas 117 120 194 276 note 0;
#X obj 41 91 random 2;
#X obj 41 112 sel 0 1;
#X obj 41 36 inlet;
#X obj 41 181 outlet;
#X obj 41 66 bng 15 250 50 0 empty empty empty 17 7 0 10 -262144 -1
-1;
#X msg 41 150 9;
#X msg 80 150 12;
#X connect 0 0 1 0;
#X connect 1 0 5 0;
#X connect 1 1 6 0;
#X connect 2 0 4 0;
#X connect 4 0 0 0;
#X connect 5 0 3 0;
#X connect 6 0 3 0;
#X restore 188 229 pd note;
#N canvas 117 120 194 276 note 0;
#X obj 41 91 random 2;
#X obj 41 112 sel 0 1;
#X obj 41 36 inlet;
#X obj 41 181 outlet;
#X obj 41 66 bng 15 250 50 0 empty empty empty 17 7 0 10 -262144 -1
-1;
#X msg 41 150 14;
#X msg 80 150 16;
#X connect 0 0 1 0;
#X connect 1 0 5 0;
#X connect 1 1 6 0;
#X connect 2 0 4 0;
#X connect 4 0 0 0;
#X connect 5 0 3 0;
#X connect 6 0 3 0;
#X restore 239 229 pd note;
#N canvas 117 120 194 276 note 0;
#X obj 41 91 random 2;
#X obj 41 112 sel 0 1;
#X obj 41 36 inlet;
#X obj 41 181 outlet;
#X obj 41 66 bng 15 250 50 0 empty empty empty 17 7 0 10 -262144 -1
-1;
#X msg 41 150 19;
#X msg 80 150 21;
#X connect 0 0 1 0;
#X connect 1 0 5 0;
#X connect 1 1 6 0;
#X connect 2 0 4 0;
#X connect 4 0 0 0;
#X connect 5 0 3 0;
#X connect 6 0 3 0;
#X restore 290 228 pd note;
#X obj 175 66 dac~ 28;
#X obj 145 35 adc~ 8;
#X obj 19 121 print ir;
#X obj 86 267 + 48;
#X obj 86 89 clip 0.01 0.7;
#X obj 86 115 moses 0.1;
#X obj 137 135 moses 0.2;
#X obj 188 158 moses 0.3;
#X obj 239 179 moses 0.4;
#X connect 0 0 13 0;
#X connect 0 0 11 0;
#X connect 2 0 0 0;
#X connect 4 0 12 0;
#X connect 5 0 12 0;
#X connect 6 0 12 0;
#X connect 7 0 12 0;
#X connect 8 0 12 0;
#X connect 10 0 0 0;
#X connect 10 0 9 0;
#X connect 12 0 1 0;
#X connect 12 0 3 0;
#X connect 13 0 14 0;
#X connect 14 0 4 0;
#X connect 14 1 15 0;
#X connect 15 0 5 0;
#X connect 15 1 16 0;
#X connect 16 0 6 0;
#X connect 16 1 17 0;
#X connect 17 0 7 0;
#X connect 17 1 8 0;
#X restore 191 607 pd select-note;
#N canvas 462 138 269 210 rand-loudness 0;
#X obj 101 40 inlet;
#X obj 101 116 / 100;
#X msg 101 92 100;
#X obj 101 137 + 0.5;
#X obj 101 67 random 50;
#X obj 101 158 outlet;
#X connect 0 0 4 0;
#X connect 1 0 3 0;
#X connect 2 0 1 0;
#X connect 3 0 5 0;
#X connect 4 0 2 0;
#X restore 383 600 pd rand-loudness;
#X obj 170 663 karplus_strong~;
#X obj 520 684 dac~ 3 4 5 6 7;
#X obj 97 137 dac~ 27;
#X obj 170 336 sel 0;
#N canvas 502 173 450 300 rand-cutoff 0;
#X obj 78 49 inlet;
#X obj 78 112 outlet;
#X obj 78 70 random 0;
#X obj 78 91 + 5000;
#X connect 0 0 2 0;
#X connect 2 0 3 0;
#X connect 3 0 1 0;
#X restore 284 630 pd rand-cutoff;
#X obj 559 445 t f;
#X obj 615 537 mod 12;
#X obj 612 566 / 12;
#X obj 721 423 print note;
#X obj 475 713 print red;
#X obj 550 715 print green;
#X obj 643 714 print bblue;
#X obj 517 535 mod 12;
#X obj 689 540 mod 12;
#X obj 690 565 / 12;
#X obj 523 573 / 12;
#X obj 612 501 + 4;
#X obj 692 488 + 8;
#X obj 516 620 ledv, f 5;
#X obj 600 605 ledv;
#X obj 665 612 ledv;
#X connect 0 0 12 0;
#X connect 1 0 0 0;
#X connect 2 0 5 0;
#X connect 2 1 4 0;
#X connect 3 0 4 1;
#X connect 4 0 5 1;
#X connect 5 0 16 0;
#X connect 5 0 30 1;
#X connect 7 0 6 0;
#X connect 7 0 26 0;
#X connect 8 0 9 0;
#X connect 8 0 14 0;
#X connect 8 0 23 0;
#X connect 9 0 27 0;
#X connect 10 0 28 0;
#X connect 12 0 37 0;
#X connect 13 0 1 0;
#X connect 13 1 19 0;
#X connect 14 0 13 0;
#X connect 15 0 10 0;
#X connect 16 0 17 0;
#X connect 17 0 10 0;
#X connect 19 0 20 0;
#X connect 20 0 18 0;
#X connect 21 0 13 0;
#X connect 22 0 21 0;
#X connect 23 0 24 0;
#X connect 24 0 25 0;
#X connect 28 0 34 0;
#X connect 28 1 33 0;
#X connect 28 1 32 0;
#X connect 28 1 38 0;
#X connect 30 0 0 0;
#X connect 30 0 15 0;
#X connect 31 0 13 0;
#X connect 31 0 36 0;
#X connect 32 0 34 1;
#X connect 32 0 39 0;
#X connect 33 0 34 4;
#X connect 34 0 29 0;
#X connect 34 0 29 1;
#X connect 37 1 2 0;
#X connect 38 0 34 3;
#X connect 39 0 42 0;
#X connect 39 0 46 0;
#X connect 39 0 50 0;
#X connect 39 0 51 0;
#X connect 40 0 41 0;
#X connect 41 0 44 0;
#X connect 41 0 53 1;
#X connect 46 0 49 0;
#X connect 47 0 48 0;
#X connect 48 0 45 0;
#X connect 48 0 54 1;
#X connect 49 0 43 0;
#X connect 49 0 52 1;
#X connect 50 0 40 0;
#X connect 51 0 47 0;
#X connect 52 0 35 0;
#X connect 53 0 35 1;
#X connect 54 0 35 2;
