#N canvas 365 94 1046 579 10;
#X obj 260 25 inlet pitch;
#X obj 473 33 inlet decay;
#X obj 585 36 inlet cutoff;
#X obj 64 316 *~;
#X obj 49 189 vline~;
#X msg 145 160 1 1;
#X msg 178 160 0 1;
#X obj 224 489 outlet~;
#X obj 260 68 mtof;
#X obj 252 165 /;
#X msg 252 140 1000;
#X obj 252 116 t b f;
#X obj 178 136 del 5;
#X obj 37 508 block~ 1;
#X obj 56 376 delwrite~ \$0-delay 200;
#X obj 43 54 inlet trigger;
#X obj 260 46 t f;
#X obj 241 323 line~;
#X obj 250 297 pack 0 2;
#X obj 109 213 noise~;
#X obj 109 242 bp~ 3000 7;
#X obj 123 270 bp~ 5107 10;
#X obj 43 79 t b b b;
#X msg 41 131 1 1 \, 0 20 5;
#X obj 219 376 vd~ \$0-delay 12;
#X obj 65 344 *~ 1;
#X floatatom 114 326 5 0 0 0 - - -, f 5;
#X obj 690 41 inlet loudness;
#X obj 224 458 *~ 0.999;
#X obj 224 431 lop~ 5000;
#X obj 350 90 t f b;
#X obj 350 161 + 0;
#X obj 377 112 random 2;
#X obj 377 133 - 1;
#X connect 0 0 16 0;
#X connect 1 0 28 1;
#X connect 2 0 29 1;
#X connect 3 0 25 0;
#X connect 4 0 3 0;
#X connect 8 0 30 0;
#X connect 9 0 12 1;
#X connect 9 0 18 0;
#X connect 10 0 9 0;
#X connect 11 0 10 0;
#X connect 11 1 9 1;
#X connect 12 0 6 0;
#X connect 15 0 22 0;
#X connect 16 0 8 0;
#X connect 17 0 24 0;
#X connect 18 0 17 0;
#X connect 19 0 20 0;
#X connect 19 0 21 0;
#X connect 20 0 3 1;
#X connect 21 0 3 1;
#X connect 22 0 5 0;
#X connect 22 1 12 0;
#X connect 22 2 23 0;
#X connect 23 0 4 0;
#X connect 24 0 29 0;
#X connect 25 0 14 0;
#X connect 26 0 25 1;
#X connect 27 0 26 0;
#X connect 28 0 7 0;
#X connect 28 0 14 0;
#X connect 29 0 28 0;
#X connect 30 0 31 0;
#X connect 30 1 32 0;
#X connect 31 0 11 0;
#X connect 32 0 33 0;
#X connect 33 0 31 1;
