#N canvas 810 268 911 691 10;
#X obj 392 94 timer;
#X obj 391 64 t b b;
#X obj 411 28 bng 15 250 50 0 empty empty empty 17 7 0 10 -262144 -1
-1;
#X floatatom 396 146 5 0 0 0 - - -, f 5;
#X obj 384 553 outlet~;
#X obj 493 334 delay;
#X floatatom 493 314 5 0 0 0 - - -, f 5;
#X obj 392 118 f;
#X floatatom 545 391 5 0 0 0 - - -, f 5;
#X obj 496 417 pack 0 0;
#X msg 503 391 0;
#X obj 495 359 t b b;
#X obj 517 14 inlet trigger;
#X obj 572 76 del 1;
#X obj 397 167 / 4;
#X obj 551 362 * 3;
#X obj 658 10 inlet height;
#X obj 656 47 t b f;
#X msg 553 38 1;
#X obj 345 299 list prepend;
#X obj 691 147 + 0.1;
#X obj 693 124 * 0.9;
#X obj 383 527 vline~;
#X msg 393 476 \$1 125 \, 0 1200 250;
#X connect 0 0 7 0;
#X connect 1 0 0 0;
#X connect 1 1 0 1;
#X connect 2 0 1 0;
#X connect 3 0 14 0;
#X connect 5 0 11 0;
#X connect 6 0 5 0;
#X connect 7 0 3 0;
#X connect 8 0 9 1;
#X connect 10 0 9 0;
#X connect 11 0 9 0;
#X connect 11 1 10 0;
#X connect 12 0 18 0;
#X connect 13 0 2 0;
#X connect 14 0 6 0;
#X connect 14 0 15 0;
#X connect 14 0 19 0;
#X connect 15 0 8 0;
#X connect 16 0 17 0;
#X connect 17 0 13 0;
#X connect 17 1 21 0;
#X connect 18 0 17 0;
#X connect 20 0 19 1;
#X connect 20 0 23 0;
#X connect 21 0 20 0;
#X connect 22 0 4 0;
#X connect 23 0 22 0;
