#N canvas 617 110 856 542 10;
#X obj 406 324 line;
#X floatatom 404 352 5 0 0 0 - - -, f 5;
#X obj 141 62 metro 4000;
#X obj 140 37 tgl 15 0 empty empty empty 17 7 0 10 -262144 -1 -1 0
1;
#X obj 305 382 *~;
#X obj 224 28 receive led;
#X obj 304 63 bng 15 250 50 0 empty empty empty 17 7 0 10 -262144 -1
-1;
#X msg 167 97 0 \, 1 \, 0 1000;
#X obj 392 94 timer;
#X obj 391 64 t b b;
#X obj 411 28 bng 15 250 50 0 empty empty empty 17 7 0 10 -262144 -1
-1;
#X floatatom 396 146 5 0 0 0 - - -, f 5;
#X obj 323 442 outlet~;
#X obj 405 377 outlet;
#X obj 303 354 osc~;
#X obj 472 183 delay;
#X floatatom 472 163 5 0 0 0 - - -, f 5;
#X obj 392 118 f;
#X floatatom 519 241 5 0 0 0 - - -, f 5;
#X obj 475 266 pack 0 0;
#X msg 482 240 0;
#X obj 474 208 t b b;
#X obj 517 14 inlet trigger;
#X obj 572 76 del 1;
#X obj 397 167 / 4;
#X obj 396 197 * 3;
#X obj 658 10 inlet height;
#X obj 656 47 t b f;
#X msg 553 38 1;
#X obj 414 296 list prepend;
#X obj 691 147 + 0.1;
#X obj 693 124 * 0.9;
#X connect 0 0 1 0;
#X connect 1 0 4 1;
#X connect 1 0 13 0;
#X connect 2 0 7 0;
#X connect 3 0 2 0;
#X connect 4 0 12 0;
#X connect 6 0 7 0;
#X connect 7 0 0 0;
#X connect 8 0 17 0;
#X connect 9 0 8 0;
#X connect 9 1 8 1;
#X connect 10 0 9 0;
#X connect 11 0 24 0;
#X connect 14 0 4 0;
#X connect 15 0 21 0;
#X connect 16 0 15 0;
#X connect 17 0 11 0;
#X connect 18 0 19 1;
#X connect 19 0 0 0;
#X connect 20 0 19 0;
#X connect 21 0 19 0;
#X connect 21 1 20 0;
#X connect 22 0 28 0;
#X connect 23 0 10 0;
#X connect 24 0 16 0;
#X connect 24 0 25 0;
#X connect 24 0 29 0;
#X connect 25 0 18 0;
#X connect 26 0 27 0;
#X connect 27 0 23 0;
#X connect 27 1 31 0;
#X connect 28 0 27 0;
#X connect 29 0 0 0;
#X connect 30 0 29 1;
#X connect 31 0 30 0;
