#N canvas 501 23 944 693 10;
#X floatatom 161 302 5 0 0 0 - - -, f 5;
#X floatatom 161 405 5 0 0 0 - - -, f 5;
#X obj 161 248 f;
#X obj 204 241 + 1;
#X obj 161 614 dac~;
#X floatatom 220 174 5 0 0 0 - - -, f 5;
#X floatatom 243 240 5 0 0 0 - - -, f 5;
#X obj 204 263 mod 65;
#X obj 599 153 table major-scale;
#X obj 598 178 table harmonic-minor;
#X obj 598 52 loadbang;
#X obj 598 200 table melodic-minor;
#X msg 598 76 \; major-scale 0 0 2 4 5 7 9 11 \; harmonic-minor 0 0
2 3 5 7 8 11 \; melodic-minor 0 0 2 3 5 7 9 11 \; natural-minor 0 0
2 3 5 7 9 10 \;;
#X obj 598 223 table natural-minor;
#X obj 161 371 tabread myMelody;
#N canvas 0 23 450 278 (subpatch) 0;
#X array myMelody 64 float 2;
#X coords 0 127 64 0 250 200 1 0 0;
#X restore 598 278 graph;
#X obj 520 53 loadbang;
#X msg 520 77 \; myMelody;
#X obj 161 154 tgl 15 0 empty empty empty 17 7 0 10 -262144 -1 -1 0
1;
#X obj 200 85 loadbang;
#X obj 161 502 bng 15 250 50 0 empty empty empty 17 7 0 10 -262144
-1 -1;
#X floatatom 191 485 5 0 1 3 Decay - -, f 5;
#X floatatom 243 484 5 0 5000 3 Cutoff - -, f 5;
#X floatatom 200 557 5 0 0 0 - - -, f 5;
#X obj 161 427 sel 0;
#X obj 161 454 t b f b;
#X obj 161 132 spigot;
#X obj 200 110 tgl 15 0 empty empty empty 17 7 0 10 -262144 -1 -1 1
1;
#N canvas 397 24 292 365 random-volume 0;
#X obj 93 103 random 100;
#X floatatom 93 181 5 0 0 0 - - -, f 5;
#X obj 93 79 bng 15 250 50 0 empty empty empty 17 7 0 10 -262144 -1
-1;
#X obj 93 155 + 0;
#X obj 93 129 / 100;
#X obj 93 52 inlet;
#X obj 93 211 outlet;
#X connect 0 0 4 0;
#X connect 1 0 6 0;
#X connect 2 0 0 0;
#X connect 3 0 1 0;
#X connect 4 0 3 0;
#X connect 5 0 2 0;
#X restore 331 479 pd random-volume;
#N canvas 397 24 459 382 random-pitch 0;
#X obj 54 39 inlet;
#X obj 322 129 random 62;
#X obj 193 216 + 1;
#X obj 289 216 + 2;
#X obj 54 239 pack 0 0;
#X obj 140 239 pack 0 0;
#X obj 236 239 pack 0 0;
#X obj 54 97 bng 15 250 50 0 empty empty empty 17 7 0 10 -262144 -1
-1;
#X obj 54 273 tabwrite myMelody;
#X obj 54 67 sel 1;
#X obj 54 129 random 36;
#X obj 140 129 random 36;
#X obj 236 129 random 36;
#X obj 54 163 + 24;
#X obj 140 163 + 24;
#X obj 236 163 + 24;
#X connect 0 0 9 0;
#X connect 1 0 2 0;
#X connect 1 0 3 0;
#X connect 1 0 4 1;
#X connect 2 0 5 1;
#X connect 3 0 6 1;
#X connect 4 0 8 0;
#X connect 5 0 8 0;
#X connect 6 0 8 0;
#X connect 7 0 1 0;
#X connect 7 0 10 0;
#X connect 7 0 11 0;
#X connect 7 0 12 0;
#X connect 9 0 7 0;
#X connect 10 0 13 0;
#X connect 11 0 14 0;
#X connect 12 0 15 0;
#X connect 13 0 4 0;
#X connect 14 0 5 0;
#X connect 15 0 6 0;
#X restore 184 339 pd random-pitch;
#N canvas 397 24 303 429 reset-pitches 0;
#X obj 54 39 inlet;
#X msg 54 94 bang;
#X obj 54 152 until;
#X msg 62 121 3;
#X obj 54 180 f;
#X obj 92 180 + 1;
#X obj 137 179 sel 0;
#X obj 92 206 mod 65;
#X obj 54 279 pack 0 0;
#X obj 54 228 t b f;
#X msg 54 254 0;
#X obj 54 308 tabwrite myMelody;
#X obj 73 67 loadbang;
#X connect 0 0 1 0;
#X connect 1 0 2 0;
#X connect 2 0 4 0;
#X connect 3 0 2 0;
#X connect 4 0 5 0;
#X connect 4 0 9 0;
#X connect 5 0 7 0;
#X connect 6 0 2 1;
#X connect 7 0 4 1;
#X connect 7 0 6 0;
#X connect 8 0 11 0;
#X connect 9 0 10 0;
#X connect 9 1 8 1;
#X connect 10 0 8 0;
#X connect 12 0 1 0;
#X restore 35 204 pd reset-pitches;
#N canvas 0 23 450 300 sensor-input 0;
#N canvas 454 124 450 352 standstill 0;
#X obj 85 34 inlet~;
#X obj 84 82 *~;
#X obj 169 34 inlet~;
#X obj 168 82 *~;
#X obj 249 32 inlet~;
#X obj 248 80 *~;
#X obj 117 125 +~;
#X obj 121 160 +~;
#X obj 119 196 sqrt~;
#X obj 82 290 outlet~;
#X obj 83 261 lop~ 1;
#X connect 0 0 1 0;
#X connect 0 0 1 1;
#X connect 1 0 6 0;
#X connect 2 0 3 0;
#X connect 2 0 3 1;
#X connect 3 0 6 1;
#X connect 4 0 5 0;
#X connect 4 0 5 1;
#X connect 5 0 7 1;
#X connect 6 0 7 0;
#X connect 7 0 8 0;
#X connect 8 0 10 0;
#X connect 10 0 9 0;
#X restore 52 65 pd standstill;
#X obj 173 107 lop~ 100;
#X obj 173 140 snapshot~;
#X obj 291 65 loadbang;
#X obj 291 101 metro 1000;
#X obj 173 165 > 0.2;
#X obj 160 65 dac~ 27 28 29 30;
#X obj 52 30 adc~ 3 4 5 8;
#X obj 173 189 change;
#X obj 173 221 outlet;
#X connect 1 0 2 0;
#X connect 2 0 5 0;
#X connect 3 0 4 0;
#X connect 4 0 2 0;
#X connect 5 0 8 0;
#X connect 7 0 0 0;
#X connect 7 1 0 1;
#X connect 7 2 0 2;
#X connect 7 3 1 0;
#X connect 7 3 6 0;
#X connect 8 0 9 0;
#X restore 161 60 pd sensor-input;
#X text 217 112 turn off for testing offline;
#X obj 35 178 sel 0;
#N canvas 0 23 302 396 waiting-mode 0;
#X obj 99 107 loadbang;
#X obj 60 172 metro 60000;
#X obj 60 146 tgl 15 0 empty empty empty 17 7 0 10 -262144 -1 -1 1
1;
#X obj 60 84 - 1;
#X obj 60 109 abs;
#X obj 60 223 random 36;
#X obj 60 248 + 24;
#X obj 60 198 bng 15 250 50 0 empty empty empty 17 7 0 10 -262144 -1
-1;
#X obj 60 47 inlet;
#X obj 60 291 outlet;
#X connect 0 0 2 0;
#X connect 1 0 7 0;
#X connect 2 0 1 0;
#X connect 3 0 4 0;
#X connect 4 0 2 0;
#X connect 5 0 6 0;
#X connect 6 0 9 0;
#X connect 7 0 5 0;
#X connect 8 0 3 0;
#X restore 31 301 pd waiting-mode;
#N canvas 112 45 1238 911 melodic-pitch 1;
#X obj 64 239 inlet;
#X obj 607 582 random 62;
#X obj 208 622 + 1;
#X obj 304 622 + 2;
#X obj 64 645 pack 0 0;
#X obj 155 645 pack 0 0;
#X obj 251 645 pack 0 0;
#X obj 64 297 bng 15 250 50 0 empty empty empty 17 7 0 10 -262144 -1
-1;
#X obj 64 722 tabwrite myMelody;
#X obj 64 267 sel 1;
#X floatatom 64 428 5 0 0 0 - - -, f 5;
#X floatatom 64 483 5 0 0 0 - - -, f 5;
#X obj 64 400 random 7;
#X obj 64 452 tabread melodic-minor;
#X floatatom 238 428 5 0 0 0 - - -, f 5;
#X floatatom 238 483 5 0 0 0 - - -, f 5;
#X obj 238 400 random 7;
#X obj 238 452 tabread melodic-minor;
#X floatatom 418 428 5 0 0 0 - - -, f 5;
#X floatatom 418 483 5 0 0 0 - - -, f 5;
#X obj 418 400 random 7;
#X obj 418 452 tabread melodic-minor;
#X obj 64 569 + 36;
#X obj 155 569 + 36;
#X obj 251 569 + 36;
#X obj 355 645 pack 0 0;
#X obj 355 569 + 36;
#X obj 462 645 pack 0 0;
#X obj 462 569 + 36;
#X floatatom 506 332 5 0 0 0 - - -, f 5;
#X floatatom 581 428 5 0 0 0 - - -, f 5;
#X floatatom 581 483 5 0 0 0 - - -, f 5;
#X obj 581 400 random 7;
#X obj 581 452 tabread melodic-minor;
#X floatatom 761 428 5 0 0 0 - - -, f 5;
#X floatatom 761 483 5 0 0 0 - - -, f 5;
#X obj 761 400 random 7;
#X obj 761 452 tabread melodic-minor;
#X obj 408 622 + 3;
#X obj 515 622 + 4;
#X obj 506 218 bng 15 250 50 0 empty empty empty 17 7 0 10 -262144
-1 -1;
#X obj 506 303 * 12;
#X obj 506 274 + 2;
#X obj 657 147 inlet;
#X obj 506 245 random 3;
#X obj 429 235 bng 15 250 50 0 empty empty empty 17 7 0 10 -262144
-1 -1;
#X obj 429 267 random 36;
#X obj 429 298 + 24;
#X obj 657 178 bng 15 250 50 0 empty empty empty 17 7 0 10 -262144
-1 -1;
#X msg 656 278 0;
#X msg 697 278 7;
#X msg 737 277 12;
#X msg 778 277 19;
#X msg 856 278 31;
#X msg 815 278 24;
#X obj 657 241 sel 0 1 2 3 4 5;
#X obj 657 210 random 6;
#X obj 648 312 + 24;
#X connect 0 0 9 0;
#X connect 1 0 2 0;
#X connect 1 0 3 0;
#X connect 1 0 4 1;
#X connect 1 0 38 0;
#X connect 1 0 39 0;
#X connect 2 0 5 1;
#X connect 3 0 6 1;
#X connect 4 0 8 0;
#X connect 5 0 8 0;
#X connect 6 0 8 0;
#X connect 7 0 1 0;
#X connect 7 0 12 0;
#X connect 7 0 16 0;
#X connect 7 0 20 0;
#X connect 7 0 32 0;
#X connect 7 0 36 0;
#X connect 9 0 7 0;
#X connect 10 0 13 0;
#X connect 11 0 22 0;
#X connect 12 0 10 0;
#X connect 13 0 11 0;
#X connect 14 0 17 0;
#X connect 15 0 23 0;
#X connect 16 0 14 0;
#X connect 17 0 15 0;
#X connect 18 0 21 0;
#X connect 19 0 24 0;
#X connect 20 0 18 0;
#X connect 21 0 19 0;
#X connect 22 0 4 0;
#X connect 23 0 5 0;
#X connect 24 0 6 0;
#X connect 26 0 25 0;
#X connect 28 0 27 0;
#X connect 29 0 28 1;
#X connect 29 0 26 1;
#X connect 29 0 24 1;
#X connect 29 0 23 1;
#X connect 29 0 22 1;
#X connect 30 0 33 0;
#X connect 31 0 26 0;
#X connect 32 0 30 0;
#X connect 33 0 31 0;
#X connect 34 0 37 0;
#X connect 35 0 28 0;
#X connect 36 0 34 0;
#X connect 37 0 35 0;
#X connect 38 0 25 1;
#X connect 39 0 27 1;
#X connect 40 0 44 0;
#X connect 41 0 29 0;
#X connect 42 0 41 0;
#X connect 43 0 48 0;
#X connect 44 0 42 0;
#X connect 45 0 46 0;
#X connect 46 0 47 0;
#X connect 47 0 29 0;
#X connect 48 0 56 0;
#X connect 49 0 57 0;
#X connect 50 0 57 0;
#X connect 51 0 57 0;
#X connect 52 0 57 0;
#X connect 53 0 57 0;
#X connect 54 0 57 0;
#X connect 55 0 49 0;
#X connect 55 1 50 0;
#X connect 55 2 51 0;
#X connect 55 3 52 0;
#X connect 55 4 54 0;
#X connect 55 5 53 0;
#X connect 56 0 55 0;
#X connect 57 0 29 0;
#X restore 310 339 pd melodic-pitch;
#X obj 161 533 pluck~;
#X obj 366 250 sel 0;
#X obj 161 205 metro 200;
#X obj 161 578 *~ 0.8;
#X connect 0 0 14 0;
#X connect 0 0 35 0;
#X connect 1 0 24 0;
#X connect 2 0 3 0;
#X connect 2 0 0 0;
#X connect 3 0 7 0;
#X connect 5 0 38 1;
#X connect 6 0 7 1;
#X connect 7 0 2 1;
#X connect 10 0 12 0;
#X connect 14 0 1 0;
#X connect 16 0 17 0;
#X connect 18 0 33 0;
#X connect 18 0 34 0;
#X connect 18 0 37 0;
#X connect 18 0 38 0;
#X connect 19 0 27 0;
#X connect 20 0 36 0;
#X connect 21 0 36 2;
#X connect 22 0 36 3;
#X connect 23 0 39 1;
#X connect 24 1 25 0;
#X connect 25 0 20 0;
#X connect 25 1 36 1;
#X connect 25 2 28 0;
#X connect 26 0 18 0;
#X connect 27 0 26 1;
#X connect 28 0 36 4;
#X connect 31 0 26 0;
#X connect 33 0 30 0;
#X connect 34 0 1 0;
#X connect 36 0 39 0;
#X connect 37 0 35 1;
#X connect 38 0 2 0;
#X connect 39 0 4 1;
#X connect 39 0 4 0;
