#N canvas 127 23 1627 822 10;
#X floatatom 96 422 5 0 0 0 - - -, f 5;
#X floatatom 95 476 5 0 0 0 - - -, f 5;
#X obj 96 368 f;
#X obj 144 368 + 1;
#X obj 70 741 dac~;
#X floatatom 156 294 5 0 0 0 - - -, f 5;
#X floatatom 182 353 5 0 0 0 - - -, f 5;
#X obj 97 266 bng 25 250 50 0 empty start Start 30 12 0 14 -4034 -1
-1;
#X obj 324 265 bng 25 250 50 0 empty start Stop 30 12 0 14 -257985
-1 -1;
#X msg 324 305 0;
#X text 219 352 <--- sequence length;
#X obj 144 390 mod 65;
#X obj 508 147 table major-scale;
#X obj 507 172 table harmonic-minor;
#X obj 507 46 loadbang;
#X obj 507 194 table melodic-minor;
#X msg 507 70 \; major-scale 0 0 2 4 5 7 9 11 \; harmonic-minor 0 0
2 3 5 7 8 11 \; melodic-minor 0 0 2 3 5 7 9 11 \; natural-minor 0 0
2 3 5 7 9 10 \;;
#X obj 507 217 table natural-minor;
#X obj 95 449 tabread myMelody;
#N canvas 0 23 450 278 (subpatch) 0;
#X array myMelody 64 float 2;
#X coords 0 127 64 0 250 200 1 0 0;
#X restore 1004 480 graph;
#X obj 999 169 tabread major-scale;
#X floatatom 999 145 5 0 0 0 - - -, f 5;
#X floatatom 999 191 5 0 0 0 - - -, f 5;
#X obj 999 213 + 60;
#X obj 96 225 loadbang;
#X obj 1005 388 loadbang;
#X msg 1005 412 \; myMelody;
#X obj 628 498 random 62;
#X obj 494 562 + 1;
#X obj 563 562 + 2;
#X obj 360 602 pack 0 0;
#X obj 453 604 pack 0 0;
#X obj 522 603 pack 0 0;
#X obj 360 460 bng 15 250 50 0 empty empty empty 17 7 0 10 -262144
-1 -1;
#X obj 359 633 tabwrite myMelody;
#X obj 360 430 sel 1;
#X obj 360 495 random 36;
#X obj 446 493 random 36;
#X obj 542 497 random 36;
#N canvas 454 124 450 352 standstill 0;
#X obj 85 34 inlet~;
#X obj 84 82 *~;
#X obj 169 34 inlet~;
#X obj 168 82 *~;
#X obj 249 32 inlet~;
#X obj 248 80 *~;
#X obj 117 125 +~;
#X obj 121 160 +~;
#X obj 119 196 sqrt~;
#X obj 82 290 outlet~;
#X obj 83 261 lop~ 1;
#X connect 0 0 1 0;
#X connect 0 0 1 1;
#X connect 1 0 6 0;
#X connect 2 0 3 0;
#X connect 2 0 3 1;
#X connect 3 0 6 1;
#X connect 4 0 5 0;
#X connect 4 0 5 1;
#X connect 5 0 7 1;
#X connect 6 0 7 0;
#X connect 7 0 8 0;
#X connect 8 0 10 0;
#X connect 10 0 9 0;
#X restore 51 75 pd standstill;
#X obj 173 82 lop~ 100;
#X obj 173 197 tgl 15 0 empty empty empty 17 7 0 10 -262144 -1 -1 0
1;
#X obj 173 219 select 1 0;
#X obj 173 115 snapshot~;
#X obj 291 42 loadbang;
#X obj 291 76 metro 1000;
#X obj 173 140 > 0.2;
#X obj 160 43 dac~ 27 28 29 30;
#X obj 52 40 adc~ 3 4 5 8;
#X msg 751 452 bang;
#X obj 751 510 until;
#X msg 759 479 3;
#X obj 751 538 f;
#X obj 789 538 + 1;
#X obj 834 537 sel 0;
#X obj 789 564 mod 65;
#X obj 751 637 pack 0 0;
#X obj 751 586 t b f;
#X msg 751 612 0;
#X obj 751 666 tabwrite myMelody;
#X obj 751 426 loadbang;
#X obj 74 625 bng 15 250 50 0 empty empty empty 17 7 0 10 -262144 -1
-1;
#X floatatom 109 623 5 0 0 0 - - -, f 5;
#X floatatom 156 622 5 0 0 0 - - -, f 5;
#X floatatom 141 668 5 0 0 0 - - -, f 5;
#X obj 95 498 sel 0;
#X obj 97 325 metro 150;
#X obj 74 656 pluck~;
#X obj 232 528 random 100;
#X floatatom 226 622 5 0 0 0 - - -, f 5;
#X obj 235 504 bng 15 250 50 0 empty empty empty 17 7 0 10 -262144
-1 -1;
#X obj 95 525 t b f b;
#X obj 362 529 + 24;
#X obj 448 527 + 24;
#X obj 544 531 + 24;
#X obj 229 594 + 0;
#X obj 231 559 / 100;
#X obj 79 692 *~ 0.4;
#X connect 0 0 18 0;
#X connect 0 0 35 0;
#X connect 1 0 65 0;
#X connect 2 0 3 0;
#X connect 2 0 0 0;
#X connect 3 0 11 0;
#X connect 5 0 66 1;
#X connect 6 0 11 1;
#X connect 7 0 66 0;
#X connect 8 0 9 0;
#X connect 8 0 49 0;
#X connect 9 0 66 0;
#X connect 11 0 2 1;
#X connect 14 0 16 0;
#X connect 18 0 1 0;
#X connect 20 0 22 0;
#X connect 21 0 20 0;
#X connect 22 0 23 0;
#X connect 24 0 7 0;
#X connect 25 0 26 0;
#X connect 27 0 28 0;
#X connect 27 0 29 0;
#X connect 27 0 30 1;
#X connect 28 0 31 1;
#X connect 29 0 32 1;
#X connect 30 0 34 0;
#X connect 31 0 34 0;
#X connect 32 0 34 0;
#X connect 33 0 27 0;
#X connect 33 0 36 0;
#X connect 33 0 37 0;
#X connect 33 0 38 0;
#X connect 35 0 33 0;
#X connect 36 0 72 0;
#X connect 37 0 73 0;
#X connect 38 0 74 0;
#X connect 40 0 43 0;
#X connect 41 0 42 0;
#X connect 42 0 7 0;
#X connect 42 1 8 0;
#X connect 43 0 46 0;
#X connect 44 0 45 0;
#X connect 45 0 43 0;
#X connect 46 0 41 0;
#X connect 48 0 39 0;
#X connect 48 1 39 1;
#X connect 48 2 39 2;
#X connect 48 3 40 0;
#X connect 48 3 47 0;
#X connect 49 0 50 0;
#X connect 50 0 52 0;
#X connect 51 0 50 0;
#X connect 52 0 53 0;
#X connect 52 0 57 0;
#X connect 53 0 55 0;
#X connect 54 0 50 1;
#X connect 55 0 52 1;
#X connect 55 0 54 0;
#X connect 56 0 59 0;
#X connect 57 0 58 0;
#X connect 57 1 56 1;
#X connect 58 0 56 0;
#X connect 60 0 49 0;
#X connect 61 0 67 0;
#X connect 62 0 67 2;
#X connect 63 0 67 3;
#X connect 64 0 77 1;
#X connect 65 1 71 0;
#X connect 66 0 2 0;
#X connect 67 0 77 0;
#X connect 68 0 76 0;
#X connect 69 0 67 4;
#X connect 70 0 68 0;
#X connect 71 0 61 0;
#X connect 71 1 67 1;
#X connect 71 2 70 0;
#X connect 72 0 30 0;
#X connect 73 0 31 0;
#X connect 74 0 32 0;
#X connect 75 0 69 0;
#X connect 76 0 75 0;
#X connect 77 0 4 1;
#X connect 77 0 4 0;
