#N canvas 0 22 450 300 10;
#X obj 34 19 adc~ 3 4 5 8;
#X obj 60 50 lop~ 100;
#X obj 60 106 snapshot~;
#X obj 60 187 outlet;
#X obj 128 51 loadbang;
#X obj 128 73 metro 100;
#X obj 65 129 + 1;
#X obj 64 158 / 2;
#X text 147 185 outputs 0-1 10Hz;
#X connect 0 1 1 0;
#X connect 1 0 2 0;
#X connect 2 0 6 0;
#X connect 4 0 5 0;
#X connect 5 0 2 0;
#X connect 6 0 7 0;
#X connect 7 0 3 0;
