#N canvas 237 65 749 587 10;
#X obj 252 51 inlet pitch;
#X obj 473 33 inlet decay;
#X obj 585 36 inlet cutoff;
#X obj 64 316 *~;
#X obj 49 189 vline~;
#X msg 145 160 1 1;
#X msg 178 160 0 1;
#X obj 224 489 outlet~;
#X obj 252 94 mtof;
#X obj 252 165 /;
#X msg 252 140 1000;
#X obj 252 116 t b f;
#X obj 178 136 del 5;
#X obj 224 431 lop~ 3800;
#X obj 37 508 block~ 1;
#X obj 56 376 delwrite~ \$0-delay 200;
#X obj 43 54 inlet trigger;
#X obj 252 72 t f;
#X obj 241 323 line~;
#X obj 250 297 pack 0 2;
#X obj 109 213 noise~;
#X obj 109 242 bp~ 3000 7;
#X obj 123 270 bp~ 5107 10;
#X obj 43 79 t b b b;
#X msg 41 131 1 1 \, 0 20 5;
#X obj 219 376 vd~ \$0-delay 12;
#X obj 224 458 *~ 0.9;
#X obj 65 344 *~ 1;
#X floatatom 114 326 5 0 0 0 - - -, f 5;
#X obj 690 41 inlet loudness;
#X connect 0 0 17 0;
#X connect 1 0 26 1;
#X connect 2 0 13 1;
#X connect 3 0 27 0;
#X connect 4 0 3 0;
#X connect 8 0 11 0;
#X connect 9 0 12 1;
#X connect 9 0 19 0;
#X connect 10 0 9 0;
#X connect 11 0 10 0;
#X connect 11 1 9 1;
#X connect 12 0 6 0;
#X connect 13 0 26 0;
#X connect 16 0 23 0;
#X connect 17 0 8 0;
#X connect 18 0 25 0;
#X connect 19 0 18 0;
#X connect 20 0 21 0;
#X connect 20 0 22 0;
#X connect 21 0 3 1;
#X connect 22 0 3 1;
#X connect 23 0 5 0;
#X connect 23 1 12 0;
#X connect 23 2 24 0;
#X connect 24 0 4 0;
#X connect 25 0 13 0;
#X connect 26 0 7 0;
#X connect 26 0 15 0;
#X connect 27 0 15 0;
#X connect 28 0 27 1;
#X connect 29 0 28 0;
